G04 #@! TF.GenerationSoftware,KiCad,Pcbnew,9.0.3*
G04 #@! TF.CreationDate,2026-01-14T23:42:54-07:00*
G04 #@! TF.ProjectId,Wrectangle-V4,57726563-7461-46e6-976c-652d56342e6b,rev?*
G04 #@! TF.SameCoordinates,Original*
G04 #@! TF.FileFunction,Copper,L1,Top*
G04 #@! TF.FilePolarity,Positive*
%FSLAX46Y46*%
G04 Gerber Fmt 4.6, Leading zero omitted, Abs format (unit mm)*
G04 Created by KiCad (PCBNEW 9.0.3) date 2026-01-14 23:42:54*
%MOMM*%
%LPD*%
G01*
G04 APERTURE LIST*
G04 Aperture macros list*
%AMRoundRect*
0 Rectangle with rounded corners*
0 $1 Rounding radius*
0 $2 $3 $4 $5 $6 $7 $8 $9 X,Y pos of 4 corners*
0 Add a 4 corners polygon primitive as box body*
4,1,4,$2,$3,$4,$5,$6,$7,$8,$9,$2,$3,0*
0 Add four circle primitives for the rounded corners*
1,1,$1+$1,$2,$3*
1,1,$1+$1,$4,$5*
1,1,$1+$1,$6,$7*
1,1,$1+$1,$8,$9*
0 Add four rect primitives between the rounded corners*
20,1,$1+$1,$2,$3,$4,$5,0*
20,1,$1+$1,$4,$5,$6,$7,0*
20,1,$1+$1,$6,$7,$8,$9,0*
20,1,$1+$1,$8,$9,$2,$3,0*%
%AMFreePoly0*
4,1,70,1.060001,0.759050,1.099006,0.756050,1.139010,0.751049,1.178011,0.743049,1.217014,0.734048,1.255017,0.723047,1.292020,0.710046,1.329021,0.694045,1.365024,0.677044,1.400026,0.658043,1.434028,0.637042,1.467031,0.615040,1.498031,0.591040,1.498032,0.591038,1.529032,0.565038,1.585038,0.509032,1.611038,0.478032,1.611040,0.478031,1.635040,0.447031,1.657043,0.414026,
1.678044,0.380024,1.697045,0.345021,1.714046,0.309020,1.730047,0.272017,1.743048,0.235014,1.754049,0.197011,1.763049,0.158010,1.771050,0.119006,1.776050,0.079004,1.779050,0.040001,1.780050,-0.000001,1.779050,-0.040004,1.776050,-0.079006,1.771049,-0.119010,1.763049,-0.158011,1.754048,-0.197014,1.743047,-0.235017,1.730046,-0.272020,1.714045,-0.309021,1.697044,-0.345024,
1.678043,-0.380026,1.657042,-0.414028,1.635040,-0.447031,1.611040,-0.478031,1.611038,-0.478032,1.585038,-0.509032,1.529032,-0.565038,1.498032,-0.591038,1.498031,-0.591040,1.467031,-0.615040,1.434026,-0.637043,1.400024,-0.658044,1.365021,-0.677045,1.329020,-0.694046,1.292017,-0.710047,1.255014,-0.723048,1.217011,-0.734049,1.178010,-0.743049,1.139006,-0.751050,1.099004,-0.756050,
1.060001,-0.759050,1.020001,-0.760050,-1.020000,-0.760050,-1.020035,-0.760035,-1.020050,-0.760000,-1.020050,0.760000,-1.020035,0.760035,-1.020000,0.760050,1.020001,0.760050,1.060001,0.759050,1.060001,0.759050,$1*%
%AMFreePoly1*
4,1,70,0.040001,1.779050,0.079006,1.776050,0.119010,1.771049,0.158011,1.763049,0.197014,1.754048,0.235017,1.743047,0.272020,1.730046,0.309021,1.714045,0.345024,1.697044,0.380026,1.678043,0.414028,1.657042,0.447031,1.635040,0.478031,1.611040,0.478032,1.611038,0.509032,1.585038,0.565038,1.529032,0.591038,1.498032,0.591040,1.498031,0.615040,1.467031,0.637043,1.434026,
0.658044,1.400024,0.677045,1.365021,0.694046,1.329020,0.710047,1.292017,0.723048,1.255014,0.734049,1.217011,0.743049,1.178010,0.751050,1.139006,0.756050,1.099004,0.759050,1.060001,0.760050,1.020001,0.760050,-1.020000,0.760035,-1.020035,0.760000,-1.020050,-0.760000,-1.020050,-0.760035,-1.020035,-0.760050,-1.020000,-0.760050,1.020001,-0.759050,1.060004,-0.756050,1.099006,
-0.751049,1.139010,-0.743049,1.178011,-0.734048,1.217014,-0.723047,1.255017,-0.710046,1.292020,-0.694045,1.329021,-0.677044,1.365024,-0.658043,1.400026,-0.637042,1.434028,-0.615040,1.467031,-0.591040,1.498031,-0.591038,1.498032,-0.565038,1.529032,-0.509032,1.585038,-0.478032,1.611038,-0.478031,1.611040,-0.447031,1.635040,-0.414026,1.657043,-0.380024,1.678044,-0.345021,1.697045,
-0.309020,1.714046,-0.272017,1.730047,-0.235014,1.743048,-0.197011,1.754049,-0.158010,1.763049,-0.119006,1.771050,-0.079004,1.776050,-0.040001,1.779050,0.000001,1.780050,0.040001,1.779050,0.040001,1.779050,$1*%
%AMFreePoly2*
4,1,70,1.020035,0.760035,1.020050,0.760000,1.020050,-0.760000,1.020035,-0.760035,1.020000,-0.760050,-1.020001,-0.760050,-1.060004,-0.759050,-1.099006,-0.756050,-1.139010,-0.751049,-1.178011,-0.743049,-1.217014,-0.734048,-1.255017,-0.723047,-1.292020,-0.710046,-1.329021,-0.694045,-1.365024,-0.677044,-1.400026,-0.658043,-1.434028,-0.637042,-1.467031,-0.615040,-1.498031,-0.591040,-1.498032,-0.591038,
-1.529032,-0.565038,-1.585038,-0.509032,-1.611038,-0.478032,-1.611040,-0.478031,-1.635040,-0.447031,-1.657043,-0.414026,-1.678044,-0.380024,-1.697045,-0.345021,-1.714046,-0.309020,-1.730047,-0.272017,-1.743048,-0.235014,-1.754049,-0.197011,-1.763049,-0.158010,-1.771050,-0.119006,-1.776050,-0.079004,-1.779050,-0.040001,-1.780050,0.000001,-1.779050,0.040004,-1.776050,0.079006,-1.771049,0.119010,
-1.763049,0.158011,-1.754048,0.197014,-1.743047,0.235017,-1.730046,0.272020,-1.714045,0.309021,-1.697044,0.345024,-1.678043,0.380026,-1.657042,0.414028,-1.635040,0.447031,-1.611040,0.478031,-1.611038,0.478032,-1.585038,0.509032,-1.529032,0.565038,-1.498032,0.591038,-1.498031,0.591040,-1.467031,0.615040,-1.434026,0.637043,-1.400024,0.658044,-1.365021,0.677045,-1.329020,0.694046,
-1.292017,0.710047,-1.255014,0.723048,-1.217011,0.734049,-1.178010,0.743049,-1.139006,0.751050,-1.099004,0.756050,-1.060001,0.759050,-1.020001,0.760050,1.020000,0.760050,1.020035,0.760035,1.020035,0.760035,$1*%
%AMFreePoly3*
4,1,291,0.156581,1.054743,0.158810,1.054000,0.160000,1.054000,0.161581,1.053743,0.163810,1.053000,0.165000,1.053000,0.166581,1.052743,0.169581,1.051743,0.170236,1.051472,0.171920,1.050630,0.173810,1.050000,0.200000,1.050000,0.200000,1.023810,0.200630,1.021920,0.201472,1.020236,0.201743,1.019581,0.202743,1.016581,0.203000,1.015000,0.203000,1.013810,0.203743,1.011581,
0.204000,1.010000,0.204000,1.008810,0.204743,1.006581,0.205000,1.005000,0.205000,0.230000,0.715000,0.230000,0.716581,0.229743,0.718810,0.229000,0.720000,0.229000,0.721581,0.228743,0.723810,0.228000,0.725000,0.228000,0.726581,0.227743,0.729581,0.226743,0.730236,0.226472,0.731920,0.225630,0.734581,0.224743,0.736536,0.223536,0.737964,0.222108,0.739236,0.221472,
0.740536,0.220536,0.741964,0.219108,0.743236,0.218472,0.744536,0.217536,0.752536,0.209536,0.753472,0.208236,0.754108,0.206964,0.755536,0.205536,0.756472,0.204236,0.757108,0.202964,0.758536,0.201536,0.759743,0.199581,0.760630,0.196920,0.761472,0.195236,0.761743,0.194581,0.762743,0.191581,0.763000,0.190000,0.763000,0.188810,0.763743,0.186581,0.764000,0.185000,
0.764000,0.183810,0.764743,0.181581,0.765000,0.180000,0.765000,0.020000,0.764743,0.018419,0.764000,0.016190,0.764000,0.015000,0.763743,0.013419,0.763000,0.011190,0.763000,0.010000,0.762743,0.008419,0.761743,0.005419,0.761472,0.004764,0.760630,0.003080,0.759743,0.000419,0.758536,-0.001536,0.757108,-0.002964,0.756472,-0.004236,0.755536,-0.005536,0.754108,-0.006964,
0.753472,-0.008236,0.752536,-0.009536,0.744536,-0.017536,0.743236,-0.018472,0.741964,-0.019108,0.740536,-0.020536,0.739236,-0.021472,0.737964,-0.022108,0.736536,-0.023536,0.734581,-0.024743,0.731920,-0.025630,0.730236,-0.026472,0.729581,-0.026743,0.726581,-0.027743,0.725000,-0.028000,0.723810,-0.028000,0.721581,-0.028743,0.720000,-0.029000,0.718810,-0.029000,0.716581,-0.029743,
0.715000,-0.030000,0.205000,-0.030000,0.205000,-0.270000,0.715000,-0.270000,0.716581,-0.270257,0.718810,-0.271000,0.720000,-0.271000,0.721581,-0.271257,0.723810,-0.272000,0.725000,-0.272000,0.726581,-0.272257,0.729581,-0.273257,0.730236,-0.273528,0.731920,-0.274370,0.734581,-0.275257,0.736536,-0.276464,0.737964,-0.277892,0.739236,-0.278528,0.740536,-0.279464,0.741964,-0.280892,
0.743236,-0.281528,0.744536,-0.282464,0.752536,-0.290464,0.753472,-0.291764,0.754108,-0.293036,0.755536,-0.294464,0.756472,-0.295764,0.757108,-0.297036,0.758536,-0.298464,0.759743,-0.300419,0.760630,-0.303080,0.761472,-0.304764,0.761743,-0.305419,0.762743,-0.308419,0.763000,-0.310000,0.763000,-0.311190,0.763743,-0.313419,0.764000,-0.315000,0.764000,-0.316190,0.764743,-0.318419,
0.765000,-0.320000,0.765000,-0.480000,0.764743,-0.481581,0.764000,-0.483810,0.764000,-0.485000,0.763743,-0.486581,0.763000,-0.488810,0.763000,-0.490000,0.762743,-0.491581,0.761743,-0.494581,0.761472,-0.495236,0.760630,-0.496920,0.759743,-0.499581,0.758536,-0.501536,0.757108,-0.502964,0.756472,-0.504236,0.755536,-0.505536,0.754108,-0.506964,0.753472,-0.508236,0.752536,-0.509536,
0.744536,-0.517536,0.743236,-0.518472,0.741964,-0.519108,0.740536,-0.520536,0.739236,-0.521472,0.737964,-0.522108,0.736536,-0.523536,0.734581,-0.524743,0.731920,-0.525630,0.730236,-0.526472,0.729581,-0.526743,0.726581,-0.527743,0.725000,-0.528000,0.723810,-0.528000,0.721581,-0.528743,0.720000,-0.529000,0.718810,-0.529000,0.716581,-0.529743,0.715000,-0.530000,0.205000,-0.530000,
0.205000,-0.770000,0.710000,-0.770000,0.711581,-0.770257,0.726581,-0.775257,0.727774,-0.775840,0.730218,-0.777469,0.732581,-0.778257,0.733774,-0.778840,0.739774,-0.782840,0.740536,-0.783464,0.747536,-0.790464,0.748160,-0.791226,0.749884,-0.793812,0.751536,-0.795464,0.752160,-0.796226,0.758160,-0.805226,0.758743,-0.806419,0.759530,-0.808782,0.761160,-0.811226,0.761743,-0.812419,
0.764743,-0.821419,0.765000,-0.823000,0.765000,-0.825383,0.765851,-0.828787,0.766000,-0.830000,0.766000,-0.846000,0.765851,-0.847213,0.765000,-0.850617,0.765000,-0.949383,0.765851,-0.952787,0.766000,-0.954000,0.766000,-0.970000,0.765851,-0.971213,0.765000,-0.974617,0.765000,-0.977000,0.764743,-0.978581,0.761743,-0.987581,0.761160,-0.988774,0.759530,-0.991218,0.758743,-0.993581,
0.758160,-0.994774,0.752160,-1.003774,0.751536,-1.004536,0.749884,-1.006188,0.748160,-1.008774,0.747536,-1.009536,0.740536,-1.016536,0.739774,-1.017160,0.733774,-1.021160,0.732581,-1.021743,0.730218,-1.022530,0.727774,-1.024160,0.726581,-1.024743,0.711581,-1.029743,0.710000,-1.030000,0.205000,-1.030000,0.205000,-1.050000,0.203536,-1.053536,0.200000,-1.055000,-0.155000,-1.055000,
-0.156581,-1.054743,-0.158810,-1.054000,-0.160000,-1.054000,-0.161581,-1.053743,-0.163810,-1.053000,-0.165000,-1.053000,-0.166581,-1.052743,-0.169581,-1.051743,-0.170236,-1.051472,-0.171920,-1.050630,-0.173810,-1.050000,-0.200000,-1.050000,-0.200000,-1.023810,-0.200630,-1.021920,-0.201472,-1.020236,-0.201743,-1.019581,-0.202743,-1.016581,-0.203000,-1.015000,-0.203000,-1.013810,-0.203743,-1.011581,
-0.204000,-1.010000,-0.204000,-1.008810,-0.204743,-1.006581,-0.205000,-1.005000,-0.205000,1.005000,-0.204743,1.006581,-0.204000,1.008810,-0.204000,1.010000,-0.203743,1.011581,-0.203000,1.013810,-0.203000,1.015000,-0.202743,1.016581,-0.201743,1.019581,-0.201472,1.020236,-0.200630,1.021920,-0.200000,1.023810,-0.200000,1.050000,-0.173810,1.050000,-0.171920,1.050630,-0.170236,1.051472,
-0.169581,1.051743,-0.166581,1.052743,-0.165000,1.053000,-0.163810,1.053000,-0.161581,1.053743,-0.160000,1.054000,-0.158810,1.054000,-0.156581,1.054743,-0.155000,1.055000,0.155000,1.055000,0.156581,1.054743,0.156581,1.054743,$1*%
%AMFreePoly4*
4,1,169,0.081581,1.704743,0.083810,1.704000,0.085000,1.704000,0.086581,1.703743,0.088810,1.703000,0.090000,1.703000,0.091581,1.702743,0.094581,1.701743,0.095236,1.701472,0.096920,1.700630,0.099581,1.699743,0.101536,1.698536,0.102964,1.697108,0.104236,1.696472,0.105536,1.695536,0.106964,1.694108,0.108236,1.693472,0.109536,1.692536,0.117536,1.684536,0.118472,1.683236,
0.119108,1.681964,0.120536,1.680536,0.121472,1.679236,0.122108,1.677964,0.123536,1.676536,0.124743,1.674581,0.125630,1.671920,0.126472,1.670236,0.126743,1.669581,0.127743,1.666581,0.128000,1.665000,0.128000,1.663810,0.128743,1.661581,0.129000,1.660000,0.129000,1.658810,0.129743,1.656581,0.130000,1.655000,0.130000,1.180000,0.165000,1.180000,0.168536,1.178536,
0.170000,1.175000,0.170000,-1.175000,0.168536,-1.178536,0.165000,-1.180000,0.130000,-1.180000,0.130000,-1.655000,0.129743,-1.656581,0.129000,-1.658810,0.129000,-1.660000,0.128743,-1.661581,0.128000,-1.663810,0.128000,-1.665000,0.127743,-1.666581,0.126743,-1.669581,0.126472,-1.670236,0.125630,-1.671920,0.124743,-1.674581,0.123536,-1.676536,0.122108,-1.677964,0.121472,-1.679236,
0.120536,-1.680536,0.119108,-1.681964,0.118472,-1.683236,0.117536,-1.684536,0.109536,-1.692536,0.108236,-1.693472,0.106964,-1.694108,0.105536,-1.695536,0.104236,-1.696472,0.102964,-1.697108,0.101536,-1.698536,0.099581,-1.699743,0.096920,-1.700630,0.095236,-1.701472,0.094581,-1.701743,0.091581,-1.702743,0.090000,-1.703000,0.088810,-1.703000,0.086581,-1.703743,0.085000,-1.704000,
0.083810,-1.704000,0.081581,-1.704743,0.080000,-1.705000,-0.080000,-1.705000,-0.081581,-1.704743,-0.083810,-1.704000,-0.085000,-1.704000,-0.086581,-1.703743,-0.088810,-1.703000,-0.090000,-1.703000,-0.091581,-1.702743,-0.094581,-1.701743,-0.095236,-1.701472,-0.096920,-1.700630,-0.099581,-1.699743,-0.101536,-1.698536,-0.102964,-1.697108,-0.104236,-1.696472,-0.105536,-1.695536,-0.106964,-1.694108,
-0.108236,-1.693472,-0.109536,-1.692536,-0.117536,-1.684536,-0.118472,-1.683236,-0.119108,-1.681964,-0.120536,-1.680536,-0.121472,-1.679236,-0.122108,-1.677964,-0.123536,-1.676536,-0.124743,-1.674581,-0.125630,-1.671920,-0.126472,-1.670236,-0.126743,-1.669581,-0.127743,-1.666581,-0.128000,-1.665000,-0.128000,-1.663810,-0.128743,-1.661581,-0.129000,-1.660000,-0.129000,-1.658810,-0.129743,-1.656581,
-0.130000,-1.655000,-0.130000,-1.180000,-0.165000,-1.180000,-0.168536,-1.178536,-0.170000,-1.175000,-0.170000,1.175000,-0.168536,1.178536,-0.165000,1.180000,-0.130000,1.180000,-0.130000,1.655000,-0.129743,1.656581,-0.129000,1.658810,-0.129000,1.660000,-0.128743,1.661581,-0.128000,1.663810,-0.128000,1.665000,-0.127743,1.666581,-0.126743,1.669581,-0.126472,1.670236,-0.125630,1.671920,
-0.124743,1.674581,-0.123536,1.676536,-0.122108,1.677964,-0.121472,1.679236,-0.120536,1.680536,-0.119108,1.681964,-0.118472,1.683236,-0.117536,1.684536,-0.109536,1.692536,-0.108236,1.693472,-0.106964,1.694108,-0.105536,1.695536,-0.104236,1.696472,-0.102964,1.697108,-0.101536,1.698536,-0.099581,1.699743,-0.096920,1.700630,-0.095236,1.701472,-0.094581,1.701743,-0.091581,1.702743,
-0.090000,1.703000,-0.088810,1.703000,-0.086581,1.703743,-0.085000,1.704000,-0.083810,1.704000,-0.081581,1.704743,-0.080000,1.705000,0.080000,1.705000,0.081581,1.704743,0.081581,1.704743,$1*%
G04 Aperture macros list end*
G04 #@! TA.AperFunction,SMDPad,CuDef*
%ADD10RoundRect,0.250000X-0.350000X-0.450000X0.350000X-0.450000X0.350000X0.450000X-0.350000X0.450000X0*%
G04 #@! TD*
G04 #@! TA.AperFunction,SMDPad,CuDef*
%ADD11RoundRect,0.250000X0.450000X-0.350000X0.450000X0.350000X-0.450000X0.350000X-0.450000X-0.350000X0*%
G04 #@! TD*
G04 #@! TA.AperFunction,SMDPad,CuDef*
%ADD12RoundRect,0.250000X-0.337500X-0.475000X0.337500X-0.475000X0.337500X0.475000X-0.337500X0.475000X0*%
G04 #@! TD*
G04 #@! TA.AperFunction,SMDPad,CuDef*
%ADD13RoundRect,0.250000X0.475000X-0.337500X0.475000X0.337500X-0.475000X0.337500X-0.475000X-0.337500X0*%
G04 #@! TD*
G04 #@! TA.AperFunction,SMDPad,CuDef*
%ADD14RoundRect,0.250000X0.337500X0.475000X-0.337500X0.475000X-0.337500X-0.475000X0.337500X-0.475000X0*%
G04 #@! TD*
G04 #@! TA.AperFunction,SMDPad,CuDef*
%ADD15RoundRect,0.075000X0.075000X0.300000X-0.075000X0.300000X-0.075000X-0.300000X0.075000X-0.300000X0*%
G04 #@! TD*
G04 #@! TA.AperFunction,SMDPad,CuDef*
%ADD16RoundRect,0.062500X0.062500X0.312500X-0.062500X0.312500X-0.062500X-0.312500X0.062500X-0.312500X0*%
G04 #@! TD*
G04 #@! TA.AperFunction,HeatsinkPad*
%ADD17O,1.150000X2.150000*%
G04 #@! TD*
G04 #@! TA.AperFunction,HeatsinkPad*
%ADD18O,1.150000X2.350000*%
G04 #@! TD*
G04 #@! TA.AperFunction,SMDPad,CuDef*
%ADD19RoundRect,0.250000X-0.450000X0.350000X-0.450000X-0.350000X0.450000X-0.350000X0.450000X0.350000X0*%
G04 #@! TD*
G04 #@! TA.AperFunction,ComponentPad*
%ADD20R,1.300000X1.300000*%
G04 #@! TD*
G04 #@! TA.AperFunction,ComponentPad*
%ADD21C,1.300000*%
G04 #@! TD*
G04 #@! TA.AperFunction,SMDPad,CuDef*
%ADD22RoundRect,0.250000X-0.400000X-0.625000X0.400000X-0.625000X0.400000X0.625000X-0.400000X0.625000X0*%
G04 #@! TD*
G04 #@! TA.AperFunction,SMDPad,CuDef*
%ADD23R,4.295000X4.510000*%
G04 #@! TD*
G04 #@! TA.AperFunction,SMDPad,CuDef*
%ADD24R,0.655000X0.675000*%
G04 #@! TD*
G04 #@! TA.AperFunction,SMDPad,CuDef*
%ADD25R,0.750000X0.675000*%
G04 #@! TD*
G04 #@! TA.AperFunction,SMDPad,CuDef*
%ADD26RoundRect,0.032500X-0.412500X-0.097500X0.412500X-0.097500X0.412500X0.097500X-0.412500X0.097500X0*%
G04 #@! TD*
G04 #@! TA.AperFunction,SMDPad,CuDef*
%ADD27RoundRect,0.032500X-0.097500X-0.412500X0.097500X-0.412500X0.097500X0.412500X-0.097500X0.412500X0*%
G04 #@! TD*
G04 #@! TA.AperFunction,SMDPad,CuDef*
%ADD28R,1.200000X0.800000*%
G04 #@! TD*
G04 #@! TA.AperFunction,SMDPad,CuDef*
%ADD29RoundRect,0.100000X0.100000X-0.250000X0.100000X0.250000X-0.100000X0.250000X-0.100000X-0.250000X0*%
G04 #@! TD*
G04 #@! TA.AperFunction,SMDPad,CuDef*
%ADD30RoundRect,0.062750X1.212250X-1.192250X1.212250X1.192250X-1.212250X1.192250X-1.212250X-1.192250X0*%
G04 #@! TD*
G04 #@! TA.AperFunction,SMDPad,CuDef*
%ADD31RoundRect,0.249999X-3.000001X0.710001X-3.000001X-0.710001X3.000001X-0.710001X3.000001X0.710001X0*%
G04 #@! TD*
G04 #@! TA.AperFunction,SMDPad,CuDef*
%ADD32RoundRect,0.237500X-0.237500X0.300000X-0.237500X-0.300000X0.237500X-0.300000X0.237500X0.300000X0*%
G04 #@! TD*
G04 #@! TA.AperFunction,SMDPad,CuDef*
%ADD33RoundRect,0.237500X-0.300000X-0.237500X0.300000X-0.237500X0.300000X0.237500X-0.300000X0.237500X0*%
G04 #@! TD*
G04 #@! TA.AperFunction,SMDPad,CuDef*
%ADD34RoundRect,0.250000X-0.325000X-0.450000X0.325000X-0.450000X0.325000X0.450000X-0.325000X0.450000X0*%
G04 #@! TD*
G04 #@! TA.AperFunction,SMDPad,CuDef*
%ADD35RoundRect,0.237500X0.300000X0.237500X-0.300000X0.237500X-0.300000X-0.237500X0.300000X-0.237500X0*%
G04 #@! TD*
G04 #@! TA.AperFunction,ComponentPad*
%ADD36RoundRect,0.250000X-0.600000X-0.725000X0.600000X-0.725000X0.600000X0.725000X-0.600000X0.725000X0*%
G04 #@! TD*
G04 #@! TA.AperFunction,ComponentPad*
%ADD37O,1.700000X1.950000*%
G04 #@! TD*
G04 #@! TA.AperFunction,SMDPad,CuDef*
%ADD38RoundRect,0.237500X0.237500X-0.300000X0.237500X0.300000X-0.237500X0.300000X-0.237500X-0.300000X0*%
G04 #@! TD*
G04 #@! TA.AperFunction,SMDPad,CuDef*
%ADD39RoundRect,0.056250X-0.188750X-0.168750X0.188750X-0.168750X0.188750X0.168750X-0.188750X0.168750X0*%
G04 #@! TD*
G04 #@! TA.AperFunction,ComponentPad*
%ADD40RoundRect,0.249999X0.850001X0.850001X-0.850001X0.850001X-0.850001X-0.850001X0.850001X-0.850001X0*%
G04 #@! TD*
G04 #@! TA.AperFunction,ComponentPad*
%ADD41C,2.200000*%
G04 #@! TD*
G04 #@! TA.AperFunction,SMDPad,CuDef*
%ADD42FreePoly0,0.000000*%
G04 #@! TD*
G04 #@! TA.AperFunction,SMDPad,CuDef*
%ADD43FreePoly1,0.000000*%
G04 #@! TD*
G04 #@! TA.AperFunction,SMDPad,CuDef*
%ADD44FreePoly2,0.000000*%
G04 #@! TD*
G04 #@! TA.AperFunction,SMDPad,CuDef*
%ADD45R,2.790000X2.790000*%
G04 #@! TD*
G04 #@! TA.AperFunction,SMDPad,CuDef*
%ADD46RoundRect,0.250000X0.300000X0.300000X-0.300000X0.300000X-0.300000X-0.300000X0.300000X-0.300000X0*%
G04 #@! TD*
G04 #@! TA.AperFunction,SMDPad,CuDef*
%ADD47RoundRect,0.062500X-0.237500X-0.062500X0.237500X-0.062500X0.237500X0.062500X-0.237500X0.062500X0*%
G04 #@! TD*
G04 #@! TA.AperFunction,SMDPad,CuDef*
%ADD48RoundRect,0.062500X-0.062500X-0.237500X0.062500X-0.237500X0.062500X0.237500X-0.062500X0.237500X0*%
G04 #@! TD*
G04 #@! TA.AperFunction,SMDPad,CuDef*
%ADD49RoundRect,0.062500X-0.062500X-0.787500X0.062500X-0.787500X0.062500X0.787500X-0.062500X0.787500X0*%
G04 #@! TD*
G04 #@! TA.AperFunction,SMDPad,CuDef*
%ADD50FreePoly3,0.000000*%
G04 #@! TD*
G04 #@! TA.AperFunction,SMDPad,CuDef*
%ADD51RoundRect,0.100000X-0.100000X-0.950000X0.100000X-0.950000X0.100000X0.950000X-0.100000X0.950000X0*%
G04 #@! TD*
G04 #@! TA.AperFunction,SMDPad,CuDef*
%ADD52RoundRect,0.250000X-0.412500X-1.100000X0.412500X-1.100000X0.412500X1.100000X-0.412500X1.100000X0*%
G04 #@! TD*
G04 #@! TA.AperFunction,SMDPad,CuDef*
%ADD53RoundRect,0.250000X-1.412500X-0.550000X1.412500X-0.550000X1.412500X0.550000X-1.412500X0.550000X0*%
G04 #@! TD*
G04 #@! TA.AperFunction,ComponentPad*
%ADD54R,1.700000X1.700000*%
G04 #@! TD*
G04 #@! TA.AperFunction,ComponentPad*
%ADD55C,1.700000*%
G04 #@! TD*
G04 #@! TA.AperFunction,SMDPad,CuDef*
%ADD56RoundRect,0.250000X0.325000X0.450000X-0.325000X0.450000X-0.325000X-0.450000X0.325000X-0.450000X0*%
G04 #@! TD*
G04 #@! TA.AperFunction,ComponentPad*
%ADD57RoundRect,0.250000X0.600000X0.750000X-0.600000X0.750000X-0.600000X-0.750000X0.600000X-0.750000X0*%
G04 #@! TD*
G04 #@! TA.AperFunction,ComponentPad*
%ADD58O,1.700000X2.000000*%
G04 #@! TD*
G04 #@! TA.AperFunction,ComponentPad*
%ADD59RoundRect,0.250000X-0.750000X-0.750000X0.750000X-0.750000X0.750000X0.750000X-0.750000X0.750000X0*%
G04 #@! TD*
G04 #@! TA.AperFunction,ComponentPad*
%ADD60C,2.000000*%
G04 #@! TD*
G04 #@! TA.AperFunction,SMDPad,CuDef*
%ADD61RoundRect,0.250000X-0.475000X0.337500X-0.475000X-0.337500X0.475000X-0.337500X0.475000X0.337500X0*%
G04 #@! TD*
G04 #@! TA.AperFunction,ComponentPad*
%ADD62C,2.050000*%
G04 #@! TD*
G04 #@! TA.AperFunction,ComponentPad*
%ADD63C,2.250000*%
G04 #@! TD*
G04 #@! TA.AperFunction,SMDPad,CuDef*
%ADD64RoundRect,0.056250X0.068750X-0.243750X0.068750X0.243750X-0.068750X0.243750X-0.068750X-0.243750X0*%
G04 #@! TD*
G04 #@! TA.AperFunction,SMDPad,CuDef*
%ADD65RoundRect,0.056250X0.268750X-0.068750X0.268750X0.068750X-0.268750X0.068750X-0.268750X-0.068750X0*%
G04 #@! TD*
G04 #@! TA.AperFunction,SMDPad,CuDef*
%ADD66RoundRect,0.056250X0.243750X-0.068750X0.243750X0.068750X-0.243750X0.068750X-0.243750X-0.068750X0*%
G04 #@! TD*
G04 #@! TA.AperFunction,SMDPad,CuDef*
%ADD67RoundRect,0.056250X1.643750X-0.068750X1.643750X0.068750X-1.643750X0.068750X-1.643750X-0.068750X0*%
G04 #@! TD*
G04 #@! TA.AperFunction,SMDPad,CuDef*
%ADD68FreePoly4,90.000000*%
G04 #@! TD*
G04 #@! TA.AperFunction,ComponentPad*
%ADD69RoundRect,0.250000X-0.600000X-0.750000X0.600000X-0.750000X0.600000X0.750000X-0.600000X0.750000X0*%
G04 #@! TD*
G04 #@! TA.AperFunction,SMDPad,CuDef*
%ADD70R,2.600000X3.600000*%
G04 #@! TD*
G04 #@! TA.AperFunction,SMDPad,CuDef*
%ADD71R,0.830000X0.270000*%
G04 #@! TD*
G04 #@! TA.AperFunction,SMDPad,CuDef*
%ADD72R,0.270000X0.830000*%
G04 #@! TD*
G04 #@! TA.AperFunction,SMDPad,CuDef*
%ADD73RoundRect,0.075000X-0.700000X-0.075000X0.700000X-0.075000X0.700000X0.075000X-0.700000X0.075000X0*%
G04 #@! TD*
G04 #@! TA.AperFunction,SMDPad,CuDef*
%ADD74RoundRect,0.075000X-0.075000X-0.700000X0.075000X-0.700000X0.075000X0.700000X-0.075000X0.700000X0*%
G04 #@! TD*
G04 #@! TA.AperFunction,SMDPad,CuDef*
%ADD75R,2.413000X5.334000*%
G04 #@! TD*
G04 #@! TA.AperFunction,SMDPad,CuDef*
%ADD76RoundRect,0.250000X-0.550000X1.500000X-0.550000X-1.500000X0.550000X-1.500000X0.550000X1.500000X0*%
G04 #@! TD*
G04 #@! TA.AperFunction,ComponentPad*
%ADD77RoundRect,0.249999X-0.850001X-0.850001X0.850001X-0.850001X0.850001X0.850001X-0.850001X0.850001X0*%
G04 #@! TD*
G04 #@! TA.AperFunction,SMDPad,CuDef*
%ADD78R,1.500000X0.800000*%
G04 #@! TD*
G04 #@! TA.AperFunction,SMDPad,CuDef*
%ADD79R,2.000000X1.450000*%
G04 #@! TD*
G04 #@! TA.AperFunction,SMDPad,CuDef*
%ADD80RoundRect,0.112500X-0.637500X0.112500X-0.637500X-0.112500X0.637500X-0.112500X0.637500X0.112500X0*%
G04 #@! TD*
G04 #@! TA.AperFunction,SMDPad,CuDef*
%ADD81RoundRect,0.249999X1.800001X-1.250001X1.800001X1.250001X-1.800001X1.250001X-1.800001X-1.250001X0*%
G04 #@! TD*
G04 #@! TA.AperFunction,SMDPad,CuDef*
%ADD82RoundRect,0.250000X-1.100000X0.412500X-1.100000X-0.412500X1.100000X-0.412500X1.100000X0.412500X0*%
G04 #@! TD*
G04 #@! TA.AperFunction,SMDPad,CuDef*
%ADD83RoundRect,0.250000X0.700000X-1.825000X0.700000X1.825000X-0.700000X1.825000X-0.700000X-1.825000X0*%
G04 #@! TD*
G04 #@! TA.AperFunction,SMDPad,CuDef*
%ADD84R,1.800000X0.700000*%
G04 #@! TD*
G04 #@! TA.AperFunction,SMDPad,CuDef*
%ADD85R,1.800000X0.800000*%
G04 #@! TD*
G04 #@! TA.AperFunction,ComponentPad*
%ADD86C,1.600000*%
G04 #@! TD*
G04 #@! TA.AperFunction,SMDPad,CuDef*
%ADD87R,0.675000X0.250000*%
G04 #@! TD*
G04 #@! TA.AperFunction,SMDPad,CuDef*
%ADD88R,0.250000X0.575000*%
G04 #@! TD*
G04 #@! TA.AperFunction,SMDPad,CuDef*
%ADD89R,0.450000X1.750000*%
G04 #@! TD*
G04 #@! TA.AperFunction,SMDPad,CuDef*
%ADD90RoundRect,0.060000X0.890000X0.180000X-0.890000X0.180000X-0.890000X-0.180000X0.890000X-0.180000X0*%
G04 #@! TD*
G04 #@! TA.AperFunction,ComponentPad*
%ADD91C,1.400000*%
G04 #@! TD*
G04 #@! TA.AperFunction,SMDPad,CuDef*
%ADD92RoundRect,0.155000X-0.212500X-0.155000X0.212500X-0.155000X0.212500X0.155000X-0.212500X0.155000X0*%
G04 #@! TD*
G04 #@! TA.AperFunction,ComponentPad*
%ADD93RoundRect,1.500000X1.500000X1.500000X-1.500000X1.500000X-1.500000X-1.500000X1.500000X-1.500000X0*%
G04 #@! TD*
G04 #@! TA.AperFunction,ComponentPad*
%ADD94C,6.000000*%
G04 #@! TD*
G04 #@! TA.AperFunction,ViaPad*
%ADD95C,0.600000*%
G04 #@! TD*
G04 #@! TA.AperFunction,Conductor*
%ADD96C,0.250000*%
G04 #@! TD*
G04 #@! TA.AperFunction,Conductor*
%ADD97C,0.500000*%
G04 #@! TD*
G04 #@! TA.AperFunction,Conductor*
%ADD98C,1.000000*%
G04 #@! TD*
G04 #@! TA.AperFunction,Conductor*
%ADD99C,0.750000*%
G04 #@! TD*
G04 #@! TA.AperFunction,Conductor*
%ADD100C,0.200000*%
G04 #@! TD*
G04 APERTURE END LIST*
D10*
G04 #@! TO.P,Rsns2-24V1,1*
G04 #@! TO.N,VBAT*
X95250000Y-144410000D03*
G04 #@! TO.P,Rsns2-24V1,2*
G04 #@! TO.N,Net-(L1-24V1-Pad1)*
X97250000Y-144410000D03*
G04 #@! TD*
G04 #@! TO.P,Rsns1-24V1,1*
G04 #@! TO.N,VBAT*
X95250000Y-140000000D03*
G04 #@! TO.P,Rsns1-24V1,2*
G04 #@! TO.N,Net-(L1-24V1-Pad1)*
X97250000Y-140000000D03*
G04 #@! TD*
G04 #@! TO.P,Rpg-24V1,1*
G04 #@! TO.N,0*
X115500000Y-161000000D03*
G04 #@! TO.P,Rpg-24V1,2*
G04 #@! TO.N,Net-(Dboot-24V1-A)*
X117500000Y-161000000D03*
G04 #@! TD*
D11*
G04 #@! TO.P,Rfbt-24V1,1*
G04 #@! TO.N,/24V-PowerCircuit/FB*
X124500000Y-137820000D03*
G04 #@! TO.P,Rfbt-24V1,2*
G04 #@! TO.N,24VCC*
X124500000Y-135820000D03*
G04 #@! TD*
D10*
G04 #@! TO.P,Rfbb-24V1,1*
G04 #@! TO.N,0*
X118900000Y-157800000D03*
G04 #@! TO.P,Rfbb-24V1,2*
G04 #@! TO.N,/24V-PowerCircuit/FB*
X120900000Y-157800000D03*
G04 #@! TD*
D12*
G04 #@! TO.P,Coutx2,1*
G04 #@! TO.N,V+3.3*
X153712500Y-123350000D03*
G04 #@! TO.P,Coutx2,2*
G04 #@! TO.N,0*
X155787500Y-123350000D03*
G04 #@! TD*
D13*
G04 #@! TO.P,Cinx2,1*
G04 #@! TO.N,VBAT*
X145750000Y-144962500D03*
G04 #@! TO.P,Cinx2,2*
G04 #@! TO.N,0*
X145750000Y-142887500D03*
G04 #@! TD*
G04 #@! TO.P,Cinx-5V1,1*
G04 #@! TO.N,VBAT*
X106500000Y-153787500D03*
G04 #@! TO.P,Cinx-5V1,2*
G04 #@! TO.N,0*
X106500000Y-151712500D03*
G04 #@! TD*
G04 #@! TO.P,Cvcc-24V1,1*
G04 #@! TO.N,0*
X119325000Y-162562500D03*
G04 #@! TO.P,Cvcc-24V1,2*
G04 #@! TO.N,Net-(Dboot-24V1-A)*
X119325000Y-160487500D03*
G04 #@! TD*
D14*
G04 #@! TO.P,Css-24V1,1*
G04 #@! TO.N,Net-(U7-SS)*
X117187500Y-156483390D03*
G04 #@! TO.P,Css-24V1,2*
G04 #@! TO.N,0*
X115112500Y-156483390D03*
G04 #@! TD*
D13*
G04 #@! TO.P,Cvcc1,1*
G04 #@! TO.N,Net-(U6-EXTVCC)*
X147025000Y-140325000D03*
G04 #@! TO.P,Cvcc1,2*
G04 #@! TO.N,0*
X147025000Y-138250000D03*
G04 #@! TD*
D15*
G04 #@! TO.P,J2,A1,GND*
G04 #@! TO.N,0*
X94100000Y-32125000D03*
D16*
X93600000Y-32125000D03*
D15*
X87000000Y-32125000D03*
D16*
G04 #@! TO.P,J2,A4,VBUS*
G04 #@! TO.N,5VCC*
X91800000Y-32125000D03*
G04 #@! TO.P,J2,A5,CC1*
G04 #@! TO.N,Net-(J2-CC1)*
X91300000Y-32125000D03*
G04 #@! TO.P,J2,A6,D+*
G04 #@! TO.N,USBD+*
X90800000Y-32125000D03*
G04 #@! TO.P,J2,A7,D-*
G04 #@! TO.N,USBD-*
X90300000Y-32125000D03*
G04 #@! TO.P,J2,A8*
G04 #@! TO.N,N/C*
X89800000Y-32125000D03*
G04 #@! TO.P,J2,A9,VBUS*
G04 #@! TO.N,5VCC*
X89300000Y-32125000D03*
G04 #@! TO.P,J2,A12,GND*
G04 #@! TO.N,0*
X87500000Y-32125000D03*
G04 #@! TO.P,J2,B1,GND*
X87550000Y-30875000D03*
G04 #@! TO.P,J2,B4,VBUS*
G04 #@! TO.N,5VCC*
X89050000Y-30875000D03*
G04 #@! TO.P,J2,B5,CC2*
G04 #@! TO.N,Net-(J2-CC2)*
X89550000Y-30875000D03*
G04 #@! TO.P,J2,B6,D+*
G04 #@! TO.N,USBD+*
X90050000Y-30875000D03*
G04 #@! TO.P,J2,B7,D-*
G04 #@! TO.N,USBD-*
X91050000Y-30875000D03*
G04 #@! TO.P,J2,B8*
G04 #@! TO.N,N/C*
X91550000Y-30875000D03*
G04 #@! TO.P,J2,B9,VBUS*
G04 #@! TO.N,5VCC*
X92050000Y-30875000D03*
G04 #@! TO.P,J2,B12,GND*
G04 #@! TO.N,0*
X93550000Y-30875000D03*
D17*
G04 #@! TO.P,J2,S1,SHIELD*
X95000000Y-31950000D03*
D18*
X95000000Y-28750000D03*
D17*
X86100000Y-31950000D03*
D18*
X86100000Y-28750000D03*
G04 #@! TD*
D14*
G04 #@! TO.P,Cff-5V1,1*
G04 #@! TO.N,Net-(Cff-5V1-Pad1)*
X86787500Y-128750000D03*
G04 #@! TO.P,Cff-5V1,2*
G04 #@! TO.N,Net-(U8-FB)*
X84712500Y-128750000D03*
G04 #@! TD*
D13*
G04 #@! TO.P,Ccomp2-24V1,1*
G04 #@! TO.N,/24V-PowerCircuit/COMP*
X122750000Y-155287500D03*
G04 #@! TO.P,Ccomp2-24V1,2*
G04 #@! TO.N,0*
X122750000Y-153212500D03*
G04 #@! TD*
G04 #@! TO.P,Ccomp2,1*
G04 #@! TO.N,Net-(U6-COMP)*
X152250000Y-133537500D03*
G04 #@! TO.P,Ccomp2,2*
G04 #@! TO.N,0*
X152250000Y-131462500D03*
G04 #@! TD*
D14*
G04 #@! TO.P,Cboot2,1*
G04 #@! TO.N,Net-(U6-SW2)*
X140425000Y-137240000D03*
G04 #@! TO.P,Cboot2,2*
G04 #@! TO.N,Net-(U6-BOOT2)*
X138350000Y-137240000D03*
G04 #@! TD*
G04 #@! TO.P,Cboot1,1*
G04 #@! TO.N,Net-(U6-SW1)*
X140425000Y-139750000D03*
G04 #@! TO.P,Cboot1,2*
G04 #@! TO.N,Net-(U6-BOOT1)*
X138350000Y-139750000D03*
G04 #@! TD*
D13*
G04 #@! TO.P,Cboot-24V1,1*
G04 #@! TO.N,Net-(Dboot-24V1-K)*
X132500000Y-159037500D03*
G04 #@! TO.P,Cboot-24V1,2*
G04 #@! TO.N,Net-(M1-24V1-D)*
X132500000Y-156962500D03*
G04 #@! TD*
D14*
G04 #@! TO.P,C12-24V1,1*
G04 #@! TO.N,Net-(U7-ISNS+)*
X98925000Y-153750000D03*
G04 #@! TO.P,C12-24V1,2*
G04 #@! TO.N,Net-(U7-ISNS-)*
X96850000Y-153750000D03*
G04 #@! TD*
D10*
G04 #@! TO.P,Rpg-5V1,1*
G04 #@! TO.N,5VCC*
X79750000Y-134000000D03*
G04 #@! TO.P,Rpg-5V1,2*
G04 #@! TO.N,Net-(U8-PG)*
X81750000Y-134000000D03*
G04 #@! TD*
D19*
G04 #@! TO.P,Rff-5V1,1*
G04 #@! TO.N,5VCC*
X89250000Y-124750000D03*
G04 #@! TO.P,Rff-5V1,2*
G04 #@! TO.N,Net-(Cff-5V1-Pad1)*
X89250000Y-126750000D03*
G04 #@! TD*
D20*
G04 #@! TO.P,STM_T2,1,E*
G04 #@! TO.N,0*
X77500000Y-67500000D03*
D21*
G04 #@! TO.P,STM_T2,2,B*
G04 #@! TO.N,FT232_RTS*
X78770000Y-68780000D03*
G04 #@! TO.P,STM_T2,3,C*
G04 #@! TO.N,NRST*
X77500000Y-70040000D03*
G04 #@! TD*
D20*
G04 #@! TO.P,STM_T1,1,E*
G04 #@! TO.N,0*
X79230000Y-63520000D03*
D21*
G04 #@! TO.P,STM_T1,2,B*
G04 #@! TO.N,FT232_DTR*
X80510000Y-62250000D03*
G04 #@! TO.P,STM_T1,3,C*
G04 #@! TO.N,BOOT0*
X81770000Y-63520000D03*
G04 #@! TD*
D22*
G04 #@! TO.P,R_USB_2,1*
G04 #@! TO.N,0*
X79450000Y-27000000D03*
G04 #@! TO.P,R_USB_2,2*
G04 #@! TO.N,Net-(J2-CC2)*
X82550000Y-27000000D03*
G04 #@! TD*
G04 #@! TO.P,R_USB_1,1*
G04 #@! TO.N,0*
X79450000Y-31000000D03*
G04 #@! TO.P,R_USB_1,2*
G04 #@! TO.N,Net-(J2-CC1)*
X82550000Y-31000000D03*
G04 #@! TD*
D23*
G04 #@! TO.P,M2-24V1,9*
G04 #@! TO.N,N/C*
X103397500Y-145250000D03*
D24*
X100922500Y-147167500D03*
X100922500Y-145910000D03*
X100922500Y-144590000D03*
X100922500Y-143332500D03*
D25*
G04 #@! TO.P,M2-24V1,4*
X106475000Y-143332500D03*
G04 #@! TO.P,M2-24V1,2,G*
G04 #@! TO.N,Net-(M2-24V1-G)*
X106475000Y-145910000D03*
G04 #@! TO.P,M2-24V1,1,D*
G04 #@! TO.N,Net-(M1-24V1-D)*
X106475000Y-147167500D03*
G04 #@! TO.P,M2-24V1,3,S*
G04 #@! TO.N,24VCC*
X106475000Y-144590000D03*
G04 #@! TD*
D26*
G04 #@! TO.P,U7,1,RT/CLK*
G04 #@! TO.N,Net-(U7-RT{slash}CLK)*
X125060000Y-154690000D03*
G04 #@! TO.P,U7,2,SS*
G04 #@! TO.N,Net-(U7-SS)*
X125060000Y-155190000D03*
G04 #@! TO.P,U7,3,COMP*
G04 #@! TO.N,/24V-PowerCircuit/COMP*
X125060000Y-155690000D03*
G04 #@! TO.P,U7,4,FB*
G04 #@! TO.N,/24V-PowerCircuit/FB*
X125060000Y-156190000D03*
D27*
G04 #@! TO.P,U7,5,ISNS-*
G04 #@! TO.N,Net-(U7-ISNS-)*
X125750000Y-156880000D03*
G04 #@! TO.P,U7,6,ISNS+*
G04 #@! TO.N,Net-(U7-ISNS+)*
X126250000Y-156880000D03*
G04 #@! TO.P,U7,7,VIN*
G04 #@! TO.N,VBAT*
X126750000Y-156880000D03*
G04 #@! TO.P,U7,8,LDRV*
G04 #@! TO.N,Net-(M1-24V1-G)*
X127250000Y-156880000D03*
D26*
G04 #@! TO.P,U7,9,PGND*
G04 #@! TO.N,0*
X127940000Y-156190000D03*
G04 #@! TO.P,U7,10,VCC*
G04 #@! TO.N,Net-(U7-VCC)*
X127940000Y-155690000D03*
G04 #@! TO.P,U7,11,BOOT*
G04 #@! TO.N,/24V-PowerCircuit/BOOT*
X127940000Y-155190000D03*
G04 #@! TO.P,U7,12,SW*
G04 #@! TO.N,Net-(M1-24V1-D)*
X127940000Y-154690000D03*
D27*
G04 #@! TO.P,U7,13,HDRV*
G04 #@! TO.N,Net-(M2-24V1-G)*
X127250000Y-154000000D03*
G04 #@! TO.P,U7,14,PGOOD*
G04 #@! TO.N,0*
X126750000Y-154000000D03*
G04 #@! TO.P,U7,15,EN*
G04 #@! TO.N,unconnected-(U7-EN-Pad15)*
X126250000Y-154000000D03*
G04 #@! TO.P,U7,16,AGND_16*
G04 #@! TO.N,0*
X125750000Y-154000000D03*
D28*
G04 #@! TO.P,U7,17,AGND_17*
X126500000Y-155440000D03*
G04 #@! TD*
D29*
G04 #@! TO.P,M1-24V1,1,D*
G04 #@! TO.N,Net-(M1-24V1-D)*
X125300000Y-150200000D03*
G04 #@! TO.P,M1-24V1,2,G*
G04 #@! TO.N,Net-(M1-24V1-G)*
X125950000Y-150200000D03*
G04 #@! TO.P,M1-24V1,3,S*
G04 #@! TO.N,0*
X126600000Y-150200000D03*
G04 #@! TO.P,M1-24V1,4*
G04 #@! TO.N,N/C*
X127250000Y-150200000D03*
D30*
G04 #@! TO.P,M1-24V1,5*
X126275000Y-148005000D03*
G04 #@! TD*
D31*
G04 #@! TO.P,L1-24V1,1,1*
G04 #@! TO.N,Net-(L1-24V1-Pad1)*
X103500000Y-133750000D03*
G04 #@! TO.P,L1-24V1,2,2*
G04 #@! TO.N,Net-(M1-24V1-D)*
X103500000Y-138570000D03*
G04 #@! TD*
D32*
G04 #@! TO.P,C_SD_Decap2,1*
G04 #@! TO.N,0*
X71250000Y-31387500D03*
G04 #@! TO.P,C_SD_Decap2,2*
G04 #@! TO.N,V+3.3*
X71250000Y-33112500D03*
G04 #@! TD*
D33*
G04 #@! TO.P,Rent1,1*
G04 #@! TO.N,VBAT*
X151387500Y-145500000D03*
G04 #@! TO.P,Rent1,2*
G04 #@! TO.N,Net-(U6-EN{slash}UVLO)*
X153112500Y-145500000D03*
G04 #@! TD*
D32*
G04 #@! TO.P,C_SD_Decap1,1*
G04 #@! TO.N,0*
X73000000Y-31387500D03*
G04 #@! TO.P,C_SD_Decap1,2*
G04 #@! TO.N,V+3.3*
X73000000Y-33112500D03*
G04 #@! TD*
D34*
G04 #@! TO.P,USB_rx_LED1,1,K*
G04 #@! TO.N,Net-(USB_rx_LED1-K)*
X92975000Y-39500000D03*
G04 #@! TO.P,USB_rx_LED1,2,A*
G04 #@! TO.N,V+3.3*
X95025000Y-39500000D03*
G04 #@! TD*
D35*
G04 #@! TO.P,C_BNO_Decap2,1*
G04 #@! TO.N,0*
X101112500Y-97370000D03*
G04 #@! TO.P,C_BNO_Decap2,2*
G04 #@! TO.N,V+3.3*
X99387500Y-97370000D03*
G04 #@! TD*
G04 #@! TO.P,STMcap2,1*
G04 #@! TO.N,0*
X104975000Y-71740000D03*
G04 #@! TO.P,STMcap2,2*
G04 #@! TO.N,Net-(U1-VCAP_1)*
X103250000Y-71740000D03*
G04 #@! TD*
D36*
G04 #@! TO.P,J6,1,Pin_1*
G04 #@! TO.N,24VCC*
X156250000Y-98100000D03*
D37*
G04 #@! TO.P,J6,2,Pin_2*
G04 #@! TO.N,0*
X158750000Y-98100000D03*
G04 #@! TO.P,J6,3,Pin_3*
G04 #@! TO.N,AIN0*
X161250000Y-98100000D03*
G04 #@! TD*
D38*
G04 #@! TO.P,C_ADC_Decap1,1*
G04 #@! TO.N,0*
X138500000Y-84475000D03*
G04 #@! TO.P,C_ADC_Decap1,2*
G04 #@! TO.N,V+3.3*
X138500000Y-82750000D03*
G04 #@! TD*
D35*
G04 #@! TO.P,Rcomp-24V1,1*
G04 #@! TO.N,/24V-PowerCircuit/COMP*
X119975000Y-154500000D03*
G04 #@! TO.P,Rcomp-24V1,2*
G04 #@! TO.N,Net-(Ccomp-24V1-Pad1)*
X118250000Y-154500000D03*
G04 #@! TD*
D39*
G04 #@! TO.P,U11,1,GND*
G04 #@! TO.N,0*
X103470000Y-117745000D03*
G04 #@! TO.P,U11,2,CSB*
G04 #@! TO.N,V+3.3*
X103470000Y-118395000D03*
G04 #@! TO.P,U11,3,SDI*
G04 #@! TO.N,I2C2_SDA*
X103470000Y-119045000D03*
G04 #@! TO.P,U11,4,SCK*
G04 #@! TO.N,I2C2_SCL*
X103470000Y-119695000D03*
G04 #@! TO.P,U11,5,SDO*
G04 #@! TO.N,0*
X101530000Y-119695000D03*
G04 #@! TO.P,U11,6,VDDIO*
G04 #@! TO.N,V+3.3*
X101530000Y-119045000D03*
G04 #@! TO.P,U11,7,GND*
G04 #@! TO.N,0*
X101530000Y-118395000D03*
G04 #@! TO.P,U11,8,VDD*
G04 #@! TO.N,V+3.3*
X101530000Y-117745000D03*
G04 #@! TD*
D40*
G04 #@! TO.P,Sol2-FlybackDiode1,1,K*
G04 #@! TO.N,24VCC*
X160210000Y-53750000D03*
D41*
G04 #@! TO.P,Sol2-FlybackDiode1,2,A*
G04 #@! TO.N,Net-(J11-Pin_2)*
X157670000Y-53750000D03*
G04 #@! TD*
D33*
G04 #@! TO.P,Renb1,1*
G04 #@! TO.N,Net-(U6-EN{slash}UVLO)*
X156637500Y-145500000D03*
G04 #@! TO.P,Renb1,2*
G04 #@! TO.N,0*
X158362500Y-145500000D03*
G04 #@! TD*
D35*
G04 #@! TO.P,C_BNO_Decap1,1*
G04 #@! TO.N,0*
X101112500Y-95870000D03*
G04 #@! TO.P,C_BNO_Decap1,2*
G04 #@! TO.N,V+3.3*
X99387500Y-95870000D03*
G04 #@! TD*
D33*
G04 #@! TO.P,C_XBee_Decap2,1*
G04 #@! TO.N,0*
X102525000Y-84870000D03*
G04 #@! TO.P,C_XBee_Decap2,2*
G04 #@! TO.N,V+3.3*
X104250000Y-84870000D03*
G04 #@! TD*
D42*
G04 #@! TO.P,U9,1,GND*
G04 #@! TO.N,0*
X111592500Y-78802500D03*
G04 #@! TO.P,U9,2,VCC*
G04 #@! TO.N,V+3.3*
X111592500Y-80802500D03*
G04 #@! TO.P,U9,3,DIO13/DOUT*
G04 #@! TO.N,XBee_DOUT*
X111592500Y-82802500D03*
G04 #@! TO.P,U9,4,DIO14/DIN/~{CONFIG}*
G04 #@! TO.N,XBee_DIN*
X111592500Y-84802500D03*
G04 #@! TO.P,U9,5,DIO12*
G04 #@! TO.N,unconnected-(U9-DIO12-Pad5)*
X111592500Y-86802500D03*
G04 #@! TO.P,U9,6,~{RESET}*
G04 #@! TO.N,unconnected-(U9-~{RESET}-Pad6)*
X111592500Y-88802500D03*
G04 #@! TO.P,U9,7,DIO10/RSSI/PWM0*
G04 #@! TO.N,unconnected-(U9-DIO10{slash}RSSI{slash}PWM0-Pad7)*
X111592500Y-90802500D03*
G04 #@! TO.P,U9,8,DIO11/PWM1*
G04 #@! TO.N,unconnected-(U9-DIO11{slash}PWM1-Pad8)*
X111592500Y-92802500D03*
G04 #@! TO.P,U9,9*
G04 #@! TO.N,N/C*
X111592500Y-94802500D03*
G04 #@! TO.P,U9,10,DIO8/~{DTR}/SLEEP_RQ*
G04 #@! TO.N,unconnected-(U9-DIO8{slash}~{DTR}{slash}SLEEP_RQ-Pad10)*
X111592500Y-96802500D03*
G04 #@! TO.P,U9,11,GND*
G04 #@! TO.N,0*
X111592500Y-98802500D03*
G04 #@! TO.P,U9,12,DO19/~{SPI_ATTN}*
G04 #@! TO.N,unconnected-(U9-DO19{slash}~{SPI_ATTN}-Pad12)*
X111592500Y-100802500D03*
G04 #@! TO.P,U9,13,GND*
G04 #@! TO.N,0*
X111592500Y-102802500D03*
D43*
G04 #@! TO.P,U9,14,DO18/SPI_CLK*
G04 #@! TO.N,unconnected-(U9-DO18{slash}SPI_CLK-Pad14)*
X115872500Y-105132500D03*
G04 #@! TO.P,U9,15,DO17/~{SPI_SSEL}*
G04 #@! TO.N,unconnected-(U9-DO17{slash}~{SPI_SSEL}-Pad15)*
X117872500Y-105132500D03*
G04 #@! TO.P,U9,16,DO16/SPI_MOSI*
G04 #@! TO.N,unconnected-(U9-DO16{slash}SPI_MOSI-Pad16)*
X119872500Y-105132500D03*
G04 #@! TO.P,U9,17,DO15/SPI_MISO*
G04 #@! TO.N,unconnected-(U9-DO15{slash}SPI_MISO-Pad17)*
X121872500Y-105132500D03*
G04 #@! TO.P,U9,18*
G04 #@! TO.N,N/C*
X123872500Y-105132500D03*
G04 #@! TO.P,U9,19*
X125872500Y-105132500D03*
G04 #@! TO.P,U9,20*
X127872500Y-105132500D03*
G04 #@! TO.P,U9,21*
X129872500Y-105132500D03*
D44*
G04 #@! TO.P,U9,22,GND*
G04 #@! TO.N,0*
X134052500Y-102772500D03*
G04 #@! TO.P,U9,23*
G04 #@! TO.N,N/C*
X134052500Y-100772500D03*
G04 #@! TO.P,U9,24,DIO4*
G04 #@! TO.N,unconnected-(U9-DIO4-Pad24)*
X134052500Y-98772500D03*
G04 #@! TO.P,U9,25,DIO7/~{CTS}*
G04 #@! TO.N,XBee_CTS*
X134052500Y-96772500D03*
G04 #@! TO.P,U9,26,DIO9/ON/~{SLEEP}*
G04 #@! TO.N,unconnected-(U9-DIO9{slash}ON{slash}~{SLEEP}-Pad26)*
X134052500Y-94772500D03*
G04 #@! TO.P,U9,27*
G04 #@! TO.N,N/C*
X134052500Y-92772500D03*
G04 #@! TO.P,U9,28,DIO5/ASSOC*
G04 #@! TO.N,unconnected-(U9-DIO5{slash}ASSOC-Pad28)*
X134052500Y-90772500D03*
G04 #@! TO.P,U9,29,DIO6/~{RTS}*
G04 #@! TO.N,XBee_RTS*
X134052500Y-88772500D03*
G04 #@! TO.P,U9,30,DIO3/AD3*
G04 #@! TO.N,unconnected-(U9-DIO3{slash}AD3-Pad30)*
X134052500Y-86772500D03*
G04 #@! TO.P,U9,31,DIO2/AD2*
G04 #@! TO.N,unconnected-(U9-DIO2{slash}AD2-Pad31)*
X134052500Y-84772500D03*
G04 #@! TO.P,U9,32,DIO1/AD1*
G04 #@! TO.N,unconnected-(U9-DIO1{slash}AD1-Pad32)*
X134052500Y-82772500D03*
G04 #@! TO.P,U9,33,DIO0/AD0*
G04 #@! TO.N,unconnected-(U9-DIO0{slash}AD0-Pad33)*
X134052500Y-80772500D03*
G04 #@! TO.P,U9,34*
G04 #@! TO.N,N/C*
X134052500Y-78772500D03*
G04 #@! TO.P,U9,35,GND*
G04 #@! TO.N,0*
X134052500Y-76772500D03*
G04 #@! TO.P,U9,36,RF_PAD*
G04 #@! TO.N,Net-(J10-In)*
X134052500Y-74772500D03*
G04 #@! TO.P,U9,37*
G04 #@! TO.N,N/C*
X134052500Y-72772500D03*
D45*
G04 #@! TO.P,U9,38,GND*
G04 #@! TO.N,0*
X117967500Y-81767500D03*
G04 #@! TD*
D46*
G04 #@! TO.P,Dboot-24V1,1,K*
G04 #@! TO.N,Net-(Dboot-24V1-K)*
X129150000Y-161500000D03*
G04 #@! TO.P,Dboot-24V1,2,A*
G04 #@! TO.N,Net-(Dboot-24V1-A)*
X126350000Y-161500000D03*
G04 #@! TD*
D47*
G04 #@! TO.P,U8,1,EN*
G04 #@! TO.N,unconnected-(U8-EN-Pad1)*
X83524000Y-131030000D03*
G04 #@! TO.P,U8,2,FB*
G04 #@! TO.N,Net-(U8-FB)*
X83524000Y-131530000D03*
G04 #@! TO.P,U8,3,AGND*
G04 #@! TO.N,0*
X83524000Y-132030000D03*
G04 #@! TO.P,U8,4,PG*
G04 #@! TO.N,Net-(U8-PG)*
X83524000Y-132530000D03*
D48*
G04 #@! TO.P,U8,5*
G04 #@! TO.N,N/C*
X83994000Y-133180000D03*
D49*
G04 #@! TO.P,U8,6,SW*
G04 #@! TO.N,Net-(U8-SW)*
X85294000Y-132630000D03*
D48*
G04 #@! TO.P,U8,7,BOOT*
G04 #@! TO.N,/5V-PowerCircuit/BOOT*
X85794000Y-133180000D03*
D50*
G04 #@! TO.P,U8,8,VIN*
G04 #@! TO.N,VBAT*
X85874000Y-131130000D03*
D51*
G04 #@! TO.P,U8,9,PGND*
G04 #@! TO.N,0*
X84714000Y-131130000D03*
D48*
G04 #@! TO.P,U8,10,MODE*
X83994000Y-130380000D03*
G04 #@! TD*
D35*
G04 #@! TO.P,C_STM_Decap5,1*
G04 #@! TO.N,0*
X99612500Y-83000000D03*
G04 #@! TO.P,C_STM_Decap5,2*
G04 #@! TO.N,V+3.3*
X97887500Y-83000000D03*
G04 #@! TD*
D33*
G04 #@! TO.P,C_XBee-Decap1,1*
G04 #@! TO.N,0*
X102525000Y-82360000D03*
G04 #@! TO.P,C_XBee-Decap1,2*
G04 #@! TO.N,V+3.3*
X104250000Y-82360000D03*
G04 #@! TD*
D32*
G04 #@! TO.P,C_H3L_Decap1,1*
G04 #@! TO.N,0*
X109000000Y-112637500D03*
G04 #@! TO.P,C_H3L_Decap1,2*
G04 #@! TO.N,V+3.3*
X109000000Y-114362500D03*
G04 #@! TD*
D52*
G04 #@! TO.P,Coutx3/3,1*
G04 #@! TO.N,V+3.3*
X135357500Y-131950000D03*
G04 #@! TO.P,Coutx3/3,2*
G04 #@! TO.N,0*
X138482500Y-131950000D03*
G04 #@! TD*
D53*
G04 #@! TO.P,Cout1,1*
G04 #@! TO.N,V+3.3*
X142962500Y-118750000D03*
G04 #@! TO.P,Cout1,2*
G04 #@! TO.N,0*
X148037500Y-118750000D03*
G04 #@! TD*
D14*
G04 #@! TO.P,Ccomp-24V1,1*
G04 #@! TO.N,Net-(Ccomp-24V1-Pad1)*
X115537500Y-154500000D03*
G04 #@! TO.P,Ccomp-24V1,2*
G04 #@! TO.N,0*
X113462500Y-154500000D03*
G04 #@! TD*
D54*
G04 #@! TO.P,PWR-ProbePt1,1,Pin_1*
G04 #@! TO.N,24VCC*
X162250000Y-112580000D03*
D55*
G04 #@! TO.P,PWR-ProbePt1,2,Pin_2*
G04 #@! TO.N,5VCC*
X162250000Y-110040000D03*
G04 #@! TO.P,PWR-ProbePt1,3,Pin_3*
G04 #@! TO.N,V+3.3*
X162250000Y-107500000D03*
G04 #@! TO.P,PWR-ProbePt1,4,Pin_4*
G04 #@! TO.N,0*
X162250000Y-104960000D03*
G04 #@! TD*
D56*
G04 #@! TO.P,USB_tx_LED1,1,K*
G04 #@! TO.N,Net-(USB_tx_LED1-K)*
X89025000Y-39000000D03*
G04 #@! TO.P,USB_tx_LED1,2,A*
G04 #@! TO.N,V+3.3*
X86975000Y-39000000D03*
G04 #@! TD*
D13*
G04 #@! TO.P,C1_BME280,1*
G04 #@! TO.N,0*
X99750000Y-121757500D03*
G04 #@! TO.P,C1_BME280,2*
G04 #@! TO.N,V+3.3*
X99750000Y-119682500D03*
G04 #@! TD*
D57*
G04 #@! TO.P,J11,1,Pin_1*
G04 #@! TO.N,24VCC*
X160210000Y-48250000D03*
D58*
G04 #@! TO.P,J11,2,Pin_2*
G04 #@! TO.N,Net-(J11-Pin_2)*
X157710000Y-48250000D03*
G04 #@! TD*
D11*
G04 #@! TO.P,R_USB_tx_LED1,1*
G04 #@! TO.N,Net-(U10-CBUS0)*
X89000000Y-43500000D03*
G04 #@! TO.P,R_USB_tx_LED1,2*
G04 #@! TO.N,Net-(USB_tx_LED1-K)*
X89000000Y-41500000D03*
G04 #@! TD*
D54*
G04 #@! TO.P,STM-UART-Breakout2,1,Pin_1*
G04 #@! TO.N,0*
X114460000Y-67000000D03*
D55*
G04 #@! TO.P,STM-UART-Breakout2,2,Pin_2*
G04 #@! TO.N,XBee_DIN*
X117000000Y-67000000D03*
G04 #@! TO.P,STM-UART-Breakout2,3,Pin_3*
G04 #@! TO.N,XBee_DOUT*
X119540000Y-67000000D03*
G04 #@! TO.P,STM-UART-Breakout2,4,Pin_4*
G04 #@! TO.N,XBee_CTS*
X122080000Y-67000000D03*
G04 #@! TO.P,STM-UART-Breakout2,5,Pin_5*
G04 #@! TO.N,XBee_RTS*
X124620000Y-67000000D03*
G04 #@! TD*
D59*
G04 #@! TO.P,C_servos1,1*
G04 #@! TO.N,5VCC*
X69132323Y-106500000D03*
D60*
G04 #@! TO.P,C_servos1,2*
G04 #@! TO.N,0*
X74132323Y-106500000D03*
G04 #@! TD*
D61*
G04 #@! TO.P,Cvin-24V1,1*
G04 #@! TO.N,0*
X104500000Y-151712500D03*
G04 #@! TO.P,Cvin-24V1,2*
G04 #@! TO.N,VBAT*
X104500000Y-153787500D03*
G04 #@! TD*
D13*
G04 #@! TO.P,C2_BME280,1*
G04 #@! TO.N,V+3.3*
X99750000Y-117287500D03*
G04 #@! TO.P,C2_BME280,2*
G04 #@! TO.N,0*
X99750000Y-115212500D03*
G04 #@! TD*
D14*
G04 #@! TO.P,CFT232-Decouple1,1*
G04 #@! TO.N,0*
X97537500Y-50250000D03*
G04 #@! TO.P,CFT232-Decouple1,2*
G04 #@! TO.N,V+3.3*
X95462500Y-50250000D03*
G04 #@! TD*
D35*
G04 #@! TO.P,R_STM_PU1,1*
G04 #@! TO.N,V+3.3*
X86112500Y-63500000D03*
G04 #@! TO.P,R_STM_PU1,2*
G04 #@! TO.N,BOOT0*
X84387500Y-63500000D03*
G04 #@! TD*
D62*
G04 #@! TO.P,J7,1,In*
G04 #@! TO.N,Net-(J7-In)*
X111460000Y-29290000D03*
D63*
G04 #@! TO.P,J7,2,Ext*
G04 #@! TO.N,0*
X108920000Y-26750000D03*
X108920000Y-31830000D03*
X114000000Y-26750000D03*
X114000000Y-31830000D03*
G04 #@! TD*
D32*
G04 #@! TO.P,C_STM_Decap2,1*
G04 #@! TO.N,0*
X88750000Y-66637500D03*
G04 #@! TO.P,C_STM_Decap2,2*
G04 #@! TO.N,V+3.3*
X88750000Y-68362500D03*
G04 #@! TD*
D64*
G04 #@! TO.P,U6,1,EN/UVLO*
G04 #@! TO.N,Net-(U6-EN{slash}UVLO)*
X152250000Y-142300000D03*
G04 #@! TO.P,U6,2,MODE*
G04 #@! TO.N,0*
X152750000Y-142300000D03*
G04 #@! TO.P,U6,3,SCL*
G04 #@! TO.N,unconnected-(U6-SCL-Pad3)*
X153250000Y-142300000D03*
G04 #@! TO.P,U6,4,SDA*
G04 #@! TO.N,unconnected-(U6-SDA-Pad4)*
X153750000Y-142300000D03*
D65*
G04 #@! TO.P,U6,5,DITH/SYNC*
G04 #@! TO.N,0*
X154375000Y-141940000D03*
D66*
G04 #@! TO.P,U6,6,FSW*
G04 #@! TO.N,Net-(U6-FSW)*
X154400000Y-141440000D03*
D67*
G04 #@! TO.P,U6,7,VIN*
G04 #@! TO.N,VBAT*
X153000000Y-140940000D03*
G04 #@! TO.P,U6,8,SW1*
G04 #@! TO.N,Net-(U6-SW1)*
X153000000Y-140440000D03*
D68*
G04 #@! TO.P,U6,9,PGND*
G04 #@! TO.N,0*
X153000000Y-139900000D03*
D67*
G04 #@! TO.P,U6,10,SW2*
G04 #@! TO.N,Net-(U6-SW2)*
X153000000Y-139360000D03*
G04 #@! TO.P,U6,11,VOUT*
G04 #@! TO.N,V+3.3*
X153000000Y-138860000D03*
D66*
G04 #@! TO.P,U6,12,ISP*
X154400000Y-138360000D03*
D65*
G04 #@! TO.P,U6,13,ISN*
X154375000Y-137860000D03*
D64*
G04 #@! TO.P,U6,14,FB/~{INT}*
G04 #@! TO.N,unconnected-(U6-FB{slash}~{INT}-Pad14)*
X153750000Y-137500000D03*
G04 #@! TO.P,U6,15,COMP*
G04 #@! TO.N,Net-(U6-COMP)*
X153250000Y-137500000D03*
G04 #@! TO.P,U6,16,CDC*
G04 #@! TO.N,unconnected-(U6-CDC-Pad16)*
X152750000Y-137500000D03*
G04 #@! TO.P,U6,17,AGND*
G04 #@! TO.N,0*
X152250000Y-137500000D03*
D65*
G04 #@! TO.P,U6,18,VCC*
G04 #@! TO.N,Net-(U6-EXTVCC)*
X151625000Y-137860000D03*
D66*
G04 #@! TO.P,U6,19,BOOT2*
G04 #@! TO.N,Net-(U6-BOOT2)*
X151600000Y-138360000D03*
G04 #@! TO.P,U6,20,BOOT1*
G04 #@! TO.N,Net-(U6-BOOT1)*
X151600000Y-141440000D03*
D65*
G04 #@! TO.P,U6,21,EXTVCC*
G04 #@! TO.N,Net-(U6-EXTVCC)*
X151625000Y-141940000D03*
G04 #@! TD*
D33*
G04 #@! TO.P,C_GPS_Decap1,1*
G04 #@! TO.N,0*
X99387500Y-44250000D03*
G04 #@! TO.P,C_GPS_Decap1,2*
G04 #@! TO.N,V+3.3*
X101112500Y-44250000D03*
G04 #@! TD*
D54*
G04 #@! TO.P,SRV_MAIN_OX1,1,Pin_1*
G04 #@! TO.N,0*
X68960000Y-90660000D03*
D55*
G04 #@! TO.P,SRV_MAIN_OX1,2,Pin_2*
G04 #@! TO.N,5VCC*
X71500000Y-90660000D03*
G04 #@! TO.P,SRV_MAIN_OX1,3,Pin_3*
G04 #@! TO.N,SRV1*
X74040000Y-90660000D03*
G04 #@! TD*
D69*
G04 #@! TO.P,J9,1,Pin_1*
G04 #@! TO.N,24VCC*
X158000000Y-39250000D03*
D58*
G04 #@! TO.P,J9,2,Pin_2*
G04 #@! TO.N,Net-(J9-Pin_2)*
X160500000Y-39250000D03*
G04 #@! TD*
D35*
G04 #@! TO.P,Rcomp1,1*
G04 #@! TO.N,Net-(Ccomp1-Pad2)*
X150362500Y-127500000D03*
G04 #@! TO.P,Rcomp1,2*
G04 #@! TO.N,0*
X148637500Y-127500000D03*
G04 #@! TD*
D32*
G04 #@! TO.P,C_BNO_Decap4,1*
G04 #@! TO.N,0*
X95750000Y-91757500D03*
G04 #@! TO.P,C_BNO_Decap4,2*
G04 #@! TO.N,V+3.3*
X95750000Y-93482500D03*
G04 #@! TD*
D34*
G04 #@! TO.P,R-3.3V-StatusLED1,1*
G04 #@! TO.N,0*
X132725000Y-117500000D03*
G04 #@! TO.P,R-3.3V-StatusLED1,2*
G04 #@! TO.N,Net-(3.3V-StatusLED1-K)*
X134775000Y-117500000D03*
G04 #@! TD*
D52*
G04 #@! TO.P,Cin3-24V1,1*
G04 #@! TO.N,Net-(Cin2-24V1-Pad2)*
X118937500Y-150000000D03*
G04 #@! TO.P,Cin3-24V1,2*
G04 #@! TO.N,0*
X122062500Y-150000000D03*
G04 #@! TD*
D70*
G04 #@! TO.P,CR2032-BAT1,1,Pin_1*
G04 #@! TO.N,V_CR2032*
X117100000Y-55500000D03*
G04 #@! TO.P,CR2032-BAT1,2,Pin_2*
G04 #@! TO.N,0*
X146400000Y-55500000D03*
G04 #@! TD*
D36*
G04 #@! TO.P,J5,1,Pin_1*
G04 #@! TO.N,24VCC*
X156250000Y-90300000D03*
D37*
G04 #@! TO.P,J5,2,Pin_2*
G04 #@! TO.N,0*
X158750000Y-90300000D03*
G04 #@! TO.P,J5,3,Pin_3*
G04 #@! TO.N,AIN1*
X161250000Y-90300000D03*
G04 #@! TD*
D71*
G04 #@! TO.P,U4,1,Vdd_IO*
G04 #@! TO.N,V+3.3*
X107780000Y-117720000D03*
G04 #@! TO.P,U4,2,NC*
G04 #@! TO.N,unconnected-(U4-NC-Pad2)*
X107780000Y-118220000D03*
G04 #@! TO.P,U4,3,NC*
G04 #@! TO.N,unconnected-(U4-NC-Pad3)*
X107780000Y-118720000D03*
G04 #@! TO.P,U4,4,SCL/SPS*
G04 #@! TO.N,I2C2_SCL*
X107780000Y-119220000D03*
G04 #@! TO.P,U4,5,GND*
G04 #@! TO.N,0*
X107780000Y-119720000D03*
D72*
G04 #@! TO.P,U4,6,SDA/SDI/SDO*
G04 #@! TO.N,I2C2_SDA*
X108750000Y-120190000D03*
G04 #@! TO.P,U4,7,SDO/SA0*
G04 #@! TO.N,unconnected-(U4-SDO{slash}SA0-Pad7)*
X109250000Y-120190000D03*
G04 #@! TO.P,U4,8,CS*
G04 #@! TO.N,unconnected-(U4-CS-Pad8)*
X109750000Y-120190000D03*
D71*
G04 #@! TO.P,U4,9,INT2*
G04 #@! TO.N,unconnected-(U4-INT2-Pad9)*
X110720000Y-119720000D03*
G04 #@! TO.P,U4,10,Reserved*
G04 #@! TO.N,unconnected-(U4-Reserved-Pad10)*
X110720000Y-119220000D03*
G04 #@! TO.P,U4,11,INT1*
G04 #@! TO.N,unconnected-(U4-INT1-Pad11)*
X110720000Y-118720000D03*
G04 #@! TO.P,U4,12,GND*
G04 #@! TO.N,0*
X110720000Y-118220000D03*
G04 #@! TO.P,U4,13,GND*
X110720000Y-117720000D03*
D72*
G04 #@! TO.P,U4,14,Vdd*
G04 #@! TO.N,V+3.3*
X109750000Y-117250000D03*
G04 #@! TO.P,U4,15,Reserved*
G04 #@! TO.N,unconnected-(U4-Reserved-Pad15)*
X109250000Y-117250000D03*
G04 #@! TO.P,U4,16,GND*
G04 #@! TO.N,0*
X108750000Y-117250000D03*
G04 #@! TD*
D73*
G04 #@! TO.P,U1,1,VBAT*
G04 #@! TO.N,V_CR2032*
X87075000Y-72250000D03*
G04 #@! TO.P,U1,2,PC13*
G04 #@! TO.N,PC13*
X87075000Y-72750000D03*
G04 #@! TO.P,U1,3,PC14*
G04 #@! TO.N,PC14*
X87075000Y-73250000D03*
G04 #@! TO.P,U1,4,PC15*
G04 #@! TO.N,PC15*
X87075000Y-73750000D03*
G04 #@! TO.P,U1,5,PH0*
G04 #@! TO.N,PH0*
X87075000Y-74250000D03*
G04 #@! TO.P,U1,6,PH1*
G04 #@! TO.N,PH1*
X87075000Y-74750000D03*
G04 #@! TO.P,U1,7,NRST*
G04 #@! TO.N,NRST*
X87075000Y-75250000D03*
G04 #@! TO.P,U1,8,PC0*
G04 #@! TO.N,Sol1_Sig*
X87075000Y-75750000D03*
G04 #@! TO.P,U1,9,PC1*
G04 #@! TO.N,Sol2_Sig*
X87075000Y-76250000D03*
G04 #@! TO.P,U1,10,PC2*
G04 #@! TO.N,PC2*
X87075000Y-76750000D03*
G04 #@! TO.P,U1,11,PC3*
G04 #@! TO.N,PC3*
X87075000Y-77250000D03*
G04 #@! TO.P,U1,12,VSSA*
G04 #@! TO.N,0*
X87075000Y-77750000D03*
G04 #@! TO.P,U1,13,VDDA*
G04 #@! TO.N,V+3.3*
X87075000Y-78250000D03*
G04 #@! TO.P,U1,14,PA0*
G04 #@! TO.N,XBee_RTS*
X87075000Y-78750000D03*
G04 #@! TO.P,U1,15,PA1*
G04 #@! TO.N,XBee_CTS*
X87075000Y-79250000D03*
G04 #@! TO.P,U1,16,PA2*
G04 #@! TO.N,XBee_DIN*
X87075000Y-79750000D03*
D74*
G04 #@! TO.P,U1,17,PA3*
G04 #@! TO.N,XBee_DOUT*
X89000000Y-81675000D03*
G04 #@! TO.P,U1,18,VSS*
G04 #@! TO.N,0*
X89500000Y-81675000D03*
G04 #@! TO.P,U1,19,VDD*
G04 #@! TO.N,V+3.3*
X90000000Y-81675000D03*
G04 #@! TO.P,U1,20,PA4*
G04 #@! TO.N,SPI1_NSS{slash}CS*
X90500000Y-81675000D03*
G04 #@! TO.P,U1,21,PA5*
G04 #@! TO.N,SPI1_SCK*
X91000000Y-81675000D03*
G04 #@! TO.P,U1,22,PA6*
G04 #@! TO.N,SPI1_MISO*
X91500000Y-81675000D03*
G04 #@! TO.P,U1,23,PA7*
G04 #@! TO.N,SPI1_MOSI*
X92000000Y-81675000D03*
G04 #@! TO.P,U1,24,PC4*
G04 #@! TO.N,PC4*
X92500000Y-81675000D03*
G04 #@! TO.P,U1,25,PC5*
G04 #@! TO.N,PC5*
X93000000Y-81675000D03*
G04 #@! TO.P,U1,26,PB0*
G04 #@! TO.N,PB0*
X93500000Y-81675000D03*
G04 #@! TO.P,U1,27,PB1*
G04 #@! TO.N,PB1*
X94000000Y-81675000D03*
G04 #@! TO.P,U1,28,PB2*
G04 #@! TO.N,PB2*
X94500000Y-81675000D03*
G04 #@! TO.P,U1,29,PB10*
G04 #@! TO.N,I2C2_SCL*
X95000000Y-81675000D03*
G04 #@! TO.P,U1,30,PB11*
G04 #@! TO.N,I2C2_SDA*
X95500000Y-81675000D03*
G04 #@! TO.P,U1,31,VCAP_1*
G04 #@! TO.N,Net-(U1-VCAP_1)*
X96000000Y-81675000D03*
G04 #@! TO.P,U1,32,VDD*
G04 #@! TO.N,V+3.3*
X96500000Y-81675000D03*
D73*
G04 #@! TO.P,U1,33,PB12*
G04 #@! TO.N,PB12*
X98425000Y-79750000D03*
G04 #@! TO.P,U1,34,PB13*
G04 #@! TO.N,PB13*
X98425000Y-79250000D03*
G04 #@! TO.P,U1,35,PB14*
G04 #@! TO.N,PB14*
X98425000Y-78750000D03*
G04 #@! TO.P,U1,36,PB15*
G04 #@! TO.N,PB15*
X98425000Y-78250000D03*
G04 #@! TO.P,U1,37,PC6*
G04 #@! TO.N,PC6*
X98425000Y-77750000D03*
G04 #@! TO.P,U1,38,PC7*
G04 #@! TO.N,PC7*
X98425000Y-77250000D03*
G04 #@! TO.P,U1,39,PC8*
G04 #@! TO.N,uSD_D0*
X98425000Y-76750000D03*
G04 #@! TO.P,U1,40,PC9*
G04 #@! TO.N,uSD_D1*
X98425000Y-76250000D03*
G04 #@! TO.P,U1,41,PA8*
G04 #@! TO.N,PA8*
X98425000Y-75750000D03*
G04 #@! TO.P,U1,42,PA9*
G04 #@! TO.N,STM_USB_RX*
X98425000Y-75250000D03*
G04 #@! TO.P,U1,43,PA10*
G04 #@! TO.N,STM_USB_TX*
X98425000Y-74750000D03*
G04 #@! TO.P,U1,44,PA11*
G04 #@! TO.N,PA11*
X98425000Y-74250000D03*
G04 #@! TO.P,U1,45,PA12*
G04 #@! TO.N,PA12*
X98425000Y-73750000D03*
G04 #@! TO.P,U1,46,PA13*
G04 #@! TO.N,PA13*
X98425000Y-73250000D03*
G04 #@! TO.P,U1,47,VCAP_2*
G04 #@! TO.N,Net-(U1-VCAP_1)*
X98425000Y-72750000D03*
G04 #@! TO.P,U1,48,VDD*
G04 #@! TO.N,V+3.3*
X98425000Y-72250000D03*
D74*
G04 #@! TO.P,U1,49,PA14*
G04 #@! TO.N,PA14*
X96500000Y-70325000D03*
G04 #@! TO.P,U1,50,PA15*
G04 #@! TO.N,PA15*
X96000000Y-70325000D03*
G04 #@! TO.P,U1,51,PC10*
G04 #@! TO.N,uSD_D2*
X95500000Y-70325000D03*
G04 #@! TO.P,U1,52,PC11*
G04 #@! TO.N,uSD_D3*
X95000000Y-70325000D03*
G04 #@! TO.P,U1,53,PC12*
G04 #@! TO.N,uSD_CLK*
X94500000Y-70325000D03*
G04 #@! TO.P,U1,54,PD2*
G04 #@! TO.N,uSD_CMD*
X94000000Y-70325000D03*
G04 #@! TO.P,U1,55,PB3*
G04 #@! TO.N,PB3*
X93500000Y-70325000D03*
G04 #@! TO.P,U1,56,PB4*
G04 #@! TO.N,PB4*
X93000000Y-70325000D03*
G04 #@! TO.P,U1,57,PB5*
G04 #@! TO.N,PB5*
X92500000Y-70325000D03*
G04 #@! TO.P,U1,58,PB6*
G04 #@! TO.N,SRV1*
X92000000Y-70325000D03*
G04 #@! TO.P,U1,59,PB7*
G04 #@! TO.N,SRV2*
X91500000Y-70325000D03*
G04 #@! TO.P,U1,60,BOOT0*
G04 #@! TO.N,BOOT0*
X91000000Y-70325000D03*
G04 #@! TO.P,U1,61,PB8*
G04 #@! TO.N,SRV3*
X90500000Y-70325000D03*
G04 #@! TO.P,U1,62,PB9*
G04 #@! TO.N,SRV4*
X90000000Y-70325000D03*
G04 #@! TO.P,U1,63,VSS*
G04 #@! TO.N,0*
X89500000Y-70325000D03*
G04 #@! TO.P,U1,64,VDD*
G04 #@! TO.N,V+3.3*
X89000000Y-70325000D03*
G04 #@! TD*
D10*
G04 #@! TO.P,Rfbt-5V1,1*
G04 #@! TO.N,5VCC*
X79500000Y-131000000D03*
G04 #@! TO.P,Rfbt-5V1,2*
G04 #@! TO.N,Net-(U8-FB)*
X81500000Y-131000000D03*
G04 #@! TD*
D35*
G04 #@! TO.P,R13-24V1,1*
G04 #@! TO.N,VBAT*
X102362500Y-153750000D03*
G04 #@! TO.P,R13-24V1,2*
G04 #@! TO.N,Net-(U7-ISNS+)*
X100637500Y-153750000D03*
G04 #@! TD*
D54*
G04 #@! TO.P,SPI-ProbePt1,1,Pin_1*
G04 #@! TO.N,V+3.3*
X150790000Y-73750000D03*
D55*
G04 #@! TO.P,SPI-ProbePt1,2,Pin_2*
G04 #@! TO.N,SPI1_NSS{slash}CS*
X148250000Y-73750000D03*
G04 #@! TO.P,SPI-ProbePt1,3,Pin_3*
G04 #@! TO.N,SPI1_SCK*
X145710000Y-73750000D03*
G04 #@! TO.P,SPI-ProbePt1,4,Pin_4*
G04 #@! TO.N,SPI1_MISO*
X143170000Y-73750000D03*
G04 #@! TO.P,SPI-ProbePt1,5,Pin_5*
G04 #@! TO.N,SPI1_MOSI*
X140630000Y-73750000D03*
G04 #@! TO.P,SPI-ProbePt1,6,Pin_6*
G04 #@! TO.N,0*
X138090000Y-73750000D03*
G04 #@! TD*
D32*
G04 #@! TO.P,R19-24V1,1*
G04 #@! TO.N,Net-(U7-VCC)*
X130000000Y-157000000D03*
G04 #@! TO.P,R19-24V1,2*
G04 #@! TO.N,Net-(Dboot-24V1-A)*
X130000000Y-158725000D03*
G04 #@! TD*
G04 #@! TO.P,C_H3L_Decap2,1*
G04 #@! TO.N,0*
X111750000Y-112887500D03*
G04 #@! TO.P,C_H3L_Decap2,2*
G04 #@! TO.N,V+3.3*
X111750000Y-114612500D03*
G04 #@! TD*
G04 #@! TO.P,R2_I2C1,1*
G04 #@! TO.N,I2C2_SDA*
X95750000Y-84757500D03*
G04 #@! TO.P,R2_I2C1,2*
G04 #@! TO.N,V+3.3*
X95750000Y-86482500D03*
G04 #@! TD*
D75*
G04 #@! TO.P,L1-5V1,1,1*
G04 #@! TO.N,Net-(U8-SW)*
X77631000Y-123750000D03*
G04 #@! TO.P,L1-5V1,2,2*
G04 #@! TO.N,5VCC*
X84869000Y-123750000D03*
G04 #@! TD*
D52*
G04 #@! TO.P,Cin2-24V1,1*
G04 #@! TO.N,Net-(Cin1-24V1-Pad2)*
X113750000Y-150750000D03*
G04 #@! TO.P,Cin2-24V1,2*
G04 #@! TO.N,Net-(Cin2-24V1-Pad2)*
X116875000Y-150750000D03*
G04 #@! TD*
D38*
G04 #@! TO.P,C_ADC_Decap2,1*
G04 #@! TO.N,0*
X152000000Y-95750000D03*
G04 #@! TO.P,C_ADC_Decap2,2*
G04 #@! TO.N,5VCC*
X152000000Y-94025000D03*
G04 #@! TD*
D36*
G04 #@! TO.P,J3,1,Pin_1*
G04 #@! TO.N,24VCC*
X156250000Y-74700000D03*
D37*
G04 #@! TO.P,J3,2,Pin_2*
G04 #@! TO.N,0*
X158750000Y-74700000D03*
G04 #@! TO.P,J3,3,Pin_3*
G04 #@! TO.N,AIN3*
X161250000Y-74700000D03*
G04 #@! TD*
D76*
G04 #@! TO.P,Cout-24V1,1*
G04 #@! TO.N,24VCC*
X117250000Y-137070000D03*
G04 #@! TO.P,Cout-24V1,2*
G04 #@! TO.N,0*
X117250000Y-142470000D03*
G04 #@! TD*
D54*
G04 #@! TO.P,SRV_MAIN_FUEL1,1,Pin_1*
G04 #@! TO.N,0*
X68960000Y-95250000D03*
D55*
G04 #@! TO.P,SRV_MAIN_FUEL1,2,Pin_2*
G04 #@! TO.N,5VCC*
X71500000Y-95250000D03*
G04 #@! TO.P,SRV_MAIN_FUEL1,3,Pin_3*
G04 #@! TO.N,SRV2*
X74040000Y-95250000D03*
G04 #@! TD*
D61*
G04 #@! TO.P,Cin1-5V1,1*
G04 #@! TO.N,VBAT*
X88500000Y-131462500D03*
G04 #@! TO.P,Cin1-5V1,2*
G04 #@! TO.N,0*
X88500000Y-133537500D03*
G04 #@! TD*
D32*
G04 #@! TO.P,Rt-24V1,1*
G04 #@! TO.N,Net-(U7-RT{slash}CLK)*
X124500000Y-139957500D03*
G04 #@! TO.P,Rt-24V1,2*
G04 #@! TO.N,0*
X124500000Y-141682500D03*
G04 #@! TD*
D77*
G04 #@! TO.P,Sol1-FlybackDiode1,1,K*
G04 #@! TO.N,24VCC*
X157960000Y-33000000D03*
D41*
G04 #@! TO.P,Sol1-FlybackDiode1,2,A*
G04 #@! TO.N,Net-(J9-Pin_2)*
X160500000Y-33000000D03*
G04 #@! TD*
D38*
G04 #@! TO.P,C_ADC_Decap4,1*
G04 #@! TO.N,0*
X150000000Y-95750000D03*
G04 #@! TO.P,C_ADC_Decap4,2*
G04 #@! TO.N,5VCC*
X150000000Y-94025000D03*
G04 #@! TD*
D52*
G04 #@! TO.P,Coutx1/3,1*
G04 #@! TO.N,V+3.3*
X135357500Y-123450000D03*
G04 #@! TO.P,Coutx1/3,2*
G04 #@! TO.N,0*
X138482500Y-123450000D03*
G04 #@! TD*
D78*
G04 #@! TO.P,J8,1,DAT2*
G04 #@! TO.N,uSD_D2*
X69122500Y-45700000D03*
G04 #@! TO.P,J8,2,DAT3/CD*
G04 #@! TO.N,uSD_D3*
X69122500Y-44600000D03*
G04 #@! TO.P,J8,3,CMD*
G04 #@! TO.N,uSD_CMD*
X69122500Y-43500000D03*
G04 #@! TO.P,J8,4,VDD*
G04 #@! TO.N,V+3.3*
X69122500Y-42400000D03*
G04 #@! TO.P,J8,5,CLK*
G04 #@! TO.N,uSD_CLK*
X69122500Y-41300000D03*
G04 #@! TO.P,J8,6,VSS*
G04 #@! TO.N,0*
X69122500Y-40200000D03*
G04 #@! TO.P,J8,7,DAT0*
G04 #@! TO.N,uSD_D0*
X69122500Y-39100000D03*
G04 #@! TO.P,J8,8,DAT1*
G04 #@! TO.N,uSD_D1*
X69122500Y-38000000D03*
D79*
G04 #@! TO.P,J8,9,SHIELD*
G04 #@! TO.N,0*
X66522500Y-49375000D03*
X74822500Y-49375000D03*
X66522500Y-35625000D03*
X74822500Y-35625000D03*
G04 #@! TD*
D12*
G04 #@! TO.P,Cboot-5V1,1*
G04 #@! TO.N,Net-(U8-SW)*
X84462500Y-136000000D03*
G04 #@! TO.P,Cboot-5V1,2*
G04 #@! TO.N,/5V-PowerCircuit/BOOT*
X86537500Y-136000000D03*
G04 #@! TD*
D52*
G04 #@! TO.P,Cout-5V1,1*
G04 #@! TO.N,0*
X81187500Y-117750000D03*
G04 #@! TO.P,Cout-5V1,2*
G04 #@! TO.N,5VCC*
X84312500Y-117750000D03*
G04 #@! TD*
D80*
G04 #@! TO.P,Sol1-Transistor1,1,G*
G04 #@! TO.N,Sol1_Sig*
X150670000Y-35350000D03*
G04 #@! TO.P,Sol1-Transistor1,2,S*
G04 #@! TO.N,0*
X150670000Y-36650000D03*
G04 #@! TO.P,Sol1-Transistor1,3,D*
G04 #@! TO.N,Net-(J9-Pin_2)*
X153330000Y-36000000D03*
G04 #@! TD*
D54*
G04 #@! TO.P,I2C2-ProbePt1,1,Pin_1*
G04 #@! TO.N,I2C2_SDA*
X97330000Y-105750000D03*
D55*
G04 #@! TO.P,I2C2-ProbePt1,2,Pin_2*
G04 #@! TO.N,I2C2_SCL*
X94790000Y-105750000D03*
G04 #@! TO.P,I2C2-ProbePt1,3,Pin_3*
G04 #@! TO.N,0*
X92250000Y-105750000D03*
G04 #@! TD*
D13*
G04 #@! TO.P,Ccomp1,1*
G04 #@! TO.N,Net-(U6-COMP)*
X149000000Y-133575000D03*
G04 #@! TO.P,Ccomp1,2*
G04 #@! TO.N,Net-(Ccomp1-Pad2)*
X149000000Y-131500000D03*
G04 #@! TD*
D52*
G04 #@! TO.P,Coutx2/3,1*
G04 #@! TO.N,V+3.3*
X135357500Y-127700000D03*
G04 #@! TO.P,Coutx2/3,2*
G04 #@! TO.N,0*
X138482500Y-127700000D03*
G04 #@! TD*
D81*
G04 #@! TO.P,L1,1,1*
G04 #@! TO.N,Net-(U6-SW1)*
X159500000Y-135500000D03*
G04 #@! TO.P,L1,2,2*
G04 #@! TO.N,Net-(U6-SW2)*
X159500000Y-128500000D03*
G04 #@! TD*
D36*
G04 #@! TO.P,J4,1,Pin_1*
G04 #@! TO.N,24VCC*
X156250000Y-82500000D03*
D37*
G04 #@! TO.P,J4,2,Pin_2*
G04 #@! TO.N,0*
X158750000Y-82500000D03*
G04 #@! TO.P,J4,3,Pin_3*
G04 #@! TO.N,AIN2*
X161250000Y-82500000D03*
G04 #@! TD*
D35*
G04 #@! TO.P,Rfbb-5V1,1*
G04 #@! TO.N,Net-(U8-FB)*
X81362500Y-129000000D03*
G04 #@! TO.P,Rfbb-5V1,2*
G04 #@! TO.N,0*
X79637500Y-129000000D03*
G04 #@! TD*
G04 #@! TO.P,STMcap1,1*
G04 #@! TO.N,0*
X104975000Y-74250000D03*
G04 #@! TO.P,STMcap1,2*
G04 #@! TO.N,Net-(U1-VCAP_1)*
X103250000Y-74250000D03*
G04 #@! TD*
D82*
G04 #@! TO.P,Cinx1,1*
G04 #@! TO.N,VBAT*
X141500000Y-143937500D03*
G04 #@! TO.P,Cinx1,2*
G04 #@! TO.N,0*
X141500000Y-147062500D03*
G04 #@! TD*
D83*
G04 #@! TO.P,Cin1,1*
G04 #@! TO.N,VBAT*
X135000000Y-151225000D03*
G04 #@! TO.P,Cin1,2*
G04 #@! TO.N,0*
X135000000Y-144275000D03*
G04 #@! TD*
D54*
G04 #@! TO.P,STM-UART-Breakout1,1,Pin_1*
G04 #@! TO.N,5VCC*
X101750000Y-51420000D03*
D55*
G04 #@! TO.P,STM-UART-Breakout1,2,Pin_2*
G04 #@! TO.N,V+3.3*
X101750000Y-53960000D03*
G04 #@! TO.P,STM-UART-Breakout1,3,Pin_3*
G04 #@! TO.N,STM_USB_RX*
X101750000Y-56500000D03*
G04 #@! TO.P,STM-UART-Breakout1,4,Pin_4*
G04 #@! TO.N,STM_USB_TX*
X101750000Y-59040000D03*
G04 #@! TO.P,STM-UART-Breakout1,5,Pin_5*
G04 #@! TO.N,BOOT0*
X101750000Y-61580000D03*
G04 #@! TD*
D84*
G04 #@! TO.P,U3,1,GND*
G04 #@! TO.N,0*
X108250000Y-37350000D03*
D85*
G04 #@! TO.P,U3,2,TXD*
G04 #@! TO.N,unconnected-(U3-TXD-Pad2)*
X108250000Y-38450000D03*
G04 #@! TO.P,U3,3,RXD*
G04 #@! TO.N,unconnected-(U3-RXD-Pad3)*
X108250000Y-39550000D03*
G04 #@! TO.P,U3,4,TIMEPULSE*
G04 #@! TO.N,unconnected-(U3-TIMEPULSE-Pad4)*
X108250000Y-40650000D03*
G04 #@! TO.P,U3,5,EXTINT*
G04 #@! TO.N,unconnected-(U3-EXTINT-Pad5)*
X108250000Y-41750000D03*
G04 #@! TO.P,U3,6,V_BCKP*
G04 #@! TO.N,unconnected-(U3-V_BCKP-Pad6)*
X108250000Y-42850000D03*
G04 #@! TO.P,U3,7,V_IO*
G04 #@! TO.N,V+3.3*
X108250000Y-43950000D03*
G04 #@! TO.P,U3,8,VCC*
X108250000Y-45050000D03*
D84*
G04 #@! TO.P,U3,9,RESET_N*
G04 #@! TO.N,unconnected-(U3-RESET_N-Pad9)*
X108250000Y-46150000D03*
G04 #@! TO.P,U3,10,GND*
G04 #@! TO.N,0*
X117750000Y-46150000D03*
D85*
G04 #@! TO.P,U3,11,RF_IN*
G04 #@! TO.N,Net-(J7-In)*
X117750000Y-45050000D03*
G04 #@! TO.P,U3,12,GND*
G04 #@! TO.N,0*
X117750000Y-43950000D03*
G04 #@! TO.P,U3,13,LNA_EN*
G04 #@! TO.N,unconnected-(U3-LNA_EN-Pad13)*
X117750000Y-42850000D03*
G04 #@! TO.P,U3,14,VCC_RF*
G04 #@! TO.N,unconnected-(U3-VCC_RF-Pad14)*
X117750000Y-41750000D03*
G04 #@! TO.P,U3,15,VIO_SEL*
G04 #@! TO.N,unconnected-(U3-VIO_SEL-Pad15)*
X117750000Y-40650000D03*
G04 #@! TO.P,U3,16,SDA*
G04 #@! TO.N,I2C2_SDA*
X117750000Y-39550000D03*
G04 #@! TO.P,U3,17,SCL*
G04 #@! TO.N,I2C2_SCL*
X117750000Y-38450000D03*
D84*
G04 #@! TO.P,U3,18,SAFEBOOT_N*
G04 #@! TO.N,unconnected-(U3-SAFEBOOT_N-Pad18)*
X117750000Y-37350000D03*
G04 #@! TD*
D34*
G04 #@! TO.P,3.3V-StatusLED1,1,K*
G04 #@! TO.N,Net-(3.3V-StatusLED1-K)*
X136975000Y-117500000D03*
G04 #@! TO.P,3.3V-StatusLED1,2,A*
G04 #@! TO.N,V+3.3*
X139025000Y-117500000D03*
G04 #@! TD*
D33*
G04 #@! TO.P,C_GPS_Decap2,1*
G04 #@! TO.N,0*
X99387500Y-46500000D03*
G04 #@! TO.P,C_GPS_Decap2,2*
G04 #@! TO.N,V+3.3*
X101112500Y-46500000D03*
G04 #@! TD*
D38*
G04 #@! TO.P,C_STM_Decap3,1*
G04 #@! TO.N,0*
X90000000Y-86250000D03*
G04 #@! TO.P,C_STM_Decap3,2*
G04 #@! TO.N,V+3.3*
X90000000Y-84525000D03*
G04 #@! TD*
D62*
G04 #@! TO.P,J10,1,In*
G04 #@! TO.N,Net-(J10-In)*
X128460000Y-28960000D03*
D63*
G04 #@! TO.P,J10,2,Ext*
G04 #@! TO.N,0*
X125920000Y-26420000D03*
X125920000Y-31500000D03*
X131000000Y-26420000D03*
X131000000Y-31500000D03*
G04 #@! TD*
D14*
G04 #@! TO.P,C_FTdecouple2,1*
G04 #@! TO.N,5VCC*
X91037500Y-50000000D03*
G04 #@! TO.P,C_FTdecouple2,2*
G04 #@! TO.N,0*
X88962500Y-50000000D03*
G04 #@! TD*
D86*
G04 #@! TO.P,Sol1-R-Pulldown1,1*
G04 #@! TO.N,0*
X147250000Y-37045000D03*
G04 #@! TO.P,Sol1-R-Pulldown1,2*
G04 #@! TO.N,Sol1_Sig*
X147250000Y-34505000D03*
G04 #@! TD*
D14*
G04 #@! TO.P,C_FTdecouple1,1*
G04 #@! TO.N,5VCC*
X91037500Y-47500000D03*
G04 #@! TO.P,C_FTdecouple1,2*
G04 #@! TO.N,0*
X88962500Y-47500000D03*
G04 #@! TD*
D87*
G04 #@! TO.P,U2,1,RESV_NC*
G04 #@! TO.N,unconnected-(U2-RESV_NC-Pad1)*
X97062500Y-95620000D03*
D88*
G04 #@! TO.P,U2,2,GND*
G04 #@! TO.N,0*
X96250000Y-95557500D03*
G04 #@! TO.P,U2,3,VDD*
G04 #@! TO.N,V+3.3*
X95750000Y-95557500D03*
G04 #@! TO.P,U2,4,BOOTN*
G04 #@! TO.N,Net-(U2-BOOTN)*
X95250000Y-95557500D03*
G04 #@! TO.P,U2,5,PS1*
G04 #@! TO.N,0*
X94750000Y-95557500D03*
D87*
G04 #@! TO.P,U2,6,PS0/WAKE*
X93937500Y-95620000D03*
G04 #@! TO.P,U2,7,RESV_NC*
G04 #@! TO.N,unconnected-(U2-RESV_NC-Pad7)*
X93937500Y-96120000D03*
G04 #@! TO.P,U2,8,RESV_NC*
G04 #@! TO.N,unconnected-(U2-RESV_NC-Pad8)*
X93937500Y-96620000D03*
G04 #@! TO.P,U2,9,CAP*
G04 #@! TO.N,unconnected-(U2-CAP-Pad9)*
X93937500Y-97120000D03*
G04 #@! TO.P,U2,10,CLKSEL0*
G04 #@! TO.N,unconnected-(U2-CLKSEL0-Pad10)*
X93937500Y-97620000D03*
G04 #@! TO.P,U2,11,NRST*
G04 #@! TO.N,unconnected-(U2-NRST-Pad11)*
X93937500Y-98120000D03*
G04 #@! TO.P,U2,12,RESV_NC*
G04 #@! TO.N,unconnected-(U2-RESV_NC-Pad12)*
X93937500Y-98620000D03*
G04 #@! TO.P,U2,13,RESV_NC*
G04 #@! TO.N,unconnected-(U2-RESV_NC-Pad13)*
X93937500Y-99120000D03*
G04 #@! TO.P,U2,14,H_INTN*
G04 #@! TO.N,unconnected-(U2-H_INTN-Pad14)*
X93937500Y-99620000D03*
G04 #@! TO.P,U2,15,ENV_SCL*
G04 #@! TO.N,unconnected-(U2-ENV_SCL-Pad15)*
X93937500Y-100120000D03*
D88*
G04 #@! TO.P,U2,16,ENV_SDA*
G04 #@! TO.N,unconnected-(U2-ENV_SDA-Pad16)*
X94750000Y-100182500D03*
G04 #@! TO.P,U2,17,SA0/H_MOSI*
G04 #@! TO.N,unconnected-(U2-SA0{slash}H_MOSI-Pad17)*
X95250000Y-100182500D03*
G04 #@! TO.P,U2,18,H_CSN*
G04 #@! TO.N,unconnected-(U2-H_CSN-Pad18)*
X95750000Y-100182500D03*
G04 #@! TO.P,U2,19,H_SCL/SCK/RX*
G04 #@! TO.N,I2C2_SCL*
X96250000Y-100182500D03*
D87*
G04 #@! TO.P,U2,20,H_SDA/H_MISO/TX*
G04 #@! TO.N,I2C2_SDA*
X97062500Y-100120000D03*
G04 #@! TO.P,U2,21,RESV_NC*
G04 #@! TO.N,unconnected-(U2-RESV_NC-Pad21)*
X97062500Y-99620000D03*
G04 #@! TO.P,U2,22,RESV_NC*
G04 #@! TO.N,unconnected-(U2-RESV_NC-Pad22)*
X97062500Y-99120000D03*
G04 #@! TO.P,U2,23,RESV_NC*
G04 #@! TO.N,unconnected-(U2-RESV_NC-Pad23)*
X97062500Y-98620000D03*
G04 #@! TO.P,U2,24,RESV_NC*
G04 #@! TO.N,unconnected-(U2-RESV_NC-Pad24)*
X97062500Y-98120000D03*
G04 #@! TO.P,U2,25,GND*
G04 #@! TO.N,0*
X97062500Y-97620000D03*
G04 #@! TO.P,U2,26,XOUT32/CLKSEL1*
G04 #@! TO.N,unconnected-(U2-XOUT32{slash}CLKSEL1-Pad26)*
X97062500Y-97120000D03*
G04 #@! TO.P,U2,27,XIN32*
G04 #@! TO.N,unconnected-(U2-XIN32-Pad27)*
X97062500Y-96620000D03*
G04 #@! TO.P,U2,28,VDDIO*
G04 #@! TO.N,V+3.3*
X97062500Y-96120000D03*
G04 #@! TD*
D32*
G04 #@! TO.P,C_STM_Decap4,1*
G04 #@! TO.N,0*
X100000000Y-68387500D03*
G04 #@! TO.P,C_STM_Decap4,2*
G04 #@! TO.N,V+3.3*
X100000000Y-70112500D03*
G04 #@! TD*
D80*
G04 #@! TO.P,Sol2-Transistor1,1,G*
G04 #@! TO.N,Sol2_Sig*
X150670000Y-46600000D03*
G04 #@! TO.P,Sol2-Transistor1,2,S*
G04 #@! TO.N,0*
X150670000Y-47900000D03*
G04 #@! TO.P,Sol2-Transistor1,3,D*
G04 #@! TO.N,Net-(J11-Pin_2)*
X153330000Y-47250000D03*
G04 #@! TD*
D89*
G04 #@! TO.P,U10,1,TXD*
G04 #@! TO.N,STM_USB_TX*
X87025000Y-60980000D03*
G04 #@! TO.P,U10,2,DTR*
G04 #@! TO.N,FT232_DTR*
X87675000Y-60980000D03*
G04 #@! TO.P,U10,3,RTS*
G04 #@! TO.N,FT232_RTS*
X88325000Y-60980000D03*
G04 #@! TO.P,U10,4,VCCIO*
G04 #@! TO.N,V+3.3*
X88975000Y-60980000D03*
G04 #@! TO.P,U10,5,RXD*
G04 #@! TO.N,STM_USB_RX*
X89625000Y-60980000D03*
G04 #@! TO.P,U10,6,RI*
G04 #@! TO.N,unconnected-(U10-RI-Pad6)*
X90275000Y-60980000D03*
G04 #@! TO.P,U10,7,GND*
G04 #@! TO.N,0*
X90925000Y-60980000D03*
G04 #@! TO.P,U10,8*
G04 #@! TO.N,N/C*
X91575000Y-60980000D03*
G04 #@! TO.P,U10,9,DCR*
G04 #@! TO.N,unconnected-(U10-DCR-Pad9)*
X92225000Y-60980000D03*
G04 #@! TO.P,U10,10,DCD*
G04 #@! TO.N,unconnected-(U10-DCD-Pad10)*
X92875000Y-60980000D03*
G04 #@! TO.P,U10,11,CTS*
G04 #@! TO.N,unconnected-(U10-CTS-Pad11)*
X93525000Y-60980000D03*
G04 #@! TO.P,U10,12,CBUS4*
G04 #@! TO.N,unconnected-(U10-CBUS4-Pad12)*
X94175000Y-60980000D03*
G04 #@! TO.P,U10,13,CBUS2*
G04 #@! TO.N,unconnected-(U10-CBUS2-Pad13)*
X94825000Y-60980000D03*
G04 #@! TO.P,U10,14,CBUS3*
G04 #@! TO.N,unconnected-(U10-CBUS3-Pad14)*
X95475000Y-60980000D03*
G04 #@! TO.P,U10,15,USBD+*
G04 #@! TO.N,USBD+*
X95475000Y-53780000D03*
G04 #@! TO.P,U10,16,USBD-*
G04 #@! TO.N,USBD-*
X94825000Y-53780000D03*
G04 #@! TO.P,U10,17,3V3OUT*
G04 #@! TO.N,V+3.3*
X94175000Y-53780000D03*
G04 #@! TO.P,U10,18,GND*
G04 #@! TO.N,0*
X93525000Y-53780000D03*
G04 #@! TO.P,U10,19,~{RESET}*
G04 #@! TO.N,unconnected-(U10-~{RESET}-Pad19)*
X92875000Y-53780000D03*
G04 #@! TO.P,U10,20,VCC*
G04 #@! TO.N,5VCC*
X92225000Y-53780000D03*
G04 #@! TO.P,U10,21,GND*
G04 #@! TO.N,0*
X91575000Y-53780000D03*
G04 #@! TO.P,U10,22,CBUS1*
G04 #@! TO.N,Net-(U10-CBUS1)*
X90925000Y-53780000D03*
G04 #@! TO.P,U10,23,CBUS0*
G04 #@! TO.N,Net-(U10-CBUS0)*
X90275000Y-53780000D03*
G04 #@! TO.P,U10,24*
G04 #@! TO.N,N/C*
X89625000Y-53780000D03*
G04 #@! TO.P,U10,25,AGND*
G04 #@! TO.N,0*
X88975000Y-53780000D03*
G04 #@! TO.P,U10,26,TEST*
X88325000Y-53780000D03*
G04 #@! TO.P,U10,27,OSCI*
G04 #@! TO.N,unconnected-(U10-OSCI-Pad27)*
X87675000Y-53780000D03*
G04 #@! TO.P,U10,28,OSCO*
G04 #@! TO.N,unconnected-(U10-OSCO-Pad28)*
X87025000Y-53780000D03*
G04 #@! TD*
D32*
G04 #@! TO.P,C_ADC_Decap3,1*
G04 #@! TO.N,0*
X138500000Y-79387500D03*
G04 #@! TO.P,C_ADC_Decap3,2*
G04 #@! TO.N,V+3.3*
X138500000Y-81112500D03*
G04 #@! TD*
D54*
G04 #@! TO.P,5VCC-ProbePoint1,1,Pin_1*
G04 #@! TO.N,0*
X79750000Y-113750000D03*
D55*
G04 #@! TO.P,5VCC-ProbePoint1,2,Pin_2*
G04 #@! TO.N,5VCC*
X82290000Y-113750000D03*
G04 #@! TD*
D54*
G04 #@! TO.P,SRV_RCS_CW1,1,Pin_1*
G04 #@! TO.N,0*
X68960000Y-81480000D03*
D55*
G04 #@! TO.P,SRV_RCS_CW1,2,Pin_2*
G04 #@! TO.N,5VCC*
X71500000Y-81480000D03*
G04 #@! TO.P,SRV_RCS_CW1,3,Pin_3*
G04 #@! TO.N,SRV4*
X74040000Y-81480000D03*
G04 #@! TD*
D90*
G04 #@! TO.P,U12,1,AVDD*
G04 #@! TO.N,5VCC*
X149255000Y-91475000D03*
G04 #@! TO.P,U12,2,AGND*
G04 #@! TO.N,0*
X149255000Y-90825000D03*
G04 #@! TO.P,U12,3,VREFN*
G04 #@! TO.N,unconnected-(U12-VREFN-Pad3)*
X149255000Y-90175000D03*
G04 #@! TO.P,U12,4,VREFP*
G04 #@! TO.N,unconnected-(U12-VREFP-Pad4)*
X149255000Y-89525000D03*
G04 #@! TO.P,U12,5,AINCOM*
G04 #@! TO.N,unconnected-(U12-AINCOM-Pad5)*
X149255000Y-88875000D03*
G04 #@! TO.P,U12,6,AIN0*
G04 #@! TO.N,AIN0*
X149255000Y-88225000D03*
G04 #@! TO.P,U12,7,AIN1*
G04 #@! TO.N,AIN1*
X149255000Y-87575000D03*
G04 #@! TO.P,U12,8,AIN2*
G04 #@! TO.N,AIN2*
X149255000Y-86925000D03*
G04 #@! TO.P,U12,9,AIN3*
G04 #@! TO.N,AIN3*
X149255000Y-86275000D03*
G04 #@! TO.P,U12,10,AIN4*
G04 #@! TO.N,AIN4*
X149255000Y-85625000D03*
G04 #@! TO.P,U12,11,AIN5*
G04 #@! TO.N,AIN5*
X149255000Y-84975000D03*
G04 #@! TO.P,U12,12,AIN6*
G04 #@! TO.N,AIN6*
X149255000Y-84325000D03*
G04 #@! TO.P,U12,13,AIN7*
G04 #@! TO.N,AIN7*
X149255000Y-83675000D03*
G04 #@! TO.P,U12,14,~{SYNC}\u002C_~{PDWN}*
G04 #@! TO.N,unconnected-(U12-~{SYNC}\u002C_~{PDWN}-Pad14)*
X149255000Y-83025000D03*
G04 #@! TO.P,U12,15,~{RESET}*
G04 #@! TO.N,unconnected-(U12-~{RESET}-Pad15)*
X142245000Y-83025000D03*
G04 #@! TO.P,U12,16,DVDD*
G04 #@! TO.N,V+3.3*
X142245000Y-83675000D03*
G04 #@! TO.P,U12,17,DGND*
G04 #@! TO.N,0*
X142245000Y-84325000D03*
G04 #@! TO.P,U12,18,XTAL2*
G04 #@! TO.N,unconnected-(U12-XTAL2-Pad18)*
X142245000Y-84975000D03*
G04 #@! TO.P,U12,19,XTAL1/CLKIN*
G04 #@! TO.N,unconnected-(U12-XTAL1{slash}CLKIN-Pad19)*
X142245000Y-85625000D03*
G04 #@! TO.P,U12,20,~{CS}*
G04 #@! TO.N,SPI1_NSS{slash}CS*
X142245000Y-86275000D03*
G04 #@! TO.P,U12,21,~{DRDY}*
G04 #@! TO.N,unconnected-(U12-~{DRDY}-Pad21)*
X142245000Y-86925000D03*
G04 #@! TO.P,U12,22,DOUT*
G04 #@! TO.N,SPI1_MISO*
X142245000Y-87575000D03*
G04 #@! TO.P,U12,23,DIN*
G04 #@! TO.N,SPI1_MOSI*
X142245000Y-88225000D03*
G04 #@! TO.P,U12,24,SCLK*
G04 #@! TO.N,SPI1_SCK*
X142245000Y-88875000D03*
G04 #@! TO.P,U12,25,D0/CLKOUT*
G04 #@! TO.N,unconnected-(U12-D0{slash}CLKOUT-Pad25)*
X142245000Y-89525000D03*
G04 #@! TO.P,U12,26,D1*
G04 #@! TO.N,unconnected-(U12-D1-Pad26)*
X142245000Y-90175000D03*
G04 #@! TO.P,U12,27,D2*
G04 #@! TO.N,unconnected-(U12-D2-Pad27)*
X142245000Y-90825000D03*
G04 #@! TO.P,U12,28,D3*
G04 #@! TO.N,unconnected-(U12-D3-Pad28)*
X142245000Y-91475000D03*
G04 #@! TD*
D33*
G04 #@! TO.P,C_STM_Decap1,1*
G04 #@! TO.N,0*
X82637500Y-78250000D03*
G04 #@! TO.P,C_STM_Decap1,2*
G04 #@! TO.N,V+3.3*
X84362500Y-78250000D03*
G04 #@! TD*
D91*
G04 #@! TO.P,R1_BNO85,1*
G04 #@! TO.N,Net-(U2-BOOTN)*
X100750000Y-88900000D03*
G04 #@! TO.P,R1_BNO85,2*
G04 #@! TO.N,V+3.3*
X100750000Y-91440000D03*
G04 #@! TD*
D11*
G04 #@! TO.P,R_USB_rx_LED1,1*
G04 #@! TO.N,Net-(U10-CBUS1)*
X93000000Y-43750000D03*
G04 #@! TO.P,R_USB_rx_LED1,2*
G04 #@! TO.N,Net-(USB_rx_LED1-K)*
X93000000Y-41750000D03*
G04 #@! TD*
D32*
G04 #@! TO.P,C_BNO_Decap3,1*
G04 #@! TO.N,0*
X94250000Y-91757500D03*
G04 #@! TO.P,C_BNO_Decap3,2*
G04 #@! TO.N,V+3.3*
X94250000Y-93482500D03*
G04 #@! TD*
D52*
G04 #@! TO.P,Cin1-24V1,1*
G04 #@! TO.N,VBAT*
X108500000Y-150750000D03*
G04 #@! TO.P,Cin1-24V1,2*
G04 #@! TO.N,Net-(Cin1-24V1-Pad2)*
X111625000Y-150750000D03*
G04 #@! TD*
D92*
G04 #@! TO.P,Rt1,1*
G04 #@! TO.N,Net-(U6-FSW)*
X158115000Y-142500000D03*
G04 #@! TO.P,Rt1,2*
G04 #@! TO.N,0*
X159250000Y-142500000D03*
G04 #@! TD*
D38*
G04 #@! TO.P,R1_I2C1,1*
G04 #@! TO.N,V+3.3*
X94000000Y-86482500D03*
G04 #@! TO.P,R1_I2C1,2*
G04 #@! TO.N,I2C2_SCL*
X94000000Y-84757500D03*
G04 #@! TD*
D54*
G04 #@! TO.P,SRV_RCS_CCW1,1,Pin_1*
G04 #@! TO.N,0*
X68960000Y-86070000D03*
D55*
G04 #@! TO.P,SRV_RCS_CCW1,2,Pin_2*
G04 #@! TO.N,5VCC*
X71500000Y-86070000D03*
G04 #@! TO.P,SRV_RCS_CCW1,3,Pin_3*
G04 #@! TO.N,SRV3*
X74040000Y-86070000D03*
G04 #@! TD*
D14*
G04 #@! TO.P,C_USB_Decap1,1*
G04 #@! TO.N,0*
X95787500Y-35000000D03*
G04 #@! TO.P,C_USB_Decap1,2*
G04 #@! TO.N,5VCC*
X93712500Y-35000000D03*
G04 #@! TD*
D86*
G04 #@! TO.P,Sol2-R-Pulldown1,1*
G04 #@! TO.N,0*
X147250000Y-48795000D03*
G04 #@! TO.P,Sol2-R-Pulldown1,2*
G04 #@! TO.N,Sol2_Sig*
X147250000Y-46255000D03*
G04 #@! TD*
D35*
G04 #@! TO.P,R_STM_PU2,1*
G04 #@! TO.N,V+3.3*
X79362500Y-72750000D03*
G04 #@! TO.P,R_STM_PU2,2*
G04 #@! TO.N,NRST*
X77637500Y-72750000D03*
G04 #@! TD*
D93*
G04 #@! TO.P,J1,1,Pin_1*
G04 #@! TO.N,0*
X152950000Y-155250000D03*
D94*
G04 #@! TO.P,J1,2,Pin_2*
G04 #@! TO.N,VBAT*
X145750000Y-155250000D03*
G04 #@! TD*
D38*
G04 #@! TO.P,R14-24V1,1*
G04 #@! TO.N,Net-(U7-ISNS-)*
X97000000Y-151725000D03*
G04 #@! TO.P,R14-24V1,2*
G04 #@! TO.N,Net-(L1-24V1-Pad1)*
X97000000Y-150000000D03*
G04 #@! TD*
D95*
G04 #@! TO.N,0*
X113750000Y-156425000D03*
G04 #@! TO.N,Net-(M1-24V1-D)*
X124300000Y-149200000D03*
X130375000Y-144375000D03*
G04 #@! TO.N,V+3.3*
X108875000Y-78300000D03*
X108875000Y-76750000D03*
X114350000Y-75075000D03*
X119171363Y-74989230D03*
X122175000Y-75000000D03*
X126200000Y-74975000D03*
X128850000Y-73250000D03*
X130925000Y-71150000D03*
X88550000Y-78700000D03*
X96850000Y-73200000D03*
X97400000Y-42425000D03*
X95462500Y-42400000D03*
X88625000Y-84725000D03*
X83500000Y-87200000D03*
G04 #@! TO.N,5VCC*
X96050000Y-36725000D03*
G04 #@! TO.N,0*
X105150000Y-77675000D03*
X102350000Y-79400000D03*
X101000000Y-82250000D03*
X101000000Y-84500000D03*
X153500000Y-143500000D03*
X155500000Y-142500000D03*
G04 #@! TO.N,NRST*
X83000000Y-75000000D03*
X85000000Y-74500000D03*
G04 #@! TO.N,0*
X119500000Y-152500000D03*
X152500000Y-130000000D03*
X78000000Y-31000000D03*
X78000000Y-27000000D03*
G04 #@! TO.N,5VCC*
X91750000Y-29500000D03*
X88500000Y-29500000D03*
G04 #@! TO.N,Net-(J2-CC1)*
X89000000Y-35000000D03*
X92000000Y-34000000D03*
G04 #@! TO.N,XBee_DOUT*
X114250000Y-77500000D03*
G04 #@! TO.N,0*
X136750000Y-102500000D03*
X150750000Y-118500000D03*
G04 #@! TO.N,V+3.3*
X106000000Y-92000000D03*
X83250000Y-67750000D03*
X136000000Y-135000000D03*
X154500000Y-136000000D03*
X149000000Y-77500000D03*
X106000000Y-112750000D03*
X84500000Y-65250000D03*
X97750000Y-84000000D03*
X97750000Y-85500000D03*
X105625000Y-117125000D03*
X103750000Y-112750000D03*
X142250000Y-77500000D03*
X104228131Y-118258335D03*
G04 #@! TO.N,0*
X94250000Y-90500000D03*
X90032447Y-87452312D03*
X91500000Y-94750000D03*
X95000000Y-57500000D03*
X99750000Y-114250000D03*
X117962763Y-162724386D03*
X100000000Y-67250000D03*
X101000000Y-120500000D03*
X107112500Y-71990000D03*
X99250000Y-59750000D03*
X106625335Y-50218721D03*
X107500000Y-77500000D03*
X125750000Y-142250000D03*
X87507372Y-48950387D03*
X144750000Y-142500000D03*
X91007748Y-62832776D03*
X110500000Y-111000000D03*
X74250000Y-30750000D03*
X100605000Y-118395000D03*
X111325000Y-154450000D03*
X103750000Y-149500000D03*
X115000000Y-161000000D03*
X96750000Y-94750000D03*
X159500000Y-155250000D03*
X107000000Y-120500000D03*
X85750000Y-50000000D03*
X77750000Y-128500000D03*
X124750000Y-39250000D03*
X151000000Y-92000000D03*
X103500000Y-116500000D03*
X140500000Y-85250000D03*
X81250000Y-78250000D03*
X120750000Y-81750000D03*
X70750000Y-30500000D03*
X93750000Y-89750000D03*
X101000000Y-95000000D03*
X135000000Y-141500000D03*
X68000000Y-40250000D03*
X151000000Y-49250000D03*
X157750000Y-123500000D03*
X150000000Y-136250000D03*
X159750000Y-145500000D03*
X99750000Y-123000000D03*
X91500000Y-89750000D03*
X89182973Y-63407834D03*
X154000000Y-90000000D03*
X152250000Y-136500000D03*
X140750000Y-127750000D03*
X120750000Y-44000000D03*
X109500000Y-102750000D03*
X95750000Y-59500000D03*
X108500000Y-36000000D03*
X102250000Y-98750000D03*
X151000000Y-97387500D03*
X93250000Y-52250000D03*
X126250000Y-152750000D03*
X130875000Y-117375000D03*
X97516708Y-48928675D03*
X87612500Y-66637500D03*
X96000000Y-97750000D03*
X96750000Y-30500000D03*
X115250000Y-141500000D03*
X109500000Y-98750000D03*
X138540733Y-78920577D03*
X92250000Y-55750000D03*
X93650335Y-63130264D03*
X88496071Y-134821136D03*
X150250000Y-38750000D03*
X97060751Y-34967714D03*
X102750000Y-95000000D03*
X65890174Y-48192961D03*
X66500000Y-33750000D03*
X138500000Y-85750000D03*
X84250000Y-30500000D03*
X146750000Y-127500000D03*
X83000000Y-129750000D03*
X77000000Y-36250000D03*
X99500000Y-57750000D03*
X140250000Y-123500000D03*
X87000000Y-47000000D03*
X105000000Y-48500000D03*
X79500000Y-117750000D03*
X145500000Y-84250000D03*
X87650000Y-83550000D03*
X112250000Y-117500000D03*
X82000000Y-132500000D03*
X108000000Y-116500000D03*
X156000000Y-139500000D03*
X97750000Y-45250000D03*
X146000000Y-90750000D03*
X146000000Y-138500000D03*
X131000000Y-76750000D03*
X160500000Y-142500000D03*
X103750000Y-97750000D03*
X149000000Y-53500000D03*
X141500000Y-148500000D03*
X93750000Y-94750000D03*
X120080737Y-46319607D03*
X126500000Y-41250000D03*
X75750000Y-48000000D03*
X118000000Y-158250000D03*
G04 #@! TO.N,Net-(U7-ISNS-)*
X98750000Y-152000000D03*
X96500000Y-157000000D03*
G04 #@! TO.N,Net-(U7-ISNS+)*
X100637500Y-152887500D03*
X100117158Y-159750000D03*
G04 #@! TO.N,Net-(M1-24V1-D)*
X108500000Y-138750000D03*
X111750000Y-146250000D03*
G04 #@! TO.N,Net-(U6-BOOT1)*
X145250000Y-141250000D03*
X148000000Y-143500000D03*
G04 #@! TO.N,VBAT*
X133887500Y-160387500D03*
X125000000Y-159750000D03*
X108500000Y-155750000D03*
G04 #@! TO.N,5VCC*
X84750000Y-43250000D03*
X152500000Y-107750000D03*
X91466114Y-137283885D03*
X83500000Y-55500000D03*
X72000000Y-68750000D03*
X92225000Y-52000000D03*
X137250000Y-111500000D03*
X83946593Y-57272234D03*
X78750000Y-135000000D03*
X81500000Y-137750000D03*
X154250000Y-109500000D03*
X92000000Y-132750000D03*
X74000000Y-68750000D03*
X137750000Y-108250000D03*
X84500000Y-53000000D03*
X90000000Y-45000000D03*
G04 #@! TO.N,24VCC*
X140250000Y-113250000D03*
X153000000Y-111250000D03*
G04 #@! TO.N,V_CR2032*
X96000000Y-78000000D03*
X101250000Y-77500000D03*
G04 #@! TO.N,Net-(U7-SS)*
X121625000Y-156625000D03*
X124000000Y-154000000D03*
G04 #@! TO.N,Net-(U6-EXTVCC)*
X148966053Y-139533947D03*
X150500000Y-137750000D03*
X149500000Y-144000000D03*
G04 #@! TO.N,USBD-*
X90750000Y-38500000D03*
X95250000Y-52250000D03*
X90250000Y-36750000D03*
X92000000Y-46000000D03*
G04 #@! TO.N,USBD+*
X90500000Y-30125000D03*
X90750000Y-33000000D03*
G04 #@! TO.N,AIN3*
X151771093Y-81482000D03*
G04 #@! TO.N,AIN2*
X153000000Y-86500000D03*
G04 #@! TO.N,AIN1*
X152750000Y-87750000D03*
G04 #@! TO.N,AIN0*
X152000000Y-89250000D03*
G04 #@! TO.N,uSD_D3*
X95250000Y-67000000D03*
X92562802Y-57812801D03*
X92787216Y-59377838D03*
X74750000Y-44750000D03*
G04 #@! TO.N,uSD_CMD*
X91250000Y-59500000D03*
X70500000Y-43500000D03*
X93750000Y-68250000D03*
X91250000Y-57750000D03*
G04 #@! TO.N,uSD_CLK*
X80000000Y-54250000D03*
X86500000Y-64750000D03*
X93500000Y-66500000D03*
X91783956Y-65060659D03*
G04 #@! TO.N,uSD_D1*
X98000000Y-58000000D03*
X86635274Y-42519258D03*
G04 #@! TO.N,uSD_D2*
X85500000Y-65750000D03*
X80000000Y-55250000D03*
X96000000Y-66500000D03*
G04 #@! TO.N,Net-(M1-24V1-G)*
X128000000Y-157250000D03*
X125875000Y-151375000D03*
G04 #@! TO.N,Net-(M2-24V1-G)*
X127500000Y-145500000D03*
X128500000Y-152500000D03*
G04 #@! TO.N,Net-(U2-BOOTN)*
X95250000Y-96250000D03*
G04 #@! TO.N,I2C2_SCL*
X102250000Y-69250000D03*
X92375000Y-84625000D03*
X111500000Y-45000000D03*
X94250000Y-79500000D03*
X95750000Y-99000000D03*
X102695000Y-119695000D03*
G04 #@! TO.N,I2C2_SDA*
X103500000Y-86750000D03*
X115750000Y-39500000D03*
X108750000Y-118750000D03*
X105000000Y-118500000D03*
G04 #@! TO.N,/24V-PowerCircuit/FB*
X129500000Y-154000000D03*
X123750000Y-157500000D03*
G04 #@! TO.N,Net-(U7-RT{slash}CLK)*
X125000000Y-153500000D03*
X122250000Y-144000000D03*
G04 #@! TO.N,BOOT0*
X86500000Y-67500000D03*
X91005582Y-68916263D03*
X97000000Y-64250000D03*
X98750000Y-64250000D03*
G04 #@! TO.N,Net-(U10-CBUS1)*
X92750000Y-50000000D03*
X91000000Y-51750000D03*
G04 #@! TO.N,Net-(U10-CBUS0)*
X89750000Y-46250000D03*
X89750000Y-52000000D03*
G04 #@! TO.N,Sol1_Sig*
X110750000Y-49500000D03*
X99000000Y-65500000D03*
X131250000Y-34505000D03*
X90250000Y-76500000D03*
X103750000Y-62250000D03*
X106250000Y-60500000D03*
G04 #@! TO.N,Sol2_Sig*
X110750000Y-57250000D03*
X90500000Y-77500000D03*
X121750000Y-46250000D03*
X112250000Y-56750000D03*
X106250000Y-61750000D03*
X103750000Y-63500000D03*
X137505000Y-46255000D03*
X99750000Y-66250000D03*
G04 #@! TO.N,SRV2*
X91250000Y-74500000D03*
G04 #@! TO.N,SRV1*
X92250000Y-71750000D03*
G04 #@! TO.N,SRV3*
X90500000Y-72250000D03*
G04 #@! TO.N,SRV4*
X89500000Y-71750000D03*
G04 #@! TO.N,STM_USB_TX*
X87000000Y-59250000D03*
X101250000Y-71579934D03*
X100750000Y-73750000D03*
G04 #@! TO.N,STM_USB_RX*
X104750000Y-75250000D03*
X105250000Y-65250000D03*
G04 #@! TO.N,Net-(U1-VCAP_1)*
X95500000Y-79750000D03*
X101750000Y-74500000D03*
G04 #@! TO.N,FT232_RTS*
X88000000Y-59500000D03*
G04 #@! TO.N,XBee_DIN*
X115250000Y-78000000D03*
X106500000Y-90000000D03*
X115250000Y-83250000D03*
X103822945Y-90287681D03*
G04 #@! TO.N,uSD_D0*
X81250000Y-75250000D03*
X83750000Y-72750000D03*
X66000000Y-45750000D03*
X72750000Y-51500000D03*
X67750000Y-39000000D03*
X72750000Y-55250000D03*
X66000000Y-39000000D03*
G04 #@! TO.N,XBee_CTS*
X85500000Y-91750000D03*
X114500000Y-92250000D03*
X123250000Y-87750000D03*
X85500000Y-94750000D03*
X102500000Y-102000000D03*
G04 #@! TO.N,SPI1_MOSI*
X136500000Y-85250000D03*
X101250000Y-79750000D03*
X104500000Y-79250000D03*
X92500000Y-79750000D03*
G04 #@! TO.N,SPI1_SCK*
X103000000Y-88750000D03*
X114452162Y-88204343D03*
X91000000Y-79750000D03*
X130500000Y-88500000D03*
X91000000Y-85250000D03*
X139500000Y-89250000D03*
G04 #@! TO.N,SPI1_MISO*
X138750000Y-86750000D03*
X102750000Y-83750000D03*
X91715544Y-79392228D03*
X104250000Y-83750000D03*
X144000000Y-87500000D03*
G04 #@! TO.N,XBee_RTS*
X114750000Y-90750000D03*
X98500000Y-101250000D03*
G04 #@! TO.N,SPI1_NSS{slash}CS*
X146500000Y-80250000D03*
X91500000Y-83750000D03*
X140250000Y-86500000D03*
G04 #@! TO.N,XBee_DOUT*
X114250000Y-79500000D03*
X104750000Y-80250000D03*
X107000000Y-81500000D03*
X116000000Y-76750000D03*
G04 #@! TD*
D96*
G04 #@! TO.N,0*
X113808390Y-156483390D02*
X113750000Y-156425000D01*
X115112500Y-156483390D02*
X113808390Y-156483390D01*
D97*
X111375000Y-154500000D02*
X111325000Y-154450000D01*
X113462500Y-154500000D02*
X111375000Y-154500000D01*
D96*
G04 #@! TO.N,/24V-PowerCircuit/FB*
X122550000Y-157800000D02*
X123000000Y-158250000D01*
X120900000Y-157800000D02*
X122550000Y-157800000D01*
G04 #@! TO.N,Net-(U7-SS)*
X117187500Y-155687500D02*
X117187500Y-156483390D01*
X117250000Y-155625000D02*
X117187500Y-155687500D01*
X120625000Y-155625000D02*
X117250000Y-155625000D01*
X121625000Y-156625000D02*
X120625000Y-155625000D01*
G04 #@! TO.N,Net-(U7-ISNS+)*
X100317158Y-159550000D02*
X100117158Y-159750000D01*
X124200000Y-159550000D02*
X100317158Y-159550000D01*
X126250000Y-157500000D02*
X124200000Y-159550000D01*
X126250000Y-156880000D02*
X126250000Y-157500000D01*
G04 #@! TO.N,Net-(U7-ISNS-)*
X123655000Y-158975000D02*
X125750000Y-156880000D01*
X116975000Y-158975000D02*
X123655000Y-158975000D01*
X105000000Y-157846219D02*
X115846219Y-157846219D01*
X115846219Y-157846219D02*
X116975000Y-158975000D01*
X96500000Y-157000000D02*
X104153781Y-157000000D01*
X104153781Y-157000000D02*
X105000000Y-157846219D01*
G04 #@! TO.N,Net-(Dboot-24V1-A)*
X118350000Y-161000000D02*
X119112500Y-161000000D01*
G04 #@! TO.N,Net-(U6-SW1)*
X148112190Y-141500000D02*
X149172190Y-140440000D01*
X146525000Y-141500000D02*
X148112190Y-141500000D01*
X144775000Y-139750000D02*
X146525000Y-141500000D01*
X140250000Y-139750000D02*
X144775000Y-139750000D01*
X149172190Y-140440000D02*
X153000000Y-140440000D01*
G04 #@! TO.N,Net-(U6-SW2)*
X148325000Y-136950000D02*
X148325000Y-138009010D01*
X148325000Y-138009010D02*
X149675990Y-139360000D01*
X140540000Y-136950000D02*
X148325000Y-136950000D01*
X140250000Y-137240000D02*
X140540000Y-136950000D01*
X149675990Y-139360000D02*
X153000000Y-139360000D01*
D97*
G04 #@! TO.N,VBAT*
X146356250Y-144293750D02*
X146832500Y-143817500D01*
X145081250Y-144293750D02*
X146356250Y-144293750D01*
X145081250Y-144293750D02*
X145750000Y-144962500D01*
X144725000Y-143937500D02*
X145081250Y-144293750D01*
X141500000Y-143937500D02*
X144725000Y-143937500D01*
D96*
X146832500Y-143880000D02*
X145750000Y-144962500D01*
X146832500Y-143817500D02*
X146832500Y-143880000D01*
D97*
X146832500Y-143817500D02*
X146832500Y-144332500D01*
D96*
X146832500Y-143817500D02*
X149710000Y-140940000D01*
X149710000Y-140940000D02*
X153000000Y-140940000D01*
D97*
X146832500Y-144332500D02*
X148000000Y-145500000D01*
D96*
G04 #@! TO.N,0*
X88325000Y-53780000D02*
X88975000Y-53780000D01*
X89820000Y-55750000D02*
X92250000Y-55750000D01*
X88975000Y-53780000D02*
X88975000Y-54905000D01*
X88975000Y-54905000D02*
X89820000Y-55750000D01*
G04 #@! TO.N,Net-(M1-24V1-D)*
X124300000Y-149200000D02*
X121350000Y-146250000D01*
X130468750Y-155106250D02*
X130468750Y-144468750D01*
X130468750Y-155106250D02*
X132500000Y-157137500D01*
X130468750Y-144468750D02*
X130375000Y-144375000D01*
G04 #@! TO.N,V+3.3*
X108875000Y-80777500D02*
X108850000Y-80802500D01*
D97*
X108850000Y-80802500D02*
X111592500Y-80802500D01*
D96*
X108875000Y-78300000D02*
X108875000Y-80777500D01*
X110425000Y-75075000D02*
X108775000Y-76725000D01*
X114350000Y-75075000D02*
X110425000Y-75075000D01*
X119200000Y-75000000D02*
X119175000Y-74975000D01*
X122175000Y-75000000D02*
X119200000Y-75000000D01*
X126200000Y-74975000D02*
X126075000Y-74975000D01*
X127125000Y-74975000D02*
X126200000Y-74975000D01*
X128850000Y-73250000D02*
X127125000Y-74975000D01*
X131400000Y-70625000D02*
X130950000Y-71075000D01*
X150475000Y-70625000D02*
X131400000Y-70625000D01*
X150790000Y-70940000D02*
X150475000Y-70625000D01*
X150790000Y-73750000D02*
X150790000Y-70940000D01*
X87900000Y-78250000D02*
X87075000Y-78250000D01*
X88350000Y-78700000D02*
X87900000Y-78250000D01*
X88550000Y-78700000D02*
X88350000Y-78700000D01*
G04 #@! TO.N,0*
X88500000Y-80575000D02*
X88500000Y-82700000D01*
X88500000Y-82700000D02*
X87650000Y-83550000D01*
X89225000Y-77800000D02*
X89225000Y-79850000D01*
X88050000Y-77800000D02*
X89225000Y-77800000D01*
X89225000Y-79850000D02*
X88500000Y-80575000D01*
X88000000Y-77750000D02*
X88050000Y-77800000D01*
X87075000Y-77750000D02*
X88000000Y-77750000D01*
G04 #@! TO.N,V+3.3*
X96850000Y-73200000D02*
X96850000Y-73225000D01*
X96850000Y-73050001D02*
X96850000Y-73200000D01*
X97650001Y-72250000D02*
X96850000Y-73050001D01*
X98425000Y-72250000D02*
X97650001Y-72250000D01*
X103800000Y-51910000D02*
X101750000Y-53960000D01*
X103800000Y-49325000D02*
X103800000Y-51910000D01*
X101112500Y-46637500D02*
X103800000Y-49325000D01*
X101112500Y-46500000D02*
X101112500Y-46637500D01*
X97400000Y-42425000D02*
X99287500Y-42425000D01*
X99287500Y-42425000D02*
X101112500Y-44250000D01*
X95462500Y-42400000D02*
X95462500Y-50250000D01*
D97*
X83500000Y-101037500D02*
X83500000Y-87200000D01*
X97500000Y-115037500D02*
X83500000Y-101037500D01*
D96*
X88825000Y-84525000D02*
X88625000Y-84725000D01*
X90000000Y-84525000D02*
X88825000Y-84525000D01*
G04 #@! TO.N,0*
X87650000Y-85050000D02*
X88850000Y-86250000D01*
X88850000Y-86250000D02*
X90000000Y-86250000D01*
X87650000Y-83550000D02*
X87650000Y-85050000D01*
X89500000Y-82750000D02*
X89500000Y-81675000D01*
X89175000Y-83075000D02*
X89500000Y-82750000D01*
X88125000Y-83075000D02*
X89175000Y-83075000D01*
X87650000Y-83550000D02*
X88125000Y-83075000D01*
G04 #@! TO.N,V+3.3*
X83275000Y-86975000D02*
X83500000Y-87200000D01*
X83275000Y-79337500D02*
X83275000Y-86975000D01*
X84362500Y-78250000D02*
X83275000Y-79337500D01*
G04 #@! TO.N,5VCC*
X95437500Y-36725000D02*
X96050000Y-36725000D01*
X93712500Y-35000000D02*
X95437500Y-36725000D01*
D97*
G04 #@! TO.N,VBAT*
X145750000Y-147750000D02*
X145750000Y-155250000D01*
X148000000Y-145500000D02*
X145750000Y-147750000D01*
D96*
G04 #@! TO.N,0*
X107325000Y-77675000D02*
X107500000Y-77500000D01*
X105150000Y-77675000D02*
X107325000Y-77675000D01*
X104075000Y-77675000D02*
X105150000Y-77675000D01*
X102350000Y-79400000D02*
X104075000Y-77675000D01*
G04 #@! TO.N,SPI1_MOSI*
X101872000Y-80372000D02*
X101250000Y-79750000D01*
X103378000Y-80372000D02*
X101872000Y-80372000D01*
X104500000Y-79250000D02*
X103378000Y-80372000D01*
G04 #@! TO.N,0*
X101370000Y-84870000D02*
X101000000Y-84500000D01*
X102525000Y-84870000D02*
X101370000Y-84870000D01*
X107500000Y-77500000D02*
X110290000Y-77500000D01*
X111592500Y-78802500D02*
X110290000Y-77500000D01*
X152750000Y-142750000D02*
X153500000Y-143500000D01*
X152750000Y-142300000D02*
X152750000Y-142750000D01*
X154940000Y-141940000D02*
X155500000Y-142500000D01*
X154375000Y-141940000D02*
X154940000Y-141940000D01*
G04 #@! TO.N,NRST*
X78500000Y-74000000D02*
X82000000Y-74000000D01*
X77637500Y-73137500D02*
X78500000Y-74000000D01*
X82000000Y-74000000D02*
X83000000Y-75000000D01*
X77637500Y-72750000D02*
X77637500Y-73137500D01*
X85750000Y-75250000D02*
X85000000Y-74500000D01*
X87075000Y-75250000D02*
X85750000Y-75250000D01*
G04 #@! TO.N,V+3.3*
X90000000Y-81675000D02*
X90000000Y-83250000D01*
X87075000Y-78250000D02*
X84362500Y-78250000D01*
G04 #@! TO.N,0*
X126745001Y-155440000D02*
X126500000Y-155440000D01*
X127495001Y-156190000D02*
X126745001Y-155440000D01*
X127940000Y-156190000D02*
X127495001Y-156190000D01*
X126750000Y-153500000D02*
X126750000Y-155190000D01*
X126750000Y-153500000D02*
X126750000Y-152750000D01*
X126750000Y-155190000D02*
X126500000Y-155440000D01*
X126750000Y-152750000D02*
X126250000Y-152750000D01*
X126750000Y-154000000D02*
X126750000Y-153500000D01*
X126750000Y-154000000D02*
X126750000Y-155190000D01*
G04 #@! TO.N,5VCC*
X93712500Y-35000000D02*
X93712500Y-34037500D01*
D97*
G04 #@! TO.N,VBAT*
X141500000Y-143937500D02*
X141620000Y-143817500D01*
D98*
X139025000Y-155250000D02*
X145750000Y-155250000D01*
X139025000Y-155250000D02*
X135000000Y-151225000D01*
X139025000Y-155250000D02*
X133887500Y-160387500D01*
D96*
G04 #@! TO.N,Net-(M1-24V1-D)*
X125300000Y-150200000D02*
X124300000Y-149200000D01*
X121350000Y-146250000D02*
X111750000Y-146250000D01*
X130052500Y-154690000D02*
X130468750Y-155106250D01*
X127940000Y-154690000D02*
X130052500Y-154690000D01*
D97*
G04 #@! TO.N,V+3.3*
X115750000Y-110249000D02*
X107251000Y-110249000D01*
X107251000Y-110249000D02*
X107250000Y-110250000D01*
X142962500Y-112712500D02*
X142962500Y-118750000D01*
X140499000Y-110249000D02*
X142962500Y-112712500D01*
X115750000Y-110249000D02*
X140499000Y-110249000D01*
D96*
X138787500Y-83675000D02*
X138500000Y-83387500D01*
X142245000Y-83675000D02*
X138787500Y-83675000D01*
X138500000Y-82750000D02*
X138500000Y-83387500D01*
X100000000Y-70675000D02*
X98425000Y-72250000D01*
X100000000Y-70112500D02*
X100000000Y-70675000D01*
X99328500Y-81559000D02*
X99318750Y-81568750D01*
X105051000Y-81559000D02*
X99328500Y-81559000D01*
D97*
X104805000Y-81805000D02*
X105051000Y-81559000D01*
X104805000Y-81805000D02*
X105430000Y-81180000D01*
D96*
X101112500Y-44250000D02*
X101112500Y-46500000D01*
X95462500Y-39937500D02*
X95462500Y-42400000D01*
X95025000Y-39500000D02*
X95462500Y-39937500D01*
X90000000Y-83000000D02*
X90000000Y-83250000D01*
X90000000Y-83000000D02*
X90000000Y-81675000D01*
X90000000Y-84525000D02*
X90000000Y-83000000D01*
G04 #@! TO.N,Net-(U7-SS)*
X124000000Y-154000000D02*
X124000000Y-155000000D01*
X124000000Y-155000000D02*
X124190000Y-155190000D01*
X124190000Y-155190000D02*
X125060000Y-155190000D01*
G04 #@! TO.N,0*
X122750000Y-153212500D02*
X122062500Y-152525000D01*
G04 #@! TO.N,Net-(U7-ISNS-)*
X96850000Y-152150000D02*
X97000000Y-152000000D01*
X96850000Y-153750000D02*
X96850000Y-152150000D01*
D97*
G04 #@! TO.N,VBAT*
X102362500Y-154193750D02*
X102362500Y-153750000D01*
X100556250Y-156000000D02*
X102362500Y-154193750D01*
X96000000Y-156000000D02*
X100556250Y-156000000D01*
X95000000Y-155000000D02*
X96000000Y-156000000D01*
X95412500Y-144410000D02*
X95000000Y-144822500D01*
X95000000Y-144822500D02*
X95000000Y-155000000D01*
D96*
G04 #@! TO.N,Net-(U7-RT{slash}CLK)*
X125000000Y-154630000D02*
X125060000Y-154690000D01*
X125000000Y-153500000D02*
X125000000Y-154630000D01*
G04 #@! TO.N,0*
X122062500Y-152000000D02*
X120000000Y-152000000D01*
X122062500Y-152000000D02*
X122062500Y-152525000D01*
X120000000Y-152000000D02*
X119500000Y-152500000D01*
X122062500Y-150000000D02*
X122062500Y-152000000D01*
X152250000Y-130250000D02*
X152500000Y-130000000D01*
X152250000Y-131462500D02*
X152250000Y-130250000D01*
G04 #@! TO.N,Net-(Cff-5V1-Pad1)*
X87250000Y-128750000D02*
X89250000Y-126750000D01*
X86612500Y-128750000D02*
X87250000Y-128750000D01*
G04 #@! TO.N,5VCC*
X89250000Y-124501000D02*
X89000000Y-124251000D01*
X89250000Y-124750000D02*
X89250000Y-124501000D01*
D99*
X89000000Y-124251000D02*
X87001000Y-124251000D01*
D96*
G04 #@! TO.N,0*
X79450000Y-31000000D02*
X78000000Y-31000000D01*
X79450000Y-27000000D02*
X78000000Y-27000000D01*
G04 #@! TO.N,Net-(J2-CC2)*
X89550000Y-27550000D02*
X88000000Y-26000000D01*
X89550000Y-30875000D02*
X89550000Y-27550000D01*
G04 #@! TO.N,5VCC*
X89050000Y-30050000D02*
X88500000Y-29500000D01*
X89050000Y-30875000D02*
X89050000Y-30050000D01*
G04 #@! TO.N,Net-(J2-CC2)*
X84000000Y-27000000D02*
X85000000Y-26000000D01*
X85000000Y-26000000D02*
X88000000Y-26000000D01*
X82550000Y-27000000D02*
X84000000Y-27000000D01*
G04 #@! TO.N,Net-(J2-CC1)*
X82550000Y-32550000D02*
X82550000Y-31000000D01*
X85000000Y-35000000D02*
X82550000Y-32550000D01*
X89000000Y-35000000D02*
X85000000Y-35000000D01*
X92000000Y-33000000D02*
X92000000Y-34000000D01*
X91800001Y-33000000D02*
X92000000Y-33000000D01*
X91300000Y-32499999D02*
X91800001Y-33000000D01*
X91300000Y-32125000D02*
X91300000Y-32499999D01*
D100*
G04 #@! TO.N,XBee_DIN*
X115250000Y-78000000D02*
X115250000Y-68750000D01*
X115250000Y-68750000D02*
X117000000Y-67000000D01*
D96*
G04 #@! TO.N,0*
X131000000Y-76750000D02*
X131750000Y-76750000D01*
X131750000Y-76750000D02*
X131772500Y-76772500D01*
X131772500Y-76772500D02*
X134052500Y-76772500D01*
D97*
G04 #@! TO.N,V+3.3*
X139025000Y-117500000D02*
X139025000Y-118275000D01*
D96*
X90000000Y-83250000D02*
X93232500Y-86482500D01*
X95750000Y-95557500D02*
X95750000Y-94982500D01*
X95025000Y-38025000D02*
X94500000Y-37500000D01*
X100387500Y-119045000D02*
X99750000Y-119682500D01*
D97*
X105430000Y-81180000D02*
X105749000Y-81499000D01*
D96*
X85887500Y-68362500D02*
X88750000Y-68362500D01*
X99318750Y-81568750D02*
X97887500Y-83000000D01*
X101112500Y-44250000D02*
X106250000Y-44250000D01*
X153000000Y-138860000D02*
X153900000Y-138860000D01*
D97*
X105807500Y-80802500D02*
X108850000Y-80802500D01*
X99750000Y-117287500D02*
X97500000Y-115037500D01*
D96*
X80000000Y-72750000D02*
X81500000Y-72750000D01*
X106876000Y-115874000D02*
X106500000Y-116250000D01*
X96500000Y-81675000D02*
X99212500Y-81675000D01*
X95750000Y-95557500D02*
X95750000Y-93482500D01*
D97*
X105749000Y-91749000D02*
X106000000Y-92000000D01*
D96*
X154375000Y-137860000D02*
X154500000Y-137735000D01*
D97*
X142962500Y-118750000D02*
X154212500Y-107500000D01*
D96*
X84750000Y-69250000D02*
X84750000Y-69500000D01*
X150790000Y-75460000D02*
X150790000Y-73750000D01*
D97*
X105430000Y-81180000D02*
X105051000Y-81559000D01*
D96*
X109076000Y-115874000D02*
X109000000Y-115874000D01*
X99387500Y-95870000D02*
X99137500Y-96120000D01*
X106500000Y-116250000D02*
X105625000Y-117125000D01*
X100750000Y-91440000D02*
X98707500Y-93482500D01*
D97*
X140057500Y-118750000D02*
X139778750Y-119028750D01*
D96*
X97000000Y-93482500D02*
X95750000Y-93482500D01*
D97*
X97500000Y-115037500D02*
X97500000Y-117432500D01*
D96*
X86112500Y-63500000D02*
X84500000Y-65112500D01*
D97*
X139025000Y-118275000D02*
X139778750Y-119028750D01*
D96*
X103470000Y-118395000D02*
X104091466Y-118395000D01*
X99800000Y-117745000D02*
X99750000Y-117795000D01*
X107780000Y-117530000D02*
X106500000Y-116250000D01*
X80000000Y-72750000D02*
X82000000Y-72750000D01*
X68150000Y-42400000D02*
X67000000Y-41250000D01*
X109750000Y-116548000D02*
X109226000Y-116024000D01*
X67000000Y-41250000D02*
X67000000Y-38000000D01*
D97*
X139778750Y-119028750D02*
X135357500Y-123450000D01*
D96*
X98707500Y-93482500D02*
X97000000Y-93482500D01*
X101750000Y-53960000D02*
X100729000Y-54981000D01*
X100729000Y-54981000D02*
X94251000Y-54981000D01*
D97*
X107250000Y-110250000D02*
X107250000Y-111500000D01*
D96*
X138637500Y-81112500D02*
X142250000Y-77500000D01*
X149000000Y-77250000D02*
X150790000Y-75460000D01*
D97*
X147562500Y-123350000D02*
X142962500Y-118750000D01*
D96*
X88975000Y-60980000D02*
X88975000Y-58475000D01*
D97*
X115750000Y-112250000D02*
X113387500Y-114612500D01*
D96*
X94251000Y-54981000D02*
X94175000Y-54905000D01*
X81500000Y-72750000D02*
X84750000Y-69500000D01*
X73000000Y-33112500D02*
X71250000Y-33112500D01*
X76500000Y-56250000D02*
X67000000Y-46750000D01*
X109226000Y-116024000D02*
X109076000Y-115874000D01*
X110637500Y-114612500D02*
X109226000Y-116024000D01*
D97*
X135357500Y-131950000D02*
X135357500Y-127700000D01*
X98750000Y-112750000D02*
X103750000Y-112750000D01*
X105749000Y-81499000D02*
X105749000Y-91749000D01*
D96*
X79362500Y-72750000D02*
X80000000Y-72750000D01*
X104250000Y-84870000D02*
X105250000Y-83870000D01*
D97*
X97500000Y-117432500D02*
X99750000Y-119682500D01*
D96*
X95750000Y-94982500D02*
X94250000Y-93482500D01*
X83250000Y-67750000D02*
X84750000Y-69250000D01*
X84362500Y-75112500D02*
X84362500Y-78250000D01*
X107950000Y-44250000D02*
X108250000Y-43950000D01*
X136000000Y-135000000D02*
X135357500Y-134357500D01*
X97750000Y-83137500D02*
X97887500Y-83000000D01*
X86112500Y-63500000D02*
X87580000Y-63500000D01*
X88975000Y-58475000D02*
X86750000Y-56250000D01*
D97*
X97500000Y-114000000D02*
X98750000Y-112750000D01*
X113387500Y-114612500D02*
X111750000Y-114612500D01*
D96*
X111750000Y-114612500D02*
X110637500Y-114612500D01*
X138500000Y-83387500D02*
X138500000Y-81112500D01*
X103105000Y-118395000D02*
X102455000Y-117745000D01*
X94175000Y-54905000D02*
X94175000Y-53780000D01*
X96562500Y-81675000D02*
X97887500Y-83000000D01*
X86975000Y-38775000D02*
X86975000Y-39000000D01*
D97*
X153887500Y-123350000D02*
X147562500Y-123350000D01*
D96*
X67000000Y-46750000D02*
X67000000Y-41250000D01*
X71250000Y-33750000D02*
X71250000Y-33112500D01*
X82000000Y-72750000D02*
X84362500Y-75112500D01*
X149000000Y-77500000D02*
X149000000Y-77250000D01*
X101530000Y-119045000D02*
X100387500Y-119045000D01*
X95750000Y-86482500D02*
X96767500Y-86482500D01*
X106250000Y-44250000D02*
X107950000Y-44250000D01*
X99137500Y-96120000D02*
X97062500Y-96120000D01*
X105625000Y-117125000D02*
X105500000Y-117250000D01*
X109000000Y-114362500D02*
X109000000Y-115874000D01*
X103470000Y-118395000D02*
X103105000Y-118395000D01*
X97750000Y-84000000D02*
X97750000Y-83137500D01*
X96767500Y-86482500D02*
X97750000Y-85500000D01*
X88250000Y-37500000D02*
X86975000Y-38775000D01*
X153900000Y-138860000D02*
X154400000Y-138360000D01*
X99212500Y-81675000D02*
X99318750Y-81568750D01*
D97*
X142962500Y-118750000D02*
X140057500Y-118750000D01*
X107250000Y-93250000D02*
X106000000Y-92000000D01*
X104250000Y-82360000D02*
X104805000Y-81805000D01*
D96*
X88975000Y-62105000D02*
X88975000Y-60980000D01*
X94250000Y-93482500D02*
X95750000Y-93482500D01*
X86750000Y-56250000D02*
X76500000Y-56250000D01*
X95462500Y-50250000D02*
X94175000Y-51537500D01*
X84500000Y-65112500D02*
X84500000Y-65250000D01*
D97*
X115750000Y-110249000D02*
X115750000Y-112250000D01*
D96*
X138500000Y-81112500D02*
X138637500Y-81112500D01*
X69122500Y-42400000D02*
X68150000Y-42400000D01*
X105250000Y-83360000D02*
X104250000Y-82360000D01*
X93232500Y-86482500D02*
X94000000Y-86482500D01*
X99387500Y-95870000D02*
X97000000Y-93482500D01*
X87580000Y-63500000D02*
X88975000Y-62105000D01*
D97*
X107250000Y-111500000D02*
X106000000Y-112750000D01*
X97500000Y-115037500D02*
X97500000Y-114000000D01*
D96*
X99387500Y-97370000D02*
X99387500Y-95870000D01*
X73000000Y-33112500D02*
X81087500Y-33112500D01*
X81087500Y-33112500D02*
X86975000Y-39000000D01*
X108250000Y-45050000D02*
X108250000Y-43950000D01*
X109250000Y-114612500D02*
X109000000Y-114362500D01*
X105250000Y-83870000D02*
X105250000Y-83360000D01*
X99750000Y-119682500D02*
X99750000Y-117795000D01*
X94175000Y-51537500D02*
X94175000Y-53780000D01*
X109750000Y-117250000D02*
X109750000Y-116548000D01*
X102455000Y-117745000D02*
X101530000Y-117745000D01*
D97*
X105430000Y-81180000D02*
X105807500Y-80802500D01*
D96*
X94000000Y-86482500D02*
X95750000Y-86482500D01*
X88175000Y-69500000D02*
X84750000Y-69500000D01*
X95025000Y-39500000D02*
X95025000Y-38025000D01*
X154375000Y-137860000D02*
X154375000Y-138335000D01*
X135357500Y-134357500D02*
X135357500Y-131950000D01*
X104091466Y-118395000D02*
X104228131Y-118258335D01*
X108250000Y-45050000D02*
X107050000Y-45050000D01*
D97*
X107250000Y-110250000D02*
X107250000Y-93250000D01*
D96*
X107050000Y-45050000D02*
X106250000Y-44250000D01*
X109000000Y-115874000D02*
X106876000Y-115874000D01*
X107780000Y-117720000D02*
X107780000Y-117530000D01*
X94500000Y-37500000D02*
X88250000Y-37500000D01*
X96500000Y-81675000D02*
X96562500Y-81675000D01*
X154375000Y-138335000D02*
X154400000Y-138360000D01*
X84750000Y-69500000D02*
X85887500Y-68362500D01*
D97*
X135357500Y-123450000D02*
X135357500Y-127700000D01*
D96*
X154500000Y-137735000D02*
X154500000Y-136000000D01*
X101530000Y-117745000D02*
X99800000Y-117745000D01*
D97*
X154212500Y-107500000D02*
X162250000Y-107500000D01*
D96*
X111750000Y-114612500D02*
X109250000Y-114612500D01*
X89000000Y-70325000D02*
X88175000Y-69500000D01*
X67000000Y-38000000D02*
X71250000Y-33750000D01*
G04 #@! TO.N,Net-(3.3V-StatusLED1-K)*
X134775000Y-117500000D02*
X136975000Y-117500000D01*
G04 #@! TO.N,0*
X111500000Y-112637500D02*
X111750000Y-112887500D01*
X101112500Y-97612500D02*
X102250000Y-98750000D01*
X126600000Y-152400000D02*
X126250000Y-152750000D01*
X88962500Y-47500000D02*
X87500000Y-47500000D01*
X66522500Y-48772500D02*
X66000000Y-48250000D01*
D97*
X138482500Y-127700000D02*
X140700000Y-127700000D01*
D99*
X158750000Y-90300000D02*
X158750000Y-82500000D01*
D96*
X88975000Y-50012500D02*
X88962500Y-50000000D01*
D97*
X119000000Y-158250000D02*
X118000000Y-158250000D01*
D96*
X110750000Y-112637500D02*
X110750000Y-111250000D01*
X149255000Y-90825000D02*
X146075000Y-90825000D01*
X142245000Y-84325000D02*
X140425000Y-84325000D01*
X93525000Y-52525000D02*
X93250000Y-52250000D01*
X132725000Y-117500000D02*
X131000000Y-117500000D01*
X111592500Y-102802500D02*
X109552500Y-102802500D01*
X117750000Y-46150000D02*
X119900000Y-46150000D01*
X120700000Y-43950000D02*
X120750000Y-44000000D01*
X99750000Y-115720000D02*
X99750000Y-114250000D01*
X104975000Y-71740000D02*
X104975000Y-72990000D01*
X146400000Y-55500000D02*
X147000000Y-55500000D01*
X90925000Y-60980000D02*
X90925000Y-62675000D01*
X155600000Y-139900000D02*
X156000000Y-139500000D01*
X101530000Y-119695000D02*
X101530000Y-119977500D01*
X102000000Y-84345000D02*
X102000000Y-83225000D01*
X76375000Y-35625000D02*
X77000000Y-36250000D01*
X78250000Y-129000000D02*
X77750000Y-128500000D01*
X89551000Y-69429822D02*
X89551000Y-67438500D01*
X66522500Y-49375000D02*
X66522500Y-48772500D01*
X108250000Y-37350000D02*
X108250000Y-36250000D01*
D97*
X93352847Y-62832776D02*
X93650335Y-63130264D01*
D96*
X119900000Y-46150000D02*
X120000000Y-46250000D01*
X94825000Y-32125000D02*
X95000000Y-31950000D01*
X148145000Y-47900000D02*
X147250000Y-48795000D01*
X140275000Y-84475000D02*
X140500000Y-84700000D01*
X94687500Y-95620000D02*
X94750000Y-95557500D01*
X125182500Y-141682500D02*
X125750000Y-142250000D01*
X73000000Y-31387500D02*
X73612500Y-31387500D01*
X150250000Y-37070000D02*
X150250000Y-38750000D01*
X131000000Y-117500000D02*
X130875000Y-117375000D01*
X155612500Y-123350000D02*
X157600000Y-123350000D01*
X83994000Y-130380000D02*
X83364000Y-129750000D01*
X87000000Y-32125000D02*
X87500000Y-32125000D01*
X96250000Y-95250000D02*
X96750000Y-94750000D01*
X106500000Y-151887500D02*
X104675000Y-151887500D01*
X110720000Y-118220000D02*
X110720000Y-117720000D01*
X101775000Y-83000000D02*
X100500000Y-83000000D01*
X93525000Y-53780000D02*
X93525000Y-52525000D01*
X159250000Y-142500000D02*
X160500000Y-142500000D01*
X87500000Y-47500000D02*
X87000000Y-47000000D01*
X140500000Y-84700000D02*
X140500000Y-85250000D01*
X89551000Y-67438500D02*
X88750000Y-66637500D01*
X102525000Y-82360000D02*
X102000000Y-82885000D01*
X142245000Y-84325000D02*
X145425000Y-84325000D01*
X117750000Y-43950000D02*
X120700000Y-43950000D01*
X115002500Y-78802500D02*
X117967500Y-81767500D01*
X93750000Y-94750000D02*
X93750000Y-95250000D01*
X94100000Y-32125000D02*
X94825000Y-32125000D01*
D97*
X99250000Y-59750000D02*
X99250000Y-58000000D01*
D96*
X95000000Y-28750000D02*
X95000000Y-30500000D01*
X86275000Y-32125000D02*
X86100000Y-31950000D01*
D99*
X158750000Y-90300000D02*
X158750000Y-98100000D01*
D97*
X91007748Y-62832776D02*
X93352847Y-62832776D01*
D96*
X92250000Y-55750000D02*
X92657000Y-55750000D01*
X100000000Y-68387500D02*
X100000000Y-67250000D01*
X88962500Y-49000000D02*
X87500000Y-49000000D01*
X138500000Y-84475000D02*
X140275000Y-84475000D01*
X152250000Y-137500000D02*
X152250000Y-136500000D01*
X110750000Y-112637500D02*
X111500000Y-112637500D01*
X79637500Y-129000000D02*
X78250000Y-129000000D01*
X110750000Y-111250000D02*
X110500000Y-111000000D01*
X88325000Y-53780000D02*
X88325000Y-50637500D01*
X99387500Y-45250000D02*
X97750000Y-45250000D01*
X111592500Y-78802500D02*
X115002500Y-78802500D01*
X150670000Y-47900000D02*
X148145000Y-47900000D01*
D97*
X103750000Y-96000000D02*
X103750000Y-97750000D01*
D96*
X109552500Y-102802500D02*
X109500000Y-102750000D01*
X145425000Y-84325000D02*
X145500000Y-84250000D01*
X82470000Y-132030000D02*
X82000000Y-132500000D01*
X125750000Y-152750000D02*
X126250000Y-152750000D01*
X117967500Y-81767500D02*
X120732500Y-81767500D01*
X88962500Y-49000000D02*
X88962500Y-50000000D01*
X86250000Y-30500000D02*
X86100000Y-30500000D01*
X99387500Y-45250000D02*
X99387500Y-46500000D01*
X146000000Y-90750000D02*
X145890204Y-90640203D01*
X68050000Y-40200000D02*
X68000000Y-40250000D01*
X99387500Y-44250000D02*
X99387500Y-45250000D01*
X108250000Y-36250000D02*
X108500000Y-36000000D01*
X146400000Y-49645000D02*
X147250000Y-48795000D01*
X93925000Y-30500000D02*
X95000000Y-30500000D01*
D97*
X138482500Y-123450000D02*
X138482500Y-127700000D01*
D96*
X103470000Y-117745000D02*
X103470000Y-116530000D01*
X82637500Y-78250000D02*
X81250000Y-78250000D01*
X101112500Y-95870000D02*
X101112500Y-95112500D01*
D97*
X105000000Y-48500000D02*
X105000000Y-48593386D01*
X119250000Y-162862500D02*
X118112500Y-162862500D01*
D96*
X112030000Y-117720000D02*
X112250000Y-117500000D01*
D97*
X151000000Y-95750000D02*
X151000000Y-97387500D01*
D96*
X125750000Y-154000000D02*
X125750000Y-152750000D01*
X74822500Y-35625000D02*
X76375000Y-35625000D01*
D97*
X102750000Y-95000000D02*
X103750000Y-96000000D01*
D96*
X100605000Y-118395000D02*
X100500000Y-118500000D01*
X102000000Y-83225000D02*
X101775000Y-83000000D01*
D97*
X150000000Y-95750000D02*
X151000000Y-95750000D01*
D96*
X110720000Y-117720000D02*
X112030000Y-117720000D01*
D97*
X115902500Y-161000000D02*
X115000000Y-161000000D01*
D96*
X108750000Y-117250000D02*
X108000000Y-116500000D01*
X141500000Y-147062500D02*
X141500000Y-148500000D01*
X150670000Y-36650000D02*
X150250000Y-37070000D01*
X95000000Y-30500000D02*
X95000000Y-31950000D01*
X93937500Y-95620000D02*
X94687500Y-95620000D01*
X151000000Y-48230000D02*
X151000000Y-49250000D01*
D97*
X148637500Y-127500000D02*
X146750000Y-127500000D01*
D96*
X88750000Y-66637500D02*
X87612500Y-66637500D01*
X93937500Y-95437500D02*
X93937500Y-95620000D01*
X97062500Y-97620000D02*
X96130000Y-97620000D01*
X87175000Y-30500000D02*
X86250000Y-30500000D01*
X111592500Y-98802500D02*
X109552500Y-98802500D01*
X93750000Y-95250000D02*
X93937500Y-95437500D01*
X117250000Y-142470000D02*
X116280000Y-141500000D01*
D98*
X95000000Y-57500000D02*
X95750000Y-58250000D01*
D96*
X90000000Y-86250000D02*
X90000000Y-87500000D01*
D97*
X126500000Y-41000000D02*
X124750000Y-39250000D01*
D96*
X74822500Y-48927500D02*
X75750000Y-48000000D01*
D97*
X99250000Y-58000000D02*
X99500000Y-57750000D01*
D96*
X138500000Y-80025000D02*
X138500000Y-79000000D01*
X88975000Y-53780000D02*
X88975000Y-50012500D01*
X101112500Y-97370000D02*
X101112500Y-97612500D01*
X95000000Y-30500000D02*
X96750000Y-30500000D01*
D97*
X135000000Y-144275000D02*
X135000000Y-141500000D01*
D96*
X71250000Y-31000000D02*
X70750000Y-30500000D01*
X104500000Y-151712500D02*
X104500000Y-150250000D01*
X104975000Y-72990000D02*
X104975000Y-74250000D01*
X66522500Y-33772500D02*
X66500000Y-33750000D01*
X92657000Y-55750000D02*
X93525000Y-54882000D01*
X104500000Y-150250000D02*
X103750000Y-149500000D01*
X102000000Y-82885000D02*
X101890000Y-82885000D01*
X71250000Y-31387500D02*
X71250000Y-31000000D01*
X88325000Y-50637500D02*
X88962500Y-50000000D01*
X100500000Y-83000000D02*
X99612500Y-83000000D01*
X94250000Y-91757500D02*
X94250000Y-90500000D01*
X150670000Y-36650000D02*
X147645000Y-36650000D01*
X146400000Y-55500000D02*
X146400000Y-49645000D01*
X146075000Y-90825000D02*
X146000000Y-90750000D01*
X86100000Y-28750000D02*
X86100000Y-30500000D01*
X69122500Y-40200000D02*
X68050000Y-40200000D01*
X88962500Y-50000000D02*
X85750000Y-50000000D01*
X150670000Y-47900000D02*
X151000000Y-48230000D01*
X66522500Y-35625000D02*
X66522500Y-33772500D01*
X99750000Y-121757500D02*
X99750000Y-123000000D01*
D97*
X81187500Y-117750000D02*
X79500000Y-117750000D01*
D100*
X151000000Y-92000000D02*
X152000000Y-92000000D01*
D96*
X91575000Y-55325000D02*
X92000000Y-55750000D01*
X83524000Y-132030000D02*
X83875154Y-132030000D01*
X71250000Y-31387500D02*
X73000000Y-31387500D01*
X101530000Y-119977500D02*
X99750000Y-121757500D01*
X138500000Y-84475000D02*
X138500000Y-85750000D01*
X83994000Y-130380000D02*
X83994000Y-130410000D01*
X83364000Y-129750000D02*
X83000000Y-129750000D01*
X87000000Y-32125000D02*
X86275000Y-32125000D01*
X97537500Y-49037500D02*
X97500000Y-49000000D01*
X120732500Y-81767500D02*
X120750000Y-81750000D01*
D100*
X152000000Y-92000000D02*
X154000000Y-90000000D01*
D96*
X104975000Y-72990000D02*
X106112500Y-72990000D01*
X147500000Y-138525000D02*
X146025000Y-138525000D01*
X106112500Y-72990000D02*
X107112500Y-71990000D01*
X101530000Y-118395000D02*
X100605000Y-118395000D01*
D97*
X138482500Y-127700000D02*
X138482500Y-131950000D01*
D96*
X146025000Y-138525000D02*
X146000000Y-138500000D01*
X101112500Y-95870000D02*
X101112500Y-97370000D01*
X83875154Y-132030000D02*
X84714000Y-131191154D01*
D97*
X93750000Y-89750000D02*
X91500000Y-89750000D01*
D96*
X109000000Y-112637500D02*
X110750000Y-112637500D01*
D99*
X158750000Y-74700000D02*
X158750000Y-82500000D01*
D96*
X124500000Y-141682500D02*
X125182500Y-141682500D01*
X93750000Y-94750000D02*
X91500000Y-94750000D01*
X86250000Y-30500000D02*
X84250000Y-30500000D01*
X83994000Y-130410000D02*
X84714000Y-131130000D01*
X96250000Y-95557500D02*
X96250000Y-95250000D01*
X102525000Y-84870000D02*
X102000000Y-84345000D01*
X93525000Y-54882000D02*
X93525000Y-53780000D01*
X87550000Y-30875000D02*
X87175000Y-30500000D01*
D97*
X118112500Y-162862500D02*
X118000000Y-162750000D01*
D96*
X116280000Y-141500000D02*
X115250000Y-141500000D01*
X126600000Y-150200000D02*
X126600000Y-152400000D01*
X107780000Y-119720000D02*
X107000000Y-120500000D01*
X89500000Y-69480822D02*
X89551000Y-69429822D01*
D97*
X140200000Y-123450000D02*
X140250000Y-123500000D01*
D96*
X88500000Y-133537500D02*
X88500000Y-134750000D01*
D97*
X90432690Y-63407834D02*
X91007748Y-62832776D01*
D96*
X147000000Y-55500000D02*
X149000000Y-53500000D01*
X90925000Y-62675000D02*
X91000000Y-62750000D01*
X104675000Y-151887500D02*
X104500000Y-151712500D01*
X157600000Y-123350000D02*
X157750000Y-123500000D01*
X83524000Y-132030000D02*
X82470000Y-132030000D01*
X91575000Y-53780000D02*
X91575000Y-55325000D01*
X146250000Y-142682500D02*
X144932500Y-142682500D01*
D97*
X126500000Y-41250000D02*
X126500000Y-41000000D01*
D96*
X92000000Y-55750000D02*
X92250000Y-55750000D01*
X95787500Y-35000000D02*
X97000000Y-35000000D01*
X153000000Y-139900000D02*
X155600000Y-139900000D01*
X88962500Y-47500000D02*
X88962500Y-49000000D01*
D97*
X105000000Y-48593386D02*
X106625335Y-50218721D01*
D96*
X140275000Y-84475000D02*
X140425000Y-84325000D01*
X101890000Y-82885000D02*
X101775000Y-83000000D01*
D97*
X89182973Y-63407834D02*
X90432690Y-63407834D01*
D96*
X73612500Y-31387500D02*
X74250000Y-30750000D01*
X144932500Y-142682500D02*
X144750000Y-142500000D01*
X158362500Y-145500000D02*
X159750000Y-145500000D01*
X96130000Y-97620000D02*
X96000000Y-97750000D01*
X101112500Y-95112500D02*
X101000000Y-95000000D01*
X97537500Y-50250000D02*
X97537500Y-49037500D01*
X93600000Y-32125000D02*
X94100000Y-32125000D01*
X86100000Y-30500000D02*
X86100000Y-31950000D01*
D97*
X151000000Y-95750000D02*
X152000000Y-95750000D01*
D96*
X147645000Y-36650000D02*
X147250000Y-37045000D01*
D98*
X95750000Y-58250000D02*
X95750000Y-59404000D01*
D96*
X95750000Y-91757500D02*
X94250000Y-91757500D01*
D97*
X138482500Y-123450000D02*
X140200000Y-123450000D01*
D96*
X89500000Y-70325000D02*
X89500000Y-69480822D01*
X84714000Y-131191154D02*
X84714000Y-131130000D01*
X93550000Y-30875000D02*
X93925000Y-30500000D01*
D97*
G04 #@! TO.N,Net-(U7-ISNS-)*
X97025000Y-152025000D02*
X98725000Y-152025000D01*
X97025000Y-152025000D02*
X97000000Y-152000000D01*
X98725000Y-152025000D02*
X98750000Y-152000000D01*
G04 #@! TO.N,Net-(U7-ISNS+)*
X98750000Y-153750000D02*
X100637500Y-153750000D01*
X100637500Y-153750000D02*
X100637500Y-152887500D01*
D96*
G04 #@! TO.N,/5V-PowerCircuit/BOOT*
X85794000Y-133180000D02*
X85794000Y-135256500D01*
X85794000Y-135256500D02*
X86537500Y-136000000D01*
G04 #@! TO.N,Net-(U8-SW)*
X85294000Y-132630000D02*
X84750000Y-133174000D01*
X84750000Y-134250000D02*
X84462500Y-134537500D01*
D97*
X77631000Y-123750000D02*
X76000000Y-125381000D01*
X76000000Y-134500000D02*
X77500000Y-136000000D01*
D96*
X84750000Y-133174000D02*
X84750000Y-134250000D01*
D97*
X76000000Y-125381000D02*
X76000000Y-134500000D01*
D96*
X84462500Y-134537500D02*
X84462500Y-136000000D01*
D97*
X77500000Y-136000000D02*
X84462500Y-136000000D01*
G04 #@! TO.N,Net-(M1-24V1-D)*
X108320000Y-138570000D02*
X108500000Y-138750000D01*
X103500000Y-138570000D02*
X108320000Y-138570000D01*
X110832500Y-147167500D02*
X111750000Y-146250000D01*
X106475000Y-147167500D02*
X110832500Y-147167500D01*
D96*
G04 #@! TO.N,Net-(Dboot-24V1-K)*
X129862500Y-161500000D02*
X132500000Y-158862500D01*
X129150000Y-161500000D02*
X129862500Y-161500000D01*
G04 #@! TO.N,Net-(U6-BOOT1)*
X151600000Y-141440000D02*
X152940000Y-141440000D01*
X151600000Y-141440000D02*
X150560000Y-141440000D01*
X150560000Y-141440000D02*
X150250000Y-141750000D01*
X140025000Y-141250000D02*
X138525000Y-139750000D01*
X148500000Y-143500000D02*
X148000000Y-143500000D01*
X150250000Y-141750000D02*
X148500000Y-143500000D01*
X145250000Y-141250000D02*
X140025000Y-141250000D01*
G04 #@! TO.N,Net-(U6-SW1)*
X153000000Y-140440000D02*
X156059999Y-140440000D01*
X156059999Y-140440000D02*
X159500000Y-136999999D01*
X159500000Y-136999999D02*
X159500000Y-135500000D01*
G04 #@! TO.N,Net-(U6-BOOT2)*
X138500000Y-136000000D02*
X138500000Y-136500000D01*
X148250000Y-136000000D02*
X138500000Y-136000000D01*
X151584000Y-138376000D02*
X149376000Y-138376000D01*
X151600000Y-138360000D02*
X151584000Y-138376000D01*
X149376000Y-138376000D02*
X149000000Y-138000000D01*
X138500000Y-136500000D02*
X138525000Y-136525000D01*
X138525000Y-136525000D02*
X138525000Y-137240000D01*
X149000000Y-138000000D02*
X149000000Y-136750000D01*
X149000000Y-136750000D02*
X148250000Y-136000000D01*
G04 #@! TO.N,Net-(U6-SW2)*
X153000000Y-139360000D02*
X154754642Y-139360000D01*
X159500000Y-130500000D02*
X159500000Y-128500000D01*
X156250000Y-133750000D02*
X159500000Y-130500000D01*
X154754642Y-139360000D02*
X156250000Y-137864642D01*
X156250000Y-137864642D02*
X156250000Y-133750000D01*
D97*
G04 #@! TO.N,Net-(Ccomp-24V1-Pad1)*
X115537500Y-154500000D02*
X118250000Y-154500000D01*
D96*
G04 #@! TO.N,Net-(U6-COMP)*
X153250000Y-137500000D02*
X153250000Y-134067500D01*
X153250000Y-134067500D02*
X152250000Y-133067500D01*
D97*
X149000000Y-133575000D02*
X151742500Y-133575000D01*
G04 #@! TO.N,Net-(Ccomp1-Pad2)*
X150362500Y-127500000D02*
X150362500Y-130137500D01*
X150362500Y-130137500D02*
X149000000Y-131500000D01*
G04 #@! TO.N,/24V-PowerCircuit/COMP*
X122750000Y-154817500D02*
X120292500Y-154817500D01*
D96*
X123750000Y-156250000D02*
X123000000Y-156250000D01*
X124310000Y-155690000D02*
X123750000Y-156250000D01*
X125060000Y-155690000D02*
X124310000Y-155690000D01*
X123000000Y-156250000D02*
X122750000Y-156000000D01*
D97*
X120292500Y-154817500D02*
X119975000Y-154500000D01*
D96*
X122750000Y-156000000D02*
X122750000Y-154817500D01*
G04 #@! TO.N,Net-(U8-FB)*
X83524000Y-131530000D02*
X82030000Y-131530000D01*
D97*
X81612500Y-128750000D02*
X81362500Y-129000000D01*
X84887500Y-128750000D02*
X81612500Y-128750000D01*
X81500000Y-129137500D02*
X81362500Y-129000000D01*
X81500000Y-131000000D02*
X81500000Y-129137500D01*
D96*
X82030000Y-131530000D02*
X81500000Y-131000000D01*
D97*
G04 #@! TO.N,VBAT*
X105750000Y-153787500D02*
X106537500Y-153787500D01*
X107887500Y-153612500D02*
X106500000Y-153612500D01*
X88167500Y-131130000D02*
X88500000Y-131462500D01*
X106537500Y-153787500D02*
X108500000Y-155750000D01*
X102400000Y-153787500D02*
X102362500Y-153750000D01*
X108500000Y-150750000D02*
X108500000Y-153000000D01*
X108500000Y-153000000D02*
X107887500Y-153612500D01*
X104500000Y-153787500D02*
X102400000Y-153787500D01*
X95412500Y-140000000D02*
X95412500Y-144410000D01*
X104500000Y-153787500D02*
X105750000Y-153787500D01*
D96*
X126750000Y-156880000D02*
X126750000Y-158000000D01*
D97*
X88500000Y-131462500D02*
X95412500Y-138375000D01*
X95412500Y-138375000D02*
X95412500Y-140000000D01*
D96*
X126750000Y-158000000D02*
X125000000Y-159750000D01*
D97*
X105750000Y-153787500D02*
X106325000Y-153787500D01*
X106325000Y-153787500D02*
X106500000Y-153612500D01*
X148000000Y-145500000D02*
X151387500Y-145500000D01*
X85874000Y-131130000D02*
X88167500Y-131130000D01*
G04 #@! TO.N,Net-(Cin1-24V1-Pad2)*
X111625000Y-150750000D02*
X113750000Y-150750000D01*
G04 #@! TO.N,Net-(Cin2-24V1-Pad2)*
X116875000Y-150750000D02*
X119312500Y-150750000D01*
G04 #@! TO.N,5VCC*
X82290000Y-113750000D02*
X82290000Y-115727500D01*
D99*
X144387500Y-99637500D02*
X137750000Y-106275000D01*
D97*
X150000000Y-94000000D02*
X149250000Y-93250000D01*
X150000000Y-94025000D02*
X150000000Y-94000000D01*
X78250000Y-130750000D02*
X78125000Y-130875000D01*
X92000000Y-132750000D02*
X92000000Y-124251000D01*
X79250000Y-130750000D02*
X78250000Y-130750000D01*
X72882323Y-110250000D02*
X81000000Y-110250000D01*
D96*
X92225000Y-52000000D02*
X92225000Y-53780000D01*
D97*
X154790000Y-110040000D02*
X154250000Y-109500000D01*
X81500000Y-137750000D02*
X91000000Y-137750000D01*
X82290000Y-115727500D02*
X84312500Y-117750000D01*
X71500000Y-100500000D02*
X69132323Y-102867677D01*
X149250000Y-91516000D02*
X149255000Y-91516000D01*
D96*
X83477766Y-57272234D02*
X81500000Y-59250000D01*
D99*
X137750000Y-106275000D02*
X137750000Y-108250000D01*
X124750000Y-111500000D02*
X111999000Y-124251000D01*
X111999000Y-124251000D02*
X92000000Y-124251000D01*
D96*
X91037500Y-47500000D02*
X91037500Y-46037500D01*
X92225000Y-51187500D02*
X92225000Y-52000000D01*
X91037500Y-50000000D02*
X91037500Y-47500000D01*
X71500000Y-69500000D02*
X71500000Y-81480000D01*
X72000000Y-68750000D02*
X72000000Y-69000000D01*
D99*
X92000000Y-124251000D02*
X89000000Y-124251000D01*
D97*
X87001000Y-124251000D02*
X86500000Y-123750000D01*
X150000000Y-94025000D02*
X152000000Y-94025000D01*
X69132323Y-102867677D02*
X69132323Y-106500000D01*
D96*
X83500000Y-54000000D02*
X83500000Y-55500000D01*
D97*
X91000000Y-137750000D02*
X91466114Y-137283885D01*
X69132323Y-106500000D02*
X72882323Y-110250000D01*
D96*
X92050000Y-29800000D02*
X92050000Y-30875000D01*
X93712500Y-34037500D02*
X91800000Y-32125000D01*
X92050000Y-31875000D02*
X92050000Y-30875000D01*
D97*
X84869000Y-123750000D02*
X84869000Y-118306500D01*
X84869000Y-118306500D02*
X84312500Y-117750000D01*
X77750000Y-131250000D02*
X77750000Y-134000000D01*
X79500000Y-131000000D02*
X79250000Y-130750000D01*
D99*
X137250000Y-111500000D02*
X124750000Y-111500000D01*
D97*
X79500000Y-133162500D02*
X79837500Y-133500000D01*
D96*
X89050000Y-31875000D02*
X89050000Y-30875000D01*
D97*
X77750000Y-134000000D02*
X78750000Y-135000000D01*
X81000000Y-110250000D02*
X82290000Y-111540000D01*
X149250000Y-93250000D02*
X149250000Y-91516000D01*
X78125000Y-130875000D02*
X77750000Y-131250000D01*
D96*
X81500000Y-59250000D02*
X77000000Y-59250000D01*
D97*
X84869000Y-123750000D02*
X86500000Y-123750000D01*
D96*
X74000000Y-62250000D02*
X74000000Y-68750000D01*
D97*
X162250000Y-110040000D02*
X154790000Y-110040000D01*
X71500000Y-90660000D02*
X71500000Y-86070000D01*
D96*
X91037500Y-46037500D02*
X90000000Y-45000000D01*
X77000000Y-59250000D02*
X74500000Y-61750000D01*
X89300000Y-32125000D02*
X89050000Y-31875000D01*
D99*
X150000000Y-94025000D02*
X144387500Y-99637500D01*
D96*
X84500000Y-53000000D02*
X83500000Y-54000000D01*
D97*
X71500000Y-95250000D02*
X71500000Y-90660000D01*
X79500000Y-131000000D02*
X79500000Y-133162500D01*
X78125000Y-130875000D02*
X78000000Y-131000000D01*
X82290000Y-111540000D02*
X82290000Y-113750000D01*
D96*
X91750000Y-29500000D02*
X92050000Y-29800000D01*
X74500000Y-61750000D02*
X74000000Y-62250000D01*
X83946593Y-57272234D02*
X83477766Y-57272234D01*
X91800000Y-32125000D02*
X92050000Y-31875000D01*
D97*
X71500000Y-86070000D02*
X71500000Y-81480000D01*
D96*
X72000000Y-69000000D02*
X71500000Y-69500000D01*
X91037500Y-50000000D02*
X92225000Y-51187500D01*
D97*
X71500000Y-95770000D02*
X71500000Y-100500000D01*
X152500000Y-107750000D02*
X144387500Y-99637500D01*
G04 #@! TO.N,24VCC*
X110250000Y-137500000D02*
X110680000Y-137070000D01*
D99*
X153000000Y-111250000D02*
X154330000Y-112580000D01*
D97*
X110680000Y-137070000D02*
X117250000Y-137070000D01*
X106475000Y-144590000D02*
X106660000Y-144590000D01*
D99*
X158000000Y-42250000D02*
X158000000Y-39250000D01*
X117750000Y-122500000D02*
X127000000Y-113250000D01*
X127000000Y-113250000D02*
X140250000Y-113250000D01*
X160210000Y-44460000D02*
X158000000Y-42250000D01*
X117250000Y-137070000D02*
X117250000Y-133750000D01*
D97*
X110250000Y-141000000D02*
X110250000Y-137500000D01*
D99*
X160210000Y-48250000D02*
X160210000Y-44460000D01*
X156250000Y-71750000D02*
X160500000Y-67500000D01*
D96*
X118362500Y-135957500D02*
X117250000Y-137070000D01*
D99*
X117250000Y-123000000D02*
X117750000Y-122500000D01*
X156250000Y-74700000D02*
X156250000Y-71750000D01*
D96*
X124500000Y-135957500D02*
X118362500Y-135957500D01*
D99*
X160210000Y-67210000D02*
X160210000Y-53750000D01*
X158000000Y-39250000D02*
X158000000Y-33040000D01*
X156250000Y-74700000D02*
X156250000Y-82500000D01*
X156250000Y-90300000D02*
X156250000Y-98100000D01*
X160500000Y-67500000D02*
X160210000Y-67210000D01*
X160210000Y-53750000D02*
X160210000Y-48250000D01*
X154330000Y-112580000D02*
X162250000Y-112580000D01*
X156250000Y-82500000D02*
X156250000Y-90300000D01*
D97*
X106660000Y-144590000D02*
X110250000Y-141000000D01*
X158000000Y-33040000D02*
X157960000Y-33000000D01*
D99*
X117250000Y-133750000D02*
X117250000Y-123000000D01*
D96*
G04 #@! TO.N,V_CR2032*
X92750000Y-78000000D02*
X89750000Y-75000000D01*
X87075000Y-72274000D02*
X87075000Y-72250000D01*
X103385298Y-77500000D02*
X101250000Y-77500000D01*
X108250000Y-72635298D02*
X103385298Y-77500000D01*
X96000000Y-78000000D02*
X92750000Y-78000000D01*
X89750000Y-73750000D02*
X88250000Y-72250000D01*
X108250000Y-69000000D02*
X108250000Y-72635298D01*
X117100000Y-60150000D02*
X108250000Y-69000000D01*
X88250000Y-72250000D02*
X87075000Y-72250000D01*
X89750000Y-75000000D02*
X89750000Y-73750000D01*
X117100000Y-55500000D02*
X117100000Y-60150000D01*
G04 #@! TO.N,Net-(Dboot-24V1-A)*
X130000000Y-158725000D02*
X129125000Y-158725000D01*
X129125000Y-158725000D02*
X126350000Y-161500000D01*
X119612500Y-161500000D02*
X119250000Y-161137500D01*
X117097500Y-161000000D02*
X118350000Y-161000000D01*
X119112500Y-161000000D02*
X119250000Y-161137500D01*
X126350000Y-161500000D02*
X119612500Y-161500000D01*
G04 #@! TO.N,Net-(U6-EXTVCC)*
X151625000Y-137860000D02*
X150610000Y-137860000D01*
X150610000Y-137860000D02*
X150500000Y-137750000D01*
X147500000Y-140250000D02*
X148250000Y-140250000D01*
X150815000Y-142750000D02*
X151625000Y-141940000D01*
X149500000Y-144000000D02*
X150750000Y-142750000D01*
X150750000Y-142750000D02*
X150815000Y-142750000D01*
X148250000Y-140250000D02*
X148966053Y-139533947D01*
G04 #@! TO.N,USBD-*
X91750000Y-46000000D02*
X92000000Y-46000000D01*
X90250000Y-34500000D02*
X90250000Y-36750000D01*
X94825000Y-52675000D02*
X95250000Y-52250000D01*
X90300000Y-31625000D02*
X90300000Y-32125000D01*
X90124000Y-32740702D02*
X90124000Y-34374000D01*
X94825000Y-53780000D02*
X94825000Y-52675000D01*
X90300000Y-32564702D02*
X90124000Y-32740702D01*
X90750000Y-38500000D02*
X90750000Y-45000000D01*
X90124000Y-34374000D02*
X90250000Y-34500000D01*
X90300000Y-32125000D02*
X90300000Y-32564702D01*
X90750000Y-45000000D02*
X91750000Y-46000000D01*
X91050000Y-30875000D02*
X90300000Y-31625000D01*
G04 #@! TO.N,USBD+*
X90050000Y-30875000D02*
X90050000Y-30575000D01*
X90800000Y-32950000D02*
X90750000Y-33000000D01*
X90750000Y-33000000D02*
X90750000Y-35000000D01*
X90750000Y-35000000D02*
X92799000Y-37049000D01*
X90050000Y-30575000D02*
X90500000Y-30125000D01*
X96376000Y-52879000D02*
X95475000Y-53780000D01*
X96376000Y-38738190D02*
X96376000Y-52879000D01*
X94686810Y-37049000D02*
X96376000Y-38738190D01*
X92799000Y-37049000D02*
X94686810Y-37049000D01*
X90800000Y-32125000D02*
X90800000Y-32950000D01*
G04 #@! TO.N,AIN3*
X150225000Y-86275000D02*
X151771093Y-84728907D01*
X151771093Y-84728907D02*
X151771093Y-81482000D01*
X149255000Y-86275000D02*
X150225000Y-86275000D01*
G04 #@! TO.N,AIN2*
X149255000Y-86925000D02*
X152575000Y-86925000D01*
X152575000Y-86925000D02*
X153000000Y-86500000D01*
G04 #@! TO.N,AIN1*
X149255000Y-87575000D02*
X152575000Y-87575000D01*
X152575000Y-87575000D02*
X152750000Y-87750000D01*
G04 #@! TO.N,AIN0*
X150975000Y-88225000D02*
X152000000Y-89250000D01*
X149255000Y-88225000D02*
X150975000Y-88225000D01*
D97*
G04 #@! TO.N,Net-(J7-In)*
X121800000Y-45050000D02*
X117750000Y-45050000D01*
D98*
X114540000Y-29290000D02*
X122000000Y-36750000D01*
D97*
X122000000Y-44850000D02*
X122000000Y-36750000D01*
X122000000Y-44850000D02*
X121800000Y-45050000D01*
D98*
X111460000Y-29290000D02*
X114540000Y-29290000D01*
D96*
G04 #@! TO.N,uSD_D3*
X92787216Y-59377838D02*
X92787216Y-58037216D01*
X74600000Y-44600000D02*
X74750000Y-44750000D01*
X95000000Y-67885298D02*
X95250000Y-67635298D01*
X95250000Y-67635298D02*
X95250000Y-67000000D01*
X95000000Y-70325000D02*
X95000000Y-67885298D01*
X69122500Y-44600000D02*
X74600000Y-44600000D01*
X92787216Y-58037216D02*
X92562802Y-57812801D01*
G04 #@! TO.N,uSD_CMD*
X94000000Y-68500000D02*
X93750000Y-68250000D01*
X91250000Y-57750000D02*
X91250000Y-59500000D01*
X69122500Y-43500000D02*
X70500000Y-43500000D01*
X94000000Y-70325000D02*
X94000000Y-68500000D01*
G04 #@! TO.N,uSD_CLK*
X91783956Y-65060659D02*
X91473297Y-64750000D01*
X91473297Y-64750000D02*
X86500000Y-64750000D01*
X72185298Y-41300000D02*
X69122500Y-41300000D01*
X80000000Y-49114702D02*
X72185298Y-41300000D01*
X94500000Y-67500000D02*
X93500000Y-66500000D01*
X94500000Y-70325000D02*
X94500000Y-67500000D01*
X80000000Y-54250000D02*
X80000000Y-49114702D01*
G04 #@! TO.N,uSD_D1*
X97250000Y-76250000D02*
X96000000Y-75000000D01*
X96000000Y-75000000D02*
X96000000Y-72750000D01*
X98000000Y-70750000D02*
X96000000Y-72750000D01*
X98000000Y-58000000D02*
X98000000Y-70750000D01*
X97250000Y-76250000D02*
X98425000Y-76250000D01*
X82000000Y-38000000D02*
X86500000Y-42500000D01*
X69122500Y-38000000D02*
X82000000Y-38000000D01*
G04 #@! TO.N,uSD_D2*
X95250000Y-65750000D02*
X96000000Y-66500000D01*
X85500000Y-65750000D02*
X95250000Y-65750000D01*
X95500000Y-70325000D02*
X95500000Y-68023108D01*
X95500000Y-68023108D02*
X96000000Y-67523108D01*
X69122500Y-45700000D02*
X69122500Y-46048500D01*
X69122500Y-46048500D02*
X78324000Y-55250000D01*
X96000000Y-67523108D02*
X96000000Y-66500000D01*
X78324000Y-55250000D02*
X80000000Y-55250000D01*
G04 #@! TO.N,Net-(J9-Pin_2)*
X160500000Y-32000000D02*
X160500000Y-33000000D01*
D97*
X155000000Y-30750000D02*
X159250000Y-30750000D01*
X153330000Y-32420000D02*
X155000000Y-30750000D01*
X159250000Y-30750000D02*
X160500000Y-32000000D01*
D98*
X160500000Y-39250000D02*
X160500000Y-33000000D01*
D97*
X153330000Y-36000000D02*
X153330000Y-32420000D01*
D98*
G04 #@! TO.N,Net-(J10-In)*
X128460000Y-28960000D02*
X128460000Y-71210000D01*
X132022500Y-74772500D02*
X134052500Y-74772500D01*
X128460000Y-71210000D02*
X132022500Y-74772500D01*
D96*
X134052500Y-74772500D02*
X133483252Y-74772500D01*
D98*
G04 #@! TO.N,Net-(J11-Pin_2)*
X157670000Y-48290000D02*
X157710000Y-48250000D01*
D97*
X156710000Y-47250000D02*
X157710000Y-48250000D01*
D98*
X157670000Y-53750000D02*
X157670000Y-48290000D01*
D97*
X153330000Y-47250000D02*
X156710000Y-47250000D01*
G04 #@! TO.N,Net-(L1-24V1-Pad1)*
X97087500Y-150187500D02*
X97000000Y-150275000D01*
X103500000Y-133750000D02*
X100000000Y-133750000D01*
X97087500Y-140000000D02*
X97087500Y-144410000D01*
X100000000Y-133750000D02*
X97087500Y-136662500D01*
X97087500Y-136662500D02*
X97087500Y-140000000D01*
X97087500Y-144410000D02*
X97087500Y-150187500D01*
D96*
G04 #@! TO.N,Net-(M1-24V1-G)*
X125950000Y-150200000D02*
X125950000Y-151300000D01*
X125950000Y-151300000D02*
X125875000Y-151375000D01*
X127250000Y-156880000D02*
X127620000Y-157250000D01*
X127620000Y-157250000D02*
X128000000Y-157250000D01*
G04 #@! TO.N,Net-(M2-24V1-G)*
X127250000Y-154000000D02*
X127250000Y-153750000D01*
D97*
X106475000Y-145910000D02*
X109090000Y-145910000D01*
D96*
X127250000Y-153750000D02*
X128500000Y-152500000D01*
D97*
X109090000Y-145910000D02*
X109250000Y-145750000D01*
X109250000Y-145750000D02*
X109501000Y-145499000D01*
X109501000Y-145499000D02*
X127499000Y-145499000D01*
D96*
G04 #@! TO.N,Net-(U2-BOOTN)*
X95250000Y-95557500D02*
X95250000Y-96250000D01*
G04 #@! TO.N,I2C2_SCL*
X95000000Y-80250000D02*
X94250000Y-79500000D01*
X95000000Y-83757500D02*
X95000000Y-81675000D01*
X111683058Y-44816942D02*
X111683058Y-42566942D01*
X94000000Y-84757500D02*
X92507500Y-84757500D01*
X115800000Y-38450000D02*
X117750000Y-38450000D01*
X103470000Y-119695000D02*
X102695000Y-119695000D01*
X106603000Y-119695000D02*
X107078000Y-119220000D01*
X111500000Y-45000000D02*
X111683058Y-44816942D01*
X96250000Y-99500000D02*
X96250000Y-100182500D01*
X111683058Y-42566942D02*
X115800000Y-38450000D01*
X102250000Y-69250000D02*
X111500000Y-60000000D01*
X92507500Y-84757500D02*
X92375000Y-84625000D01*
X103470000Y-119695000D02*
X106603000Y-119695000D01*
X111500000Y-60000000D02*
X111500000Y-45000000D01*
X107078000Y-119220000D02*
X107780000Y-119220000D01*
X95000000Y-81675000D02*
X95000000Y-80250000D01*
X95750000Y-99000000D02*
X96250000Y-99500000D01*
X94000000Y-84757500D02*
X95000000Y-83757500D01*
G04 #@! TO.N,I2C2_SDA*
X117750000Y-39550000D02*
X115800000Y-39550000D01*
X99257500Y-84757500D02*
X95750000Y-84757500D01*
X104880000Y-100120000D02*
X105000000Y-100000000D01*
X105000000Y-87500000D02*
X104750000Y-87250000D01*
X104455000Y-119045000D02*
X105000000Y-118500000D01*
X103500000Y-87250000D02*
X102500000Y-86250000D01*
X102500000Y-86250000D02*
X100750000Y-86250000D01*
X103500000Y-87250000D02*
X103500000Y-86750000D01*
X100750000Y-86250000D02*
X99257500Y-84757500D01*
X95500000Y-81675000D02*
X95500000Y-84507500D01*
X97062500Y-100120000D02*
X104880000Y-100120000D01*
X104750000Y-87250000D02*
X103500000Y-87250000D01*
X108750000Y-120190000D02*
X108750000Y-118750000D01*
X105000000Y-105750000D02*
X105000000Y-100000000D01*
X105000000Y-100000000D02*
X105000000Y-87500000D01*
X115800000Y-39550000D02*
X115750000Y-39500000D01*
X103470000Y-119045000D02*
X104455000Y-119045000D01*
X95500000Y-84507500D02*
X95750000Y-84757500D01*
X105000000Y-105750000D02*
X97330000Y-105750000D01*
X105000000Y-118500000D02*
X105000000Y-105750000D01*
G04 #@! TO.N,Net-(U7-VCC)*
X128690000Y-155690000D02*
X130000000Y-157000000D01*
X127940000Y-155690000D02*
X128690000Y-155690000D01*
G04 #@! TO.N,Net-(U6-EN{slash}UVLO)*
X153112500Y-145500000D02*
X156637500Y-145500000D01*
X152250000Y-144637500D02*
X153112500Y-145500000D01*
X152250000Y-142300000D02*
X152250000Y-144637500D01*
G04 #@! TO.N,/24V-PowerCircuit/FB*
X124500000Y-137682500D02*
X129500000Y-142682500D01*
X129500000Y-142682500D02*
X129500000Y-154000000D01*
X123000000Y-158250000D02*
X125060000Y-156190000D01*
G04 #@! TO.N,Net-(U8-PG)*
X83524000Y-132530000D02*
X82554000Y-133500000D01*
X82554000Y-133500000D02*
X81662500Y-133500000D01*
G04 #@! TO.N,Net-(U7-RT{slash}CLK)*
X122250000Y-142207500D02*
X122250000Y-144000000D01*
X124500000Y-139957500D02*
X122250000Y-142207500D01*
G04 #@! TO.N,Net-(U6-FSW)*
X154400000Y-141440000D02*
X157055000Y-141440000D01*
X157055000Y-141440000D02*
X158115000Y-142500000D01*
G04 #@! TO.N,BOOT0*
X101750000Y-61580000D02*
X99080000Y-64250000D01*
X99080000Y-64250000D02*
X98750000Y-64250000D01*
X91000000Y-70325000D02*
X91000000Y-69000000D01*
X81770000Y-63520000D02*
X81790000Y-63500000D01*
X86500000Y-67500000D02*
X85750000Y-67500000D01*
X85750000Y-67500000D02*
X81770000Y-63520000D01*
X81790000Y-63500000D02*
X84387500Y-63500000D01*
G04 #@! TO.N,NRST*
X77500000Y-70040000D02*
X77637500Y-70177500D01*
X77637500Y-70177500D02*
X77637500Y-72750000D01*
D97*
G04 #@! TO.N,Net-(USB_rx_LED1-K)*
X92975000Y-39500000D02*
X92975000Y-41725000D01*
X92975000Y-41725000D02*
X93000000Y-41750000D01*
D96*
G04 #@! TO.N,Net-(U10-CBUS1)*
X93000000Y-43750000D02*
X93000000Y-49750000D01*
X93000000Y-49750000D02*
X92750000Y-50000000D01*
X91000000Y-52580000D02*
X90925000Y-52655000D01*
X90925000Y-52655000D02*
X90925000Y-53780000D01*
X91000000Y-51750000D02*
X91000000Y-52580000D01*
D97*
G04 #@! TO.N,Net-(USB_tx_LED1-K)*
X89000000Y-39025000D02*
X89025000Y-39000000D01*
X89000000Y-41500000D02*
X89000000Y-39025000D01*
D96*
G04 #@! TO.N,Net-(U10-CBUS0)*
X90275000Y-52525000D02*
X89750000Y-52000000D01*
X89750000Y-45750000D02*
X89000000Y-45000000D01*
X89750000Y-46250000D02*
X89750000Y-45750000D01*
X89000000Y-45000000D02*
X89000000Y-43500000D01*
X90275000Y-53780000D02*
X90275000Y-52525000D01*
G04 #@! TO.N,Sol1_Sig*
X106250000Y-60500000D02*
X110750000Y-56000000D01*
X101500000Y-63000000D02*
X102750000Y-63000000D01*
X150670000Y-35350000D02*
X148095000Y-35350000D01*
X87075000Y-75750000D02*
X89500000Y-75750000D01*
X148095000Y-35350000D02*
X147250000Y-34505000D01*
X89500000Y-75750000D02*
X90250000Y-76500000D01*
X110750000Y-56000000D02*
X110750000Y-49500000D01*
X102750000Y-63000000D02*
X103500000Y-62250000D01*
X103500000Y-62250000D02*
X103750000Y-62250000D01*
X99000000Y-65500000D02*
X101500000Y-63000000D01*
X131250000Y-34505000D02*
X147250000Y-34505000D01*
G04 #@! TO.N,Sol2_Sig*
X121250000Y-46250000D02*
X121750000Y-46250000D01*
X90364702Y-77500000D02*
X90500000Y-77500000D01*
X89114702Y-76250000D02*
X90364702Y-77500000D01*
X102500000Y-63500000D02*
X103750000Y-63500000D01*
X99750000Y-66250000D02*
X102500000Y-63500000D01*
X147250000Y-46255000D02*
X137505000Y-46255000D01*
X87075000Y-76250000D02*
X89114702Y-76250000D01*
X150670000Y-46600000D02*
X147595000Y-46600000D01*
X106250000Y-61750000D02*
X110750000Y-57250000D01*
X147595000Y-46600000D02*
X147250000Y-46255000D01*
X121245000Y-46255000D02*
X121250000Y-46250000D01*
X112250000Y-55250000D02*
X121245000Y-46255000D01*
X112250000Y-56750000D02*
X112250000Y-55250000D01*
G04 #@! TO.N,SRV2*
X91500000Y-70325000D02*
X91500000Y-74250000D01*
X91500000Y-74250000D02*
X91250000Y-74500000D01*
G04 #@! TO.N,SRV1*
X92000000Y-70325000D02*
X92000000Y-71500000D01*
X92000000Y-71500000D02*
X92250000Y-71750000D01*
G04 #@! TO.N,SRV3*
X90500000Y-70325000D02*
X90500000Y-72250000D01*
G04 #@! TO.N,SRV4*
X90000000Y-71250000D02*
X89500000Y-71750000D01*
X90000000Y-70325000D02*
X90000000Y-71250000D01*
G04 #@! TO.N,STM_USB_TX*
X104500000Y-63750000D02*
X104500000Y-61790000D01*
X101250000Y-71579934D02*
X101250000Y-67000000D01*
X104500000Y-61790000D02*
X101750000Y-59040000D01*
X99750000Y-74750000D02*
X100750000Y-73750000D01*
X101250000Y-67000000D02*
X104500000Y-63750000D01*
X98425000Y-74750000D02*
X99750000Y-74750000D01*
X87025000Y-60980000D02*
X87025000Y-59275000D01*
G04 #@! TO.N,STM_USB_RX*
X104750000Y-75250000D02*
X98425000Y-75250000D01*
X89625000Y-58125000D02*
X89625000Y-60980000D01*
X101750000Y-56500000D02*
X91250000Y-56500000D01*
X105250000Y-60000000D02*
X105250000Y-65250000D01*
X91250000Y-56500000D02*
X89625000Y-58125000D01*
X101750000Y-56500000D02*
X105250000Y-60000000D01*
G04 #@! TO.N,Net-(U1-VCAP_1)*
X96000000Y-80000000D02*
X96000000Y-81675000D01*
X95750000Y-79750000D02*
X96000000Y-80000000D01*
X95750000Y-79750000D02*
X95500000Y-79750000D01*
X103250000Y-72740000D02*
X101010000Y-72740000D01*
X101010000Y-72740000D02*
X101000000Y-72750000D01*
X103250000Y-72740000D02*
X103250000Y-74250000D01*
X103250000Y-74250000D02*
X102000000Y-74250000D01*
X103250000Y-71740000D02*
X103250000Y-72740000D01*
X101000000Y-72750000D02*
X98425000Y-72750000D01*
X102000000Y-74250000D02*
X101750000Y-74500000D01*
G04 #@! TO.N,FT232_DTR*
X87530000Y-62250000D02*
X87675000Y-62105000D01*
X80500000Y-62250000D02*
X87530000Y-62250000D01*
X87675000Y-62105000D02*
X87675000Y-60980000D01*
G04 #@! TO.N,FT232_RTS*
X88325000Y-60980000D02*
X88325000Y-59825000D01*
X88325000Y-59825000D02*
X88000000Y-59500000D01*
G04 #@! TO.N,XBee_DIN*
X109250000Y-85000000D02*
X109447500Y-84802500D01*
X87075000Y-85250000D02*
X87075000Y-85380163D01*
X109447500Y-84802500D02*
X111592500Y-84802500D01*
X87075000Y-85250000D02*
X87075000Y-85825000D01*
X90000000Y-88750000D02*
X95250000Y-88750000D01*
X89750000Y-88500000D02*
X90000000Y-88750000D01*
D100*
X113447500Y-84802500D02*
X111592500Y-84802500D01*
X115250000Y-83250000D02*
X115000000Y-83500000D01*
D96*
X106500000Y-90000000D02*
X108750000Y-87750000D01*
X95250000Y-88750000D02*
X96750000Y-90250000D01*
D100*
X115000000Y-83500000D02*
X114750000Y-83500000D01*
X114750000Y-83500000D02*
X113447500Y-84802500D01*
D96*
X108750000Y-87750000D02*
X108750000Y-85000000D01*
X87075000Y-79750000D02*
X87075000Y-85250000D01*
X87075000Y-85825000D02*
X89750000Y-88500000D01*
X108750000Y-85000000D02*
X109250000Y-85000000D01*
X96750000Y-90250000D02*
X103750000Y-90250000D01*
G04 #@! TO.N,uSD_D0*
X66000000Y-39000000D02*
X66000000Y-45750000D01*
X90500000Y-74635298D02*
X90500000Y-73750000D01*
X72750000Y-71750000D02*
X72750000Y-55250000D01*
X90500000Y-73750000D02*
X87500000Y-70750000D01*
X81250000Y-75250000D02*
X76250000Y-75250000D01*
X98425000Y-76750000D02*
X92614702Y-76750000D01*
X67850000Y-39100000D02*
X67750000Y-39000000D01*
X87500000Y-70750000D02*
X85750000Y-70750000D01*
X76250000Y-75250000D02*
X72750000Y-71750000D01*
X92614702Y-76750000D02*
X90500000Y-74635298D01*
X85750000Y-70750000D02*
X83750000Y-72750000D01*
X69122500Y-39100000D02*
X67850000Y-39100000D01*
G04 #@! TO.N,XBee_CTS*
X90000000Y-103750000D02*
X85750000Y-99500000D01*
X85250000Y-80230822D02*
X85250000Y-80750000D01*
X134052500Y-96772500D02*
X119022500Y-96772500D01*
X85750000Y-99500000D02*
X85500000Y-99500000D01*
X87075000Y-79250000D02*
X86230822Y-79250000D01*
X85500000Y-81000000D02*
X85250000Y-80750000D01*
X85500000Y-99500000D02*
X85500000Y-94750000D01*
X85500000Y-91750000D02*
X85500000Y-81000000D01*
X86230822Y-79250000D02*
X85250000Y-80230822D01*
X102500000Y-102000000D02*
X100750000Y-103750000D01*
X100750000Y-103750000D02*
X90000000Y-103750000D01*
X123250000Y-68170000D02*
X122080000Y-67000000D01*
X119022500Y-96772500D02*
X114500000Y-92250000D01*
X123250000Y-87750000D02*
X123250000Y-68170000D01*
G04 #@! TO.N,SPI1_MOSI*
X92000000Y-81675000D02*
X92000000Y-80637810D01*
X138500000Y-88250000D02*
X139750000Y-88250000D01*
X139750000Y-88250000D02*
X139775000Y-88225000D01*
X92000000Y-80637810D02*
X92500000Y-80137810D01*
X136500000Y-86250000D02*
X138500000Y-88250000D01*
X136500000Y-85250000D02*
X136500000Y-86250000D01*
X140630000Y-75120000D02*
X140630000Y-73750000D01*
X136500000Y-85250000D02*
X136500000Y-79250000D01*
X92500000Y-80137810D02*
X92500000Y-79750000D01*
X139775000Y-88225000D02*
X142245000Y-88225000D01*
X136500000Y-79250000D02*
X140630000Y-75120000D01*
G04 #@! TO.N,SPI1_SCK*
X93500000Y-87750000D02*
X91000000Y-85250000D01*
X144125000Y-88875000D02*
X147500000Y-85500000D01*
X147500000Y-82750000D02*
X145710000Y-80960000D01*
X103000000Y-88750000D02*
X102000000Y-87750000D01*
X147500000Y-85500000D02*
X147500000Y-82750000D01*
X102000000Y-87750000D02*
X93500000Y-87750000D01*
X142245000Y-88875000D02*
X139875000Y-88875000D01*
X145710000Y-80960000D02*
X145710000Y-73750000D01*
X139875000Y-88875000D02*
X139500000Y-89250000D01*
X114750000Y-88500000D02*
X114580427Y-88330427D01*
X130500000Y-88500000D02*
X114750000Y-88500000D01*
X91000000Y-81675000D02*
X91000000Y-79750000D01*
X142245000Y-88875000D02*
X144125000Y-88875000D01*
G04 #@! TO.N,SPI1_MISO*
X146750000Y-85000000D02*
X146750000Y-83750000D01*
X144000000Y-87500000D02*
X144250000Y-87500000D01*
X143925000Y-87575000D02*
X144000000Y-87500000D01*
X138750000Y-86750000D02*
X139575000Y-87575000D01*
X142245000Y-87575000D02*
X143925000Y-87575000D01*
X144250000Y-87500000D02*
X146750000Y-85000000D01*
X102750000Y-83750000D02*
X104250000Y-83750000D01*
X91715544Y-80284456D02*
X91625000Y-80375000D01*
X143170000Y-80170000D02*
X143170000Y-73750000D01*
X91715544Y-80284456D02*
X91500000Y-80500000D01*
X91500000Y-80500000D02*
X91500000Y-81675000D01*
X139575000Y-87575000D02*
X142245000Y-87575000D01*
X91715544Y-79392228D02*
X91715544Y-80284456D01*
X146750000Y-83750000D02*
X143170000Y-80170000D01*
D100*
G04 #@! TO.N,XBee_RTS*
X125500000Y-67880000D02*
X125500000Y-81750000D01*
D96*
X95250000Y-102500000D02*
X97250000Y-102500000D01*
X115957450Y-89542550D02*
X114750000Y-90750000D01*
D100*
X132522500Y-88772500D02*
X134052500Y-88772500D01*
D96*
X134052500Y-88772500D02*
X133282450Y-89542550D01*
X133282450Y-89542550D02*
X115957450Y-89542550D01*
X86000000Y-78750000D02*
X84500000Y-80250000D01*
X84500000Y-80250000D02*
X84500000Y-91750000D01*
D100*
X125500000Y-81750000D02*
X132522500Y-88772500D01*
D96*
X84500000Y-91750000D02*
X95250000Y-102500000D01*
D100*
X124620000Y-67000000D02*
X125500000Y-67880000D01*
D96*
X87075000Y-78750000D02*
X86000000Y-78750000D01*
X97250000Y-102500000D02*
X98500000Y-101250000D01*
G04 #@! TO.N,SPI1_NSS{slash}CS*
X141052452Y-86500000D02*
X141277452Y-86275000D01*
X148250000Y-78500000D02*
X148250000Y-73750000D01*
X141277452Y-86275000D02*
X142245000Y-86275000D01*
X90500000Y-81675000D02*
X90500000Y-83000000D01*
X140250000Y-86500000D02*
X141052452Y-86500000D01*
X146500000Y-80250000D02*
X148250000Y-78500000D01*
X90500000Y-83000000D02*
X91250000Y-83750000D01*
X91250000Y-83750000D02*
X91500000Y-83750000D01*
G04 #@! TO.N,XBee_DOUT*
X90080822Y-79169178D02*
X90750000Y-78500000D01*
X89000000Y-80830822D02*
X90080822Y-79750000D01*
X89000000Y-81675000D02*
X89000000Y-80830822D01*
X111592500Y-82802500D02*
X108052500Y-82802500D01*
X119540000Y-73210000D02*
X119540000Y-67000000D01*
X97500000Y-80750000D02*
X104250000Y-80750000D01*
X114250000Y-82250000D02*
X114250000Y-79500000D01*
X90080822Y-79750000D02*
X90080822Y-79169178D01*
X104250000Y-80750000D02*
X104750000Y-80250000D01*
X95250000Y-78500000D02*
X97500000Y-80750000D01*
X113697500Y-82802500D02*
X114250000Y-82250000D01*
X116000000Y-76750000D02*
X119540000Y-73210000D01*
X108052500Y-82802500D02*
X107000000Y-81750000D01*
X111592500Y-82802500D02*
X113697500Y-82802500D01*
X107000000Y-81750000D02*
X107000000Y-81500000D01*
X90750000Y-78500000D02*
X95250000Y-78500000D01*
D97*
G04 #@! TO.N,0*
X150500000Y-118750000D02*
X150750000Y-118500000D01*
X148037500Y-118750000D02*
X150500000Y-118750000D01*
D96*
X134052500Y-102772500D02*
X136477500Y-102772500D01*
X136477500Y-102772500D02*
X136750000Y-102500000D01*
X101000000Y-82500000D02*
X101000000Y-82250000D01*
X100500000Y-83000000D02*
X101000000Y-82500000D01*
G04 #@! TD*
M02*
