M48
; DRILL file {KiCad 9.0.3} date 2026-01-14T23:43:24-0700
; FORMAT={-:-/ absolute / metric / decimal}
; #@! TF.CreationDate,2026-01-14T23:43:24-07:00
; #@! TF.GenerationSoftware,Kicad,Pcbnew,9.0.3
; #@! TF.FileFunction,MixedPlating,1,2
FMAT,2
METRIC
; #@! TA.AperFunction,Plated,PTH,ViaDrill
T1C0.300
; #@! TA.AperFunction,Plated,PTH,ComponentDrill
T2C0.500
; #@! TA.AperFunction,Plated,PTH,ComponentDrill
T3C0.700
; #@! TA.AperFunction,Plated,PTH,ComponentDrill
T4C0.750
; #@! TA.AperFunction,Plated,PTH,ComponentDrill
T5C0.800
; #@! TA.AperFunction,Plated,PTH,ComponentDrill
T6C0.950
; #@! TA.AperFunction,Plated,PTH,ComponentDrill
T7C1.000
; #@! TA.AperFunction,Plated,PTH,ComponentDrill
T8C1.100
; #@! TA.AperFunction,Plated,PTH,ComponentDrill
T9C1.500
; #@! TA.AperFunction,Plated,PTH,ComponentDrill
T10C1.700
; #@! TA.AperFunction,Plated,PTH,ComponentDrill
T11C4.500
; #@! TA.AperFunction,NonPlated,NPTH,ComponentDrill
T12C1.200
%
G90
G05
T1
X65.89Y-48.193
X66.0Y-39.0
X66.0Y-45.75
X66.5Y-33.75
X67.75Y-39.0
X68.0Y-40.25
X70.5Y-43.5
X70.75Y-30.5
X72.0Y-68.75
X72.75Y-51.5
X72.75Y-55.25
X74.0Y-68.75
X74.25Y-30.75
X74.75Y-44.75
X75.75Y-48.0
X77.0Y-36.25
X77.75Y-128.5
X78.0Y-27.0
X78.0Y-31.0
X78.75Y-135.0
X79.5Y-117.75
X80.0Y-54.25
X80.0Y-55.25
X81.25Y-75.25
X81.25Y-78.25
X81.5Y-137.75
X82.0Y-132.5
X83.0Y-75.0
X83.0Y-129.75
X83.25Y-67.75
X83.5Y-55.5
X83.5Y-87.2
X83.75Y-72.75
X83.947Y-57.272
X84.25Y-30.5
X84.5Y-53.0
X84.5Y-65.25
X84.75Y-43.25
X85.0Y-74.5
X85.5Y-65.75
X85.5Y-91.75
X85.5Y-94.75
X85.75Y-50.0
X86.5Y-64.75
X86.5Y-67.5
X86.635Y-42.519
X87.0Y-47.0
X87.0Y-59.25
X87.507Y-48.95
X87.612Y-66.638
X87.65Y-83.55
X88.0Y-59.5
X88.496Y-134.821
X88.5Y-29.5
X88.55Y-78.7
X88.625Y-84.725
X89.0Y-35.0
X89.183Y-63.408
X89.5Y-71.75
X89.75Y-46.25
X89.75Y-52.0
X90.0Y-45.0
X90.032Y-87.452
X90.25Y-36.75
X90.25Y-76.5
X90.5Y-30.125
X90.5Y-72.25
X90.5Y-77.5
X90.75Y-33.0
X90.75Y-38.5
X91.0Y-51.75
X91.0Y-79.75
X91.0Y-85.25
X91.006Y-68.916
X91.008Y-62.833
X91.25Y-57.75
X91.25Y-59.5
X91.25Y-74.5
X91.466Y-137.284
X91.5Y-83.75
X91.5Y-89.75
X91.5Y-94.75
X91.716Y-79.392
X91.75Y-29.5
X91.784Y-65.061
X92.0Y-34.0
X92.0Y-46.0
X92.0Y-132.75
X92.225Y-52.0
X92.25Y-55.75
X92.25Y-71.75
X92.375Y-84.625
X92.5Y-79.75
X92.563Y-57.813
X92.75Y-50.0
X92.787Y-59.378
X93.25Y-52.25
X93.5Y-66.5
X93.65Y-63.13
X93.75Y-68.25
X93.75Y-89.75
X93.75Y-94.75
X94.25Y-79.5
X94.25Y-90.5
X95.0Y-57.5
X95.25Y-52.25
X95.25Y-67.0
X95.25Y-96.25
X95.462Y-42.4
X95.5Y-79.75
X95.75Y-59.5
X95.75Y-99.0
X96.0Y-66.5
X96.0Y-78.0
X96.0Y-97.75
X96.05Y-36.725
X96.5Y-157.0
X96.75Y-30.5
X96.75Y-94.75
X96.85Y-73.2
X97.0Y-64.25
X97.061Y-34.968
X97.4Y-42.425
X97.517Y-48.929
X97.75Y-45.25
X97.75Y-84.0
X97.75Y-85.5
X98.0Y-58.0
X98.5Y-101.25
X98.75Y-64.25
X98.75Y-152.0
X99.0Y-65.5
X99.25Y-59.75
X99.5Y-57.75
X99.75Y-66.25
X99.75Y-114.25
X99.75Y-123.0
X100.0Y-67.25
X100.117Y-159.75
X100.605Y-118.395
X100.637Y-152.887
X100.75Y-73.75
X101.0Y-82.25
X101.0Y-84.5
X101.0Y-95.0
X101.0Y-120.5
X101.25Y-71.58
X101.25Y-77.5
X101.25Y-79.75
X101.75Y-74.5
X102.25Y-69.25
X102.25Y-98.75
X102.35Y-79.4
X102.5Y-102.0
X102.695Y-119.695
X102.75Y-83.75
X102.75Y-95.0
X103.0Y-88.75
X103.5Y-86.75
X103.5Y-116.5
X103.75Y-62.25
X103.75Y-63.5
X103.75Y-97.75
X103.75Y-112.75
X103.75Y-149.5
X103.823Y-90.288
X104.228Y-118.258
X104.25Y-83.75
X104.5Y-79.25
X104.75Y-75.25
X104.75Y-80.25
X105.0Y-48.5
X105.0Y-118.5
X105.15Y-77.675
X105.25Y-65.25
X105.625Y-117.125
X106.0Y-92.0
X106.0Y-112.75
X106.25Y-60.5
X106.25Y-61.75
X106.5Y-90.0
X106.625Y-50.219
X107.0Y-81.5
X107.0Y-120.5
X107.112Y-71.99
X107.5Y-77.5
X108.0Y-116.5
X108.5Y-36.0
X108.5Y-138.75
X108.5Y-155.75
X108.75Y-118.75
X108.875Y-76.75
X108.875Y-78.3
X109.5Y-98.75
X109.5Y-102.75
X110.5Y-111.0
X110.75Y-49.5
X110.75Y-57.25
X111.325Y-154.45
X111.5Y-45.0
X111.75Y-146.25
X112.25Y-56.75
X112.25Y-117.5
X113.75Y-156.425
X114.25Y-77.5
X114.25Y-79.5
X114.35Y-75.075
X114.452Y-88.204
X114.5Y-92.25
X114.75Y-90.75
X115.0Y-161.0
X115.25Y-78.0
X115.25Y-83.25
X115.25Y-141.5
X115.75Y-39.5
X116.0Y-76.75
X117.963Y-162.724
X118.0Y-158.25
X119.171Y-74.989
X119.5Y-152.5
X120.081Y-46.32
X120.75Y-44.0
X120.75Y-81.75
X121.625Y-156.625
X121.75Y-46.25
X122.175Y-75.0
X122.25Y-144.0
X123.25Y-87.75
X123.75Y-157.5
X124.0Y-154.0
X124.3Y-149.2
X124.75Y-39.25
X125.0Y-153.5
X125.0Y-159.75
X125.75Y-142.25
X125.875Y-151.375
X126.2Y-74.975
X126.25Y-152.75
X126.5Y-41.25
X127.5Y-145.5
X128.0Y-157.25
X128.5Y-152.5
X128.85Y-73.25
X129.5Y-154.0
X130.375Y-144.375
X130.5Y-88.5
X130.875Y-117.375
X130.925Y-71.15
X131.0Y-76.75
X131.25Y-34.505
X133.887Y-160.387
X135.0Y-141.5
X136.0Y-135.0
X136.5Y-85.25
X136.75Y-102.5
X137.25Y-111.5
X137.505Y-46.255
X137.75Y-108.25
X138.5Y-85.75
X138.541Y-78.921
X138.75Y-86.75
X139.5Y-89.25
X140.25Y-86.5
X140.25Y-113.25
X140.25Y-123.5
X140.5Y-85.25
X140.75Y-127.75
X141.5Y-148.5
X142.25Y-77.5
X144.0Y-87.5
X144.75Y-142.5
X145.25Y-141.25
X145.5Y-84.25
X146.0Y-90.75
X146.0Y-138.5
X146.5Y-80.25
X146.75Y-127.5
X148.0Y-143.5
X148.966Y-139.534
X149.0Y-53.5
X149.0Y-77.5
X149.5Y-144.0
X150.0Y-136.25
X150.25Y-38.75
X150.5Y-137.75
X150.75Y-118.5
X151.0Y-49.25
X151.0Y-92.0
X151.0Y-97.387
X151.771Y-81.482
X152.0Y-89.25
X152.25Y-136.5
X152.5Y-107.75
X152.5Y-130.0
X152.75Y-87.75
X153.0Y-86.5
X153.0Y-111.25
X153.5Y-143.5
X154.0Y-90.0
X154.25Y-109.5
X154.5Y-136.0
X155.5Y-142.5
X156.0Y-139.5
X157.75Y-123.5
X159.5Y-155.25
X159.75Y-145.5
X160.5Y-142.5
T3
X100.75Y-88.9
X100.75Y-91.44
T4
X77.5Y-67.5
X77.5Y-70.04
X78.77Y-68.78
X79.23Y-63.52
X80.51Y-62.25
X81.77Y-63.52
T5
X147.25Y-34.505
X147.25Y-37.045
X147.25Y-46.255
X147.25Y-48.795
T6
X156.25Y-74.7
X156.25Y-82.5
X156.25Y-90.3
X156.25Y-98.1
X158.75Y-74.7
X158.75Y-82.5
X158.75Y-90.3
X158.75Y-98.1
X161.25Y-74.7
X161.25Y-82.5
X161.25Y-90.3
X161.25Y-98.1
T7
X68.96Y-81.48
X68.96Y-86.07
X68.96Y-90.66
X68.96Y-95.25
X69.132Y-106.5
X71.5Y-81.48
X71.5Y-86.07
X71.5Y-90.66
X71.5Y-95.25
X74.04Y-81.48
X74.04Y-86.07
X74.04Y-90.66
X74.04Y-95.25
X74.132Y-106.5
X79.75Y-113.75
X82.29Y-113.75
X92.25Y-105.75
X94.79Y-105.75
X97.33Y-105.75
X101.75Y-51.42
X101.75Y-53.96
X101.75Y-56.5
X101.75Y-59.04
X101.75Y-61.58
X114.46Y-67.0
X117.0Y-67.0
X119.54Y-67.0
X122.08Y-67.0
X124.62Y-67.0
X138.09Y-73.75
X140.63Y-73.75
X143.17Y-73.75
X145.71Y-73.75
X148.25Y-73.75
X150.79Y-73.75
X157.71Y-48.25
X158.0Y-39.25
X160.21Y-48.25
X160.5Y-39.25
X162.25Y-104.96
X162.25Y-107.5
X162.25Y-110.04
X162.25Y-112.58
T8
X157.67Y-53.75
X157.96Y-33.0
X160.21Y-53.75
X160.5Y-33.0
T9
X111.46Y-29.29
X128.46Y-28.96
T10
X108.92Y-26.75
X108.92Y-31.83
X114.0Y-26.75
X114.0Y-31.83
X125.92Y-26.42
X125.92Y-31.5
X131.0Y-26.42
X131.0Y-31.5
T11
X145.75Y-155.25
X152.95Y-155.25
T12
X154.65Y-76.7
X154.65Y-84.5
X154.65Y-92.3
X154.65Y-100.1
T2
G00X86.1Y-29.325
M15
G01X86.1Y-28.175
M16
G05
G00X86.1Y-32.425
M15
G01X86.1Y-31.475
M16
G05
G00X95.0Y-29.325
M15
G01X95.0Y-28.175
M16
G05
G00X95.0Y-32.425
M15
G01X95.0Y-31.475
M16
G05
M30
